<svg width="78" height="65" viewBox="0 0 78 65" fill="none" xmlns="http://www.w3.org/2000/svg">
<path d="M71.1813 8.62622H70.0695H65.9493H57.8379H53.8357H6.81871C3.05395 8.62622 0 11.6766 0 15.4406V43.468C0 47.2319 3.05395 50.2824 6.81871 50.2824H48.3631H52.3496H52.3512H65.3549H70.1685H71.1813C74.9461 50.2824 78 47.2319 78 43.468V15.4406C78 11.6766 74.9461 8.62622 71.1813 8.62622Z" fill="#D6EAE8"/>
<path d="M66.9932 0.5L70.5692 4.5248L65.949 8.62661L26.8295 43.3505L23.2518 39.3257L8.70703 22.9594L12.7344 19.3856L27.2792 35.7504L57.8376 8.62661L66.9932 0.5Z" fill="#29BEBA"/>
<path d="M67.5485 48.3374L65.0214 50.0692L52.1797 41.8169L67.5485 48.3374Z" fill="#C3DDDA"/>
<path d="M70.0695 8.62622L26.4839 47.8008L8.79077 27.5684L10.9169 25.4452L23.2522 39.3253L26.8298 43.3502L65.9494 8.62622H70.0695Z" fill="#C3DDDA"/>
</svg>
