<svg width="25" height="25" viewBox="0 0 25 25" fill="none" xmlns="http://www.w3.org/2000/svg">
<path d="M17.25 11.4873H15C14.8011 11.4873 14.6103 11.4083 14.4696 11.2676C14.329 11.127 14.25 10.9362 14.25 10.7373C14.25 10.5384 14.329 10.3476 14.4696 10.207C14.6103 10.0663 14.8011 9.9873 15 9.9873H17.25C17.4489 9.9873 17.6397 10.0663 17.7803 10.207C17.921 10.3476 18 10.5384 18 10.7373C18 10.9362 17.921 11.127 17.7803 11.2676C17.6397 11.4083 17.4489 11.4873 17.25 11.4873ZM10.5 9.9873H9.74997V9.2373C9.74997 9.03839 9.67095 8.84763 9.5303 8.70697C9.38965 8.56632 9.19888 8.4873 8.99997 8.4873C8.80106 8.4873 8.61029 8.56632 8.46964 8.70697C8.32899 8.84763 8.24997 9.03839 8.24997 9.2373V9.9873H7.49997C7.30106 9.9873 7.11029 10.0663 6.96964 10.207C6.82899 10.3476 6.74997 10.5384 6.74997 10.7373C6.74997 10.9362 6.82899 11.127 6.96964 11.2676C7.11029 11.4083 7.30106 11.4873 7.49997 11.4873H8.24997V12.2373C8.24997 12.4362 8.32899 12.627 8.46964 12.7676C8.61029 12.9083 8.80106 12.9873 8.99997 12.9873C9.19888 12.9873 9.38965 12.9083 9.5303 12.7676C9.67095 12.627 9.74997 12.4362 9.74997 12.2373V11.4873H10.5C10.6989 11.4873 10.8896 11.4083 11.0303 11.2676C11.171 11.127 11.25 10.9362 11.25 10.7373C11.25 10.5384 11.171 10.3476 11.0303 10.207C10.8896 10.0663 10.6989 9.9873 10.5 9.9873ZM23.3887 19.7982C23.1061 20.2019 22.7384 20.5387 22.3117 20.7851C21.8849 21.0315 21.4094 21.1814 20.9185 21.2244C20.4276 21.2674 19.9333 21.2024 19.4702 21.0339C19.0072 20.8654 18.5866 20.5976 18.2381 20.2492C18.2268 20.2379 18.2156 20.2267 18.2053 20.2145L14.4825 15.9873H11.0137L7.29466 20.2145L7.26185 20.2492C6.62829 20.8814 5.76999 21.2367 4.87497 21.2373C4.38226 21.2371 3.89556 21.1291 3.44906 20.9207C3.00257 20.7124 2.60711 20.4088 2.29046 20.0313C1.97381 19.6538 1.74366 19.2115 1.61616 18.7356C1.48867 18.2597 1.46693 17.7616 1.55247 17.2764C1.55202 17.272 1.55202 17.2676 1.55247 17.2632L3.08716 9.3798C3.31556 8.07956 3.9949 6.9014 5.00581 6.05235C6.01671 5.2033 7.2945 4.73768 8.61466 4.7373H16.875C18.1911 4.7394 19.465 5.20236 20.4754 6.0458C21.4858 6.88923 22.169 8.05988 22.4062 9.35449C22.4062 9.36012 22.4062 9.36574 22.4062 9.37137L23.9409 17.2623C23.9414 17.2667 23.9414 17.2711 23.9409 17.2754C24.0203 17.7116 24.0124 18.1591 23.9176 18.5922C23.8229 19.0252 23.6431 19.4352 23.3887 19.7982ZM16.875 14.4873C17.969 14.4873 19.0182 14.0527 19.7918 13.2791C20.5654 12.5055 21 11.4563 21 10.3623C21 9.26829 20.5654 8.21908 19.7918 7.44549C19.0182 6.6719 17.969 6.2373 16.875 6.2373H8.61466C7.64618 6.23817 6.70902 6.58056 5.96807 7.20422C5.22712 7.82788 4.72984 8.69286 4.56372 9.64699V9.65918L3.0281 17.5426C2.96022 17.9335 3.01805 18.3357 3.19326 18.6916C3.36848 19.0475 3.65206 19.3387 4.00321 19.5232C4.35436 19.7078 4.75498 19.7762 5.14747 19.7186C5.53996 19.6611 5.90408 19.4805 6.18747 19.2029L10.1175 14.7414C10.1878 14.6615 10.2744 14.5976 10.3714 14.5538C10.4684 14.51 10.5736 14.4873 10.68 14.4873H16.875ZM22.4718 17.5426L21.6525 13.3239C21.1485 14.1376 20.4453 14.8093 19.6093 15.2754C18.7732 15.7415 17.8321 15.9865 16.875 15.9873H16.4812L19.3125 19.2039C19.5259 19.4115 19.7856 19.5656 20.0701 19.6534C20.3547 19.7412 20.656 19.7604 20.9493 19.7092C21.4381 19.6229 21.8726 19.3464 22.1578 18.9403C22.4431 18.5342 22.5566 18.0316 22.4718 17.5426Z" fill="#FF47BF"/>
</svg>
