<svg width="25" height="24" viewBox="0 0 25 24" fill="none" xmlns="http://www.w3.org/2000/svg">
<g clip-path="url(#clip0_57443_9371)">
<path d="M22.4649 5.59753L7.49672 5.59753C7.33131 5.59753 7.17268 5.66324 7.05572 5.7802C6.93876 5.89717 6.87305 6.0558 6.87305 6.22121L6.87305 16.8237C6.87305 17.1545 7.00446 17.4718 7.23839 17.7057C7.47231 17.9396 7.78958 18.0711 8.1204 18.0711L21.8413 18.0711C22.1721 18.0711 22.4894 17.9396 22.7233 17.7057C22.9572 17.4718 23.0886 17.1545 23.0886 16.8237L23.0886 6.22121C23.0886 6.0558 23.0229 5.89717 22.906 5.7802C22.789 5.66324 22.6304 5.59753 22.4649 5.59753ZM14.9808 12.2358L9.10035 6.84489L20.8613 6.84489L14.9808 12.2358ZM12.6974 11.8343L8.1204 16.0293L8.1204 7.63929L12.6974 11.8343ZM13.6204 12.6802L14.556 13.5416C14.671 13.6472 14.8215 13.7058 14.9777 13.7058C15.1339 13.7058 15.2844 13.6472 15.3995 13.5416L16.335 12.6802L20.8566 16.8237L9.10035 16.8237L13.6204 12.6802ZM17.2643 11.8343L21.8413 7.63851L21.8413 16.0301L17.2643 11.8343Z" fill="#60719E"/>
<path d="M5.69226 10.429L6.31726 10.429L6.31726 9.17896L5.69226 9.17896L5.69226 10.429ZM1.28442 9.17896C0.939246 9.17896 0.659424 9.45878 0.659424 9.80396C0.659424 10.1491 0.939246 10.429 1.28442 10.429L1.28442 9.17896ZM5.69226 9.17896L1.28442 9.17896L1.28442 10.429L5.69226 10.429L5.69226 9.17896Z" fill="#60719E"/>
<path d="M5.69226 12.4595L6.31726 12.4595L6.31726 11.2095L5.69226 11.2095L5.69226 12.4595ZM4.15747 11.2095C3.81229 11.2095 3.53247 11.4893 3.53247 11.8345C3.53247 12.1797 3.81229 12.4595 4.15747 12.4595L4.15747 11.2095ZM5.69226 11.2095L4.15747 11.2095L4.15747 12.4595L5.69226 12.4595L5.69226 11.2095Z" fill="#60719E"/>
<path d="M5.69226 14.4901L6.31726 14.4901L6.31726 13.2401L5.69226 13.2401L5.69226 14.4901ZM2.62256 13.2401C2.27738 13.2401 1.99756 13.5199 1.99756 13.8651C1.99756 14.2103 2.27738 14.4901 2.62256 14.4901L2.62256 13.2401ZM5.69226 13.2401L2.62256 13.2401L2.62256 14.4901L5.69226 14.4901L5.69226 13.2401Z" fill="#60719E"/>
</g>
<defs>
<clipPath id="clip0_57443_9371">
<rect width="24" height="24" fill="white" transform="translate(0.5)"/>
</clipPath>
</defs>
</svg>
