<svg width="24" height="25" viewBox="0 0 24 25" fill="none" xmlns="http://www.w3.org/2000/svg">
<rect y="0.343018" width="24" height="24" rx="12" fill="#4FCAB7"/>
<path d="M14.9167 14.0097H14.2583L14.025 13.7847C14.8417 12.8347 15.3333 11.6014 15.3333 10.2597C15.3333 7.26802 12.9083 4.84302 9.91667 4.84302C6.925 4.84302 4.5 7.26802 4.5 10.2597C4.5 13.2514 6.925 15.6764 9.91667 15.6764C11.2583 15.6764 12.4917 15.1847 13.4417 14.368L13.6667 14.6014V15.2597L17.8333 19.418L19.075 18.1764L14.9167 14.0097ZM9.91667 14.0097C7.84167 14.0097 6.16667 12.3347 6.16667 10.2597C6.16667 8.18468 7.84167 6.50968 9.91667 6.50968C11.9917 6.50968 13.6667 8.18468 13.6667 10.2597C13.6667 12.3347 11.9917 14.0097 9.91667 14.0097Z" fill="black"/>
</svg>
