<svg width="24" height="25" viewBox="0 0 24 25" fill="none" xmlns="http://www.w3.org/2000/svg">
<path d="M19.5 3.90918H4.5C3.90326 3.90918 3.33097 4.14623 2.90901 4.56819C2.48705 4.99015 2.25 5.56244 2.25 6.15918V16.6592C2.25 17.2559 2.48705 17.8282 2.90901 18.2502C3.33097 18.6721 3.90326 18.9092 4.5 18.9092H11.25V20.4092H9C8.80109 20.4092 8.61032 20.4882 8.46967 20.6288C8.32902 20.7695 8.25 20.9603 8.25 21.1592C8.25 21.3581 8.32902 21.5489 8.46967 21.6895C8.61032 21.8302 8.80109 21.9092 9 21.9092H15C15.1989 21.9092 15.3897 21.8302 15.5303 21.6895C15.671 21.5489 15.75 21.3581 15.75 21.1592C15.75 20.9603 15.671 20.7695 15.5303 20.6288C15.3897 20.4882 15.1989 20.4092 15 20.4092H12.75V18.9092H19.5C20.0967 18.9092 20.669 18.6721 21.091 18.2502C21.5129 17.8282 21.75 17.2559 21.75 16.6592V6.15918C21.75 5.56244 21.5129 4.99015 21.091 4.56819C20.669 4.14623 20.0967 3.90918 19.5 3.90918ZM4.5 5.40918H19.5C19.6989 5.40918 19.8897 5.4882 20.0303 5.62885C20.171 5.7695 20.25 5.96027 20.25 6.15918V13.6592H3.75V6.15918C3.75 5.96027 3.82902 5.7695 3.96967 5.62885C4.11032 5.4882 4.30109 5.40918 4.5 5.40918ZM19.5 17.4092H4.5C4.30109 17.4092 4.11032 17.3302 3.96967 17.1895C3.82902 17.0489 3.75 16.8581 3.75 16.6592V15.1592H20.25V16.6592C20.25 16.8581 20.171 17.0489 20.0303 17.1895C19.8897 17.3302 19.6989 17.4092 19.5 17.4092Z" fill="black"/>
</svg>
