<svg width="24" height="24" viewBox="0 0 24 24" fill="none" xmlns="http://www.w3.org/2000/svg">
<path d="M18.3966 12.8413L18.34 13.2655L18.6765 13.53L20.5001 14.9635L18.8118 17.8829L16.6495 17.0144L16.2503 16.8541L15.9104 17.1177C15.4703 17.459 14.9893 17.7434 14.4674 17.9557L14.0679 18.1182L14.0074 18.5451L13.6807 20.8504H10.3093L9.98257 18.5451L9.92205 18.1182L9.52259 17.9557C9.0044 17.7449 8.53134 17.461 8.0738 17.1133L7.73515 16.8559L7.34044 17.0144L5.17821 17.8829L3.49045 14.9645L5.33065 13.5322L5.68324 13.2578L5.60978 12.8171C5.56839 12.5687 5.54999 12.2818 5.54999 12.0004C5.54999 11.7489 5.58299 11.4644 5.62978 11.1837L5.70324 10.743L5.35064 10.4685L3.51001 9.03592L5.18868 6.11803L7.35044 6.98635L7.74372 7.14431L8.08194 6.88892C8.53265 6.54859 9.01617 6.25518 9.53259 6.04511L9.93205 5.88262L9.99257 5.45564L10.3193 3.15039H13.6907L14.0174 5.45564L14.0779 5.88262L14.4774 6.04511C14.9956 6.2559 15.4686 6.53978 15.9262 6.88751L16.2648 7.14489L16.6595 6.98635L18.8218 6.11784L20.5095 9.03626L18.6693 10.4685L18.3167 10.743L18.3902 11.1837C18.4317 11.4326 18.45 11.7096 18.45 12.0004C18.45 12.2997 18.4319 12.5764 18.3966 12.8413ZM20.6993 8.88853L20.699 8.88876C20.6992 8.88863 20.6994 8.8885 20.6995 8.88838L20.6993 8.88853Z" stroke="black" stroke-width="1.5"/>
<path d="M12 14.8504C10.4342 14.8504 9.15002 13.5662 9.15002 12.0004C9.15002 10.4346 10.4342 9.15039 12 9.15039C13.5658 9.15039 14.85 10.4346 14.85 12.0004C14.85 13.5662 13.5658 14.8504 12 14.8504Z" stroke="black" stroke-width="1.5"/>
</svg>
