<svg width="24" height="25" viewBox="0 0 24 25" fill="none" xmlns="http://www.w3.org/2000/svg">
<rect y="0.343018" width="24" height="24" rx="12" fill="#FF8447"/>
<path d="M19.4432 7.17095C19.3879 7.10476 19.3187 7.05152 19.2406 7.01499C19.1624 6.97846 19.0772 6.95954 18.991 6.95955H7.1085L6.66067 4.49718C6.636 4.3614 6.56446 4.23859 6.45853 4.15015C6.35259 4.06172 6.21898 4.01326 6.08098 4.01324H4.25943C4.10315 4.01324 3.95326 4.07533 3.84276 4.18584C3.73225 4.29634 3.67017 4.44622 3.67017 4.60251C3.67017 4.75879 3.73225 4.90867 3.84276 5.01918C3.95326 5.12968 4.10315 5.19177 4.25943 5.19177H5.58526L7.46795 15.5252C7.52341 15.8317 7.65885 16.118 7.86055 16.3553C7.58216 16.6153 7.38122 16.9474 7.28002 17.3146C7.17882 17.6819 7.18131 18.07 7.28722 18.4359C7.39312 18.8018 7.59831 19.1313 7.88001 19.3877C8.16172 19.6441 8.50894 19.8175 8.88318 19.8887C9.25742 19.9598 9.64404 19.9259 10.0002 19.7907C10.3563 19.6555 10.6681 19.4244 10.9009 19.1228C11.1337 18.8213 11.2784 18.4612 11.319 18.0824C11.3596 17.7036 11.2945 17.321 11.1309 16.977H14.4765C14.3446 17.253 14.2764 17.555 14.2769 17.8609C14.2769 18.2688 14.3978 18.6675 14.6244 19.0067C14.8511 19.3459 15.1732 19.6102 15.55 19.7663C15.9269 19.9224 16.3416 19.9632 16.7416 19.8837C17.1417 19.8041 17.5092 19.6077 17.7976 19.3192C18.0861 19.0308 18.2825 18.6633 18.3621 18.2632C18.4416 17.8632 18.4008 17.4485 18.2447 17.0716C18.0886 16.6948 17.8243 16.3727 17.4851 16.146C17.1459 15.9194 16.7472 15.7985 16.3393 15.7985H9.20701C9.06901 15.7984 8.9354 15.75 8.82946 15.6616C8.72353 15.5731 8.65199 15.4503 8.62732 15.3145L8.39383 14.0307H16.9381C17.3521 14.0306 17.7529 13.8853 18.0708 13.62C18.3886 13.3546 18.6032 12.9862 18.6772 12.5789L19.5728 7.65414C19.588 7.56902 19.5843 7.48161 19.5619 7.3981C19.5394 7.3146 19.4989 7.23704 19.4432 7.17095ZM10.152 17.8609C10.152 18.0357 10.1002 18.2066 10.0031 18.3519C9.90595 18.4973 9.76791 18.6106 9.6064 18.6775C9.44489 18.7444 9.26716 18.7619 9.09571 18.7278C8.92425 18.6937 8.76675 18.6095 8.64314 18.4859C8.51953 18.3623 8.43534 18.2048 8.40124 18.0333C8.36713 17.8619 8.38464 17.6841 8.45154 17.5226C8.51844 17.3611 8.63173 17.2231 8.77708 17.1259C8.92244 17.0288 9.09333 16.977 9.26815 16.977C9.50257 16.977 9.72739 17.0701 9.89315 17.2359C10.0589 17.4016 10.152 17.6265 10.152 17.8609ZM17.2232 17.8609C17.2232 18.0357 17.1713 18.2066 17.0742 18.3519C16.9771 18.4973 16.839 18.6106 16.6775 18.6775C16.516 18.7444 16.3383 18.7619 16.1668 18.7278C15.9954 18.6937 15.8379 18.6095 15.7143 18.4859C15.5907 18.3623 15.5065 18.2048 15.4724 18.0333C15.4383 17.8619 15.4558 17.6841 15.5227 17.5226C15.5896 17.3611 15.7029 17.2231 15.8482 17.1259C15.9936 17.0288 16.1645 16.977 16.3393 16.977C16.5737 16.977 16.7985 17.0701 16.9643 17.2359C17.13 17.4016 17.2232 17.6265 17.2232 17.8609ZM17.5178 12.3682C17.4931 12.5044 17.4212 12.6275 17.3148 12.716C17.2084 12.8044 17.0743 12.8527 16.9359 12.8522H8.17949L7.32285 8.13807H18.2846L17.5178 12.3682Z" fill="black"/>
</svg>
