<svg width="375" height="240" viewBox="0 0 375 240" fill="none" xmlns="http://www.w3.org/2000/svg">
<g clip-path="url(#clip0_57471_7500)">
<mask id="mask0_57471_7500" style="mask-type:alpha" maskUnits="userSpaceOnUse" x="-101" y="56" width="136" height="131">
<path d="M-12.6813 62.1231C-13.9942 52.9326 -19.8682 61.6626 -22.3569 64.0395C-24.8456 66.4164 -26.9972 64.2441 -28.3381 62.1231C-30.0141 59.4719 -30.9283 56.2418 -34.5851 62.1231C-38.2419 68.0044 -39.7656 65.3838 -43.4224 59.7462C-47.0792 54.1086 -47.5363 56.2418 -49.06 60.5081C-50.5837 64.7743 -53.7834 72.8498 -59.7257 66.4504C-65.668 60.051 -66.887 62.1231 -67.3441 66.4504C-67.8012 70.7777 -63.3825 79.8587 -74.0482 75.8971C-84.7139 71.9356 -82.8855 78.6397 -80.2953 83.5155C-77.705 88.3912 -78.924 88.696 -86.5423 90.2197C-94.1607 91.7433 -93.5512 91.7433 -91.8752 95.0954C-90.1992 98.4475 -80.4476 105.456 -91.8752 108.047C-103.303 110.637 -101.17 113.075 -96.9033 115.513C-92.637 117.95 -84.5616 119.931 -93.5512 124.655C-102.541 129.378 -98.2746 130.749 -92.7894 133.035C-87.3042 135.32 -86.5423 134.863 -93.5512 140.196C-100.56 145.529 -92.3323 146.443 -86.5423 148.424C-80.7524 150.405 -82.5808 151.776 -86.5423 158.328C-90.5039 164.88 -90.5038 167.165 -80.4476 164.575C-70.3914 161.985 -74.9624 165.337 -76.1813 172.041C-77.4003 178.745 -69.4772 171.127 -65.9728 170.669C-62.4683 170.212 -62.0112 170.669 -61.5541 180.012C-61.097 189.354 -54.6976 186.973 -51.0408 181.96C-47.384 176.948 -42.5082 175.393 -40.2227 180.012C-37.9372 184.63 -36.4135 187.582 -31.8425 181.96C-27.2715 176.339 -28.193 176.114 -22.8778 181.96C-17.5626 187.807 -16.8539 185.858 -15.6137 178.417C-14.3735 170.976 -9.23548 176.645 -3.56593 180.012C2.10361 183.378 2.90974 180.189 0.331871 172.925C-2.24601 165.661 1.57207 168.672 7.95031 169.204C14.3285 169.736 18.0492 171.153 14.8601 165.129C11.671 159.105 11.671 157.333 14.8601 154.512C17.4114 152.255 23.6141 153.572 26.3966 154.512C31.6467 154.821 26.3966 148.336 21.1465 143.394C15.8964 138.453 22.6906 137.526 29.1761 135.673C35.6615 133.82 37.2057 128.57 29.1761 125.173C21.1465 121.776 22.6906 119.614 26.3966 116.526C30.1026 113.438 40.294 107.879 29.1761 107.261C18.0582 106.643 19.6023 104.482 22.6906 96.7608C25.7789 89.0401 23.6171 89.9666 15.5875 89.0401C7.55794 88.1136 23.3083 77.9222 15.5875 76.6869C7.86678 75.4515 2.08916 90.0228 2.90974 71.5598C3.73032 53.0967 -11.0401 73.6112 -12.6813 62.1231Z" fill="#ECF1FF"/>
</mask>
<g mask="url(#mask0_57471_7500)">
<circle cx="-32.7258" cy="120.975" r="70.6475" fill="url(#paint0_radial_57471_7500)"/>
</g>
<path opacity="0.7" d="M207.247 126.719C203.415 117.025 201.627 97.9129 225.131 99.0208C217.191 88.3998 223.127 74.6097 235.847 77.8274C235.847 57.1422 248.566 56.2228 256.198 58.9809C261.286 46.11 276.973 36.9166 285.453 45.1907C292.236 51.81 293.367 57.1422 293.084 58.9809C296.052 55.9164 304.108 51.6261 312.587 58.9809C321.067 66.3356 319.513 74.6097 317.675 77.8274C320.926 75.529 328.953 73.0468 335.059 81.5047C341.164 89.9627 340.146 96.7062 338.874 99.0208C341.701 96.4322 349.135 92.8081 356.258 99.0208C363.381 105.233 362.9 112.916 361.77 115.98C366.151 114.712 375.422 115.085 377.457 126.719C382.884 122.173 387.633 124.825 389.329 126.719V179.874H188.784C185.251 175.278 180.305 164.062 188.784 155.971C195.246 149.807 201.058 150.19 204.619 151.874C199.364 147.491 194.985 138.496 207.247 126.719Z" fill="#E2E8F9"/>
<path d="M243.832 134.63C258.004 139.084 258.51 155.381 256.991 162.973V193.846H-33.0149C-33.8584 189.291 -35.0393 177.751 -33.0149 168.034C-30.9904 158.316 -22.7238 156.899 -18.8435 157.405C-19.3497 155.718 -20.0582 150.725 -18.8435 144.246C-17.6288 137.768 -7.87762 137.498 -3.15384 138.173C-4.84091 134.293 -7.20279 125.419 -3.15384 120.965C0.895111 116.511 15.7413 116.747 22.6582 117.422C20.2963 114.891 16.9897 106.895 22.6582 95.1527C28.3268 83.4108 41.5533 83.512 47.4581 85.0303C46.1084 81.8249 44.2189 73.6933 47.4581 66.8101C50.6972 59.9268 60.2797 59.5557 64.6661 60.2305C64.8348 57.8686 67.2979 51.5253 75.8007 45.0469C84.3035 38.5686 94.8645 44.0347 99.0822 47.5775C101.444 45.5531 109.103 42.2127 120.845 45.0469C132.587 47.8812 138.222 58.3747 139.572 63.2672C140.415 61.5802 144.633 58.6109 154.755 60.2305C164.878 61.8501 168.421 71.0277 168.927 75.4141C171.795 74.0644 179.758 73.2884 188.665 80.9814C197.573 88.6744 198.45 99.3704 197.775 103.757C199.294 102.238 205.165 101.327 216.502 109.83C227.839 118.333 224.262 129.906 221.057 134.63C222.744 132.774 229.661 130.176 243.832 134.63Z" fill="#E2E8F9"/>
<path d="M88.5156 89.2145C72.6703 95.6105 70.5952 113.199 71.5384 121.194C68.7354 119.122 60.2884 119.099 48.9239 135.585C37.5594 152.072 53.6591 180.052 63.1295 191.981H316.996C318.112 183.064 319.21 160.663 314.683 142.388C310.156 124.114 295.281 123.607 288.409 125.637C288.948 124.156 290.592 119.951 292.856 114.977C295.685 108.761 287.197 86.5512 269.007 93.6578C268.36 80.2569 255.533 75.553 249.201 74.8762C245.697 68.108 235.7 53.9626 223.735 51.526C211.771 49.0895 195.575 56.0933 188.973 59.8997C186.817 58.1237 181.05 54.5717 175.23 54.5717C169.409 54.5717 162.834 66.0776 160.274 71.8305C158.755 65.7808 151.189 54.9251 133.08 59.8997C114.972 64.8744 111.387 81.5157 111.859 89.2145C110.68 86.5496 104.361 82.8186 88.5156 89.2145Z" fill="white"/>
<path d="M25.4464 141.258L9.96151 101.92L5.79251 146.037L-3.88186 89.3187L-0.991309 168.566V202.02H71.0615L182.416 189.731V161.739V146.037L162.766 161.739L154.578 146.037L139.84 161.739L128.377 137.161L118.551 168.566L105.451 146.037V161.739L92.35 141.258L82.5245 161.739L71.0615 124.19L48.1355 168.566L36.6725 141.258H25.4464Z" fill="#62A543"/>
<path d="M378.027 137.161V168.566V202.02H305.975L194.62 189.731V161.739V146.037L214.271 161.739L222.458 146.037L237.197 161.739L248.66 137.161L258.485 168.566L271.586 146.037V161.739L284.686 141.257L294.512 161.739L305.975 150.094L328.901 168.566L340.364 141.257L351.827 161.739L378.027 137.161Z" fill="#62A543"/>
<path opacity="0.7" d="M5.75537 146.821L-0.991211 182.7V209.748H41.4165L106.956 199.812V177.18V164.485L95.3903 177.18L90.5712 164.485L81.8968 177.18L75.1501 157.309L69.3672 182.7L61.6567 164.485V177.18L53.9462 160.621L48.1632 177.18V157.309L27.9231 182.7L21.1764 160.621L14.4297 177.18L5.75537 146.821Z" fill="#8DBC77"/>
<path opacity="0.7" d="M371.281 146.821L378.027 182.7V209.748H335.62L270.08 199.812V177.18V164.485L281.646 177.18L286.465 164.485L295.139 177.18L301.886 157.309L307.669 182.7L315.379 164.485V177.18L323.09 160.621L328.873 177.18L335.62 146.821L349.113 182.7L355.86 160.621L362.606 177.18L371.281 146.821Z" fill="#8DBC77"/>
<path d="M162.605 84.5653L38.2397 208.931H351L208.165 66.0952L176.15 98.1101L162.605 84.5653Z" fill="#FFDADA"/>
<path d="M176.15 98.1101L162.605 84.5653L150.962 121.409L150.962 167.925L116.075 196.166L83.6807 208.931H351L208.165 66.0952L219.904 110.611L198.766 105.012L217.396 157.579L193.324 134.699L176.15 98.1101Z" fill="#E3AAAA"/>
<path d="M180.801 205.053C172.112 196.921 154.2 178.184 152.062 168.293C161.076 168.293 179.448 161.468 197.51 153.572C202.723 151.293 200.596 149.719 223.057 168.293C245.519 186.867 228.858 138.858 234.604 135.878C223.91 129.862 201.52 115.493 197.51 106.136C212.749 103.195 210.32 79.2904 207.201 67.7056" stroke="white" stroke-dasharray="2 2"/>
<circle cx="153.61" cy="169.37" r="5.25" fill="white" stroke="#E3AAAA" stroke-width="1.5"/>
<circle cx="237.322" cy="137.292" r="5.25" fill="white" stroke="#E3AAAA" stroke-width="1.5"/>
<circle cx="200.143" cy="106.892" r="5.25" fill="white" stroke="#E3AAAA" stroke-width="1.5"/>
<path d="M-0.991211 177.458V206.372V209.93H103.574L95.4899 206.372L91.0806 199.471L89.2434 206.372L86.6713 194.807L80.7923 203.077V199.471L77.1179 203.077V185.765L71.9737 203.077V194.807L69.0342 203.077L65.7272 181.076L60.9505 203.077L58.7459 172.42L52.4994 199.471V185.765L48.1047 194.807V177.458L37.3037 194.807V163.964L31.4122 177.458L22.5749 194.807V177.458L16.6834 194.807L12.3106 163.964L5.89855 179.338V165.348L-0.991211 177.458Z" fill="#A7DB8F"/>
<path d="M385.237 177.458V206.372V209.93H250.435L260.856 206.372L266.541 199.47L268.909 206.372L272.225 194.806L279.804 203.077V199.47L284.541 203.077V185.765L291.173 203.077V194.806L294.962 203.077L299.226 181.076L305.384 203.077L308.226 172.42L316.279 199.47V185.765L321.944 194.806V177.458L335.869 194.806V163.964L343.464 177.458L354.856 194.806V177.458L362.452 194.806L373.844 189.024V206.372L385.237 177.458Z" fill="#A7DB8F"/>
<path d="M136.219 208.361H97.8555L99.3066 209.93H258.666L257.75 208.361H212.261H198.997L159.935 204.176L136.219 208.361Z" fill="#A7DB8F"/>
<path d="M183.146 91.1026L208.261 66.1533L231.678 89.4917L215.6 78.2247V94.6755L211.134 78.2247L208.261 85.1477L204.237 78.2247L183.146 91.1026Z" fill="white"/>
<path d="M125.423 121.722L162.258 84.166L176.097 98.0995L183.085 112.59L153.379 113.962L125.423 121.722Z" fill="white"/>
<path d="M186.948 121.025L153.255 114.004L162.257 84.166L176.198 98.1098L186.948 121.025Z" fill="#EBEBEB"/>
<path d="M176.1 98.0926L207.261 65.1533L231.678 89.4917V102.514L217.024 99.5915L209.026 101.256L202.389 93.2168L177.8 101.998L176.1 98.0926Z" fill="white"/>
<path d="M231.678 102.514L216.927 99.5703L208.261 66.1533L240.357 98.2259L231.678 102.514Z" fill="#EBEBEB"/>
<path d="M179.03 195.597L183.024 192.891V204.139H179.03V195.597Z" fill="#FF9318"/>
<path d="M182.67 189.633C182.67 187.622 184.609 186.181 186.534 186.76L189.32 187.598L192.106 186.76C194.031 186.181 195.97 187.622 195.97 189.633V209.817H182.67V189.633Z" fill="#333333"/>
<circle cx="186.415" cy="194.463" r="0.618652" stroke="#333333"/>
<circle cx="186.415" cy="194.463" r="1.93262" stroke="white"/>
<circle cx="192.203" cy="194.463" r="1.93262" stroke="white"/>
<circle cx="192.203" cy="194.463" r="0.618652" stroke="#333333"/>
<path d="M375 209.114L375 215.886C375 215.886 314.846 240 187.5 240C60.1547 240 0 215.886 0 215.886V209.114H375Z" fill="#A7DB8F"/>
<path d="M127.896 119.974C127.896 119.974 149.113 92.4774 161.971 81.7625C162.906 80.9834 166.728 85.1561 167.492 85.9202" stroke="#E2E8F9" stroke-linecap="round"/>
<path d="M179.595 95.062C184.881 89.6662 189.753 83.8547 194.763 78.2073C197.763 74.8257 200.855 71.5318 203.945 68.2354" stroke="#E2E8F9" stroke-linecap="round"/>
<circle cx="208.143" cy="66.8921" r="5.25" fill="white" stroke="#E3AAAA" stroke-width="1.5"/>
</g>
<defs>
<radialGradient id="paint0_radial_57471_7500" cx="0" cy="0" r="1" gradientUnits="userSpaceOnUse" gradientTransform="translate(-32.7258 120.975) rotate(90) scale(70.6475)">
<stop offset="0.335" stop-color="#FFC400"/>
<stop offset="0.55" stop-color="#FFD500"/>
<stop offset="1" stop-color="#FFD900" stop-opacity="0"/>
</radialGradient>
<clipPath id="clip0_57471_7500">
<rect width="375" height="240" fill="white"/>
</clipPath>
</defs>
</svg>
