<svg width="375" height="239" viewBox="0 0 375 239" fill="none" xmlns="http://www.w3.org/2000/svg">
<rect x="0.192017" y="0.357178" width="375.991" height="208.573" fill="#ECF1FF"/>
<path d="M26.6296 140.258L11.1447 100.92L6.97572 145.037L0.191922 88.3188L0.191895 167.567V201.02H72.2447L183.6 188.731V160.739V145.037L163.949 160.739L155.761 145.037L141.023 160.739L129.56 136.161L119.734 167.567L106.634 145.037V160.739L93.5332 140.258L83.7077 160.739L72.2447 123.19L49.3187 167.567L37.8557 140.258H26.6296Z" fill="#62A543"/>
<path d="M379.211 136.161V167.566V201.02H307.158L195.803 188.731V160.739V145.037L215.454 160.739L223.642 145.037L238.38 160.739L249.843 136.161L259.668 167.566L272.769 145.037V160.739L285.869 140.257L295.695 160.739L307.158 149.094L330.084 167.566L341.547 140.257L353.01 160.739L379.211 136.161Z" fill="#62A543"/>
<path opacity="0.7" d="M6.9386 145.821L0.192017 181.7V208.748H42.5998L108.139 198.812V176.18V163.485L96.5735 176.18L91.7544 163.485L83.0801 176.18L76.3334 156.309L70.5504 181.7L62.8399 163.485V176.18L55.1294 159.621L49.3465 176.18V156.309L29.1063 181.7L22.3596 159.621L15.6129 176.18L6.9386 145.821Z" fill="#8DBC77"/>
<path opacity="0.7" d="M372.464 145.821L379.211 181.7V208.748H336.803L271.263 198.812V176.18V163.485L282.829 176.18L287.648 163.485L296.322 176.18L303.069 156.309L308.852 181.7L316.563 163.485V176.18L324.273 159.621L330.056 176.18L336.803 145.821L350.296 181.7L357.043 159.621L363.79 176.18L372.464 145.821Z" fill="#8DBC77"/>
<path d="M163.788 83.5653L39.4229 207.931H352.183L209.348 65.0952L177.333 97.1101L163.788 83.5653Z" fill="#FFDADA"/>
<path d="M177.333 97.1101L163.788 83.5653L152.145 120.409L152.145 166.925L117.259 195.166L84.8639 207.931H352.183L209.348 65.0952L221.088 109.611L199.949 104.012L218.58 156.579L194.507 133.699L177.333 97.1101Z" fill="#E3AAAA"/>
<path d="M181.984 204.053C173.295 195.921 155.383 177.184 153.245 167.293C162.259 167.293 180.631 160.468 198.693 152.572C203.906 150.293 201.779 148.719 224.241 167.293C246.702 185.867 230.041 137.858 235.787 134.878C225.093 128.862 202.703 114.493 198.693 105.136C213.932 102.195 211.504 78.2904 208.385 66.7056" stroke="white" stroke-dasharray="2 2"/>
<circle cx="154.794" cy="168.37" r="5.25" fill="white" stroke="#E3AAAA" stroke-width="1.5"/>
<circle cx="238.505" cy="136.292" r="5.25" fill="white" stroke="#E3AAAA" stroke-width="1.5"/>
<circle cx="201.326" cy="105.892" r="5.25" fill="white" stroke="#E3AAAA" stroke-width="1.5"/>
<path d="M0.192017 176.458V205.372V208.93H104.757L96.6731 205.372L92.2638 198.471L90.4267 205.372L87.8546 193.807L81.9755 202.077V198.471L78.3011 202.077V184.765L73.1569 202.077V193.807L70.2174 202.077L66.9105 180.076L62.1337 202.077L59.9291 171.42L53.6826 198.471V184.765L49.2879 193.807V176.458L38.4869 193.807V162.964L32.5954 176.458L23.7582 193.807V176.458L17.8667 193.807L13.4938 162.964L7.08178 178.338V164.348L0.192017 176.458Z" fill="#A7DB8F"/>
<path d="M386.421 176.458V205.372V208.93H251.618L262.04 205.372L267.724 198.47L270.092 205.372L273.408 193.806L280.987 202.077V198.47L285.724 202.077V184.765L292.356 202.077V193.806L296.146 202.077L300.409 180.076L306.567 202.077L309.409 171.42L317.462 198.47V184.765L323.127 193.806V176.458L337.052 193.806V162.964L344.647 176.458L356.04 193.806V176.458L363.635 193.806L375.028 188.024V205.372L386.421 176.458Z" fill="#A7DB8F"/>
<path d="M137.402 207.361H99.0387L100.49 208.93H259.849L258.933 207.361H213.444H200.18L161.119 203.176L137.402 207.361Z" fill="#A7DB8F"/>
<path d="M184.329 90.1026L209.444 65.1533L232.861 88.4917L216.783 77.2247V93.6755L212.317 77.2247L209.444 84.1477L205.42 77.2247L184.329 90.1026Z" fill="white"/>
<path d="M180.213 194.597L184.207 191.891V203.139H180.213V194.597Z" fill="#FF9318"/>
<path d="M183.853 188.633C183.853 186.623 185.792 185.181 187.717 185.76L190.503 186.598L193.289 185.76C195.214 185.181 197.153 186.623 197.153 188.633V208.817H183.853V188.633Z" fill="#333333"/>
<path d="M190.155 181.686L184.964 171.304H195.346L190.155 181.686Z" fill="#FF4747" stroke="white"/>
<circle cx="187.598" cy="193.463" r="0.618652" stroke="#333333"/>
<circle cx="187.598" cy="193.463" r="1.93262" stroke="white"/>
<circle cx="193.386" cy="193.463" r="1.93262" stroke="white"/>
<circle cx="193.386" cy="193.463" r="0.618652" stroke="#333333"/>
<path d="M376.183 208.114L376.183 214.886C376.183 214.886 316.029 239 188.684 239C61.3379 239 1.1832 214.886 1.1832 214.886V208.114H376.183Z" fill="#A7DB8F"/>
<circle cx="209.326" cy="65.8921" r="5.25" fill="white" stroke="#E3AAAA" stroke-width="1.5"/>
<g filter="url(#filter0_d_57443_8269)">
<rect x="252.409" y="27.0952" width="93" height="28" rx="8" fill="white" shape-rendering="crispEdges"/>
<rect width="16" height="16" transform="translate(260.409 33.0952)" fill="white"/>
<path d="M274.288 40.3881C274.678 40.7786 274.678 41.4118 274.288 41.8023L269.116 46.9739C268.726 47.3644 268.092 47.3644 267.702 46.9739L262.53 41.8023L261.823 42.5094L262.53 41.8023C262.14 41.4118 262.14 40.7786 262.53 40.3881L267.702 35.2165C268.092 34.826 268.726 34.826 269.116 35.2165L274.288 40.3881Z" fill="white" stroke="#333333" stroke-width="2"/>
<path d="M265.601 41.0952L268.409 38.287L271.217 41.0952L268.409 43.9034L265.601 41.0952Z" stroke="#333333" stroke-width="2"/>
<path d="M284.519 46.0952H282.352L282.366 44.4956H284.519C285.057 44.4956 285.51 44.3748 285.879 44.1333C286.249 43.8872 286.527 43.5295 286.713 43.0601C286.905 42.5907 287.001 42.0233 287.001 41.3579V40.8726C287.001 40.3621 286.946 39.9132 286.836 39.5259C286.732 39.1385 286.574 38.8127 286.365 38.5483C286.155 38.284 285.898 38.0858 285.592 37.9536C285.287 37.8169 284.936 37.7485 284.54 37.7485H282.311V36.1421H284.54C285.205 36.1421 285.813 36.256 286.365 36.4839C286.921 36.7072 287.402 37.0285 287.807 37.4478C288.213 37.867 288.525 38.3683 288.744 38.9517C288.967 39.5304 289.079 40.1753 289.079 40.8862V41.3579C289.079 42.0643 288.967 42.7091 288.744 43.2925C288.525 43.8758 288.213 44.3771 287.807 44.7964C287.406 45.2111 286.925 45.5324 286.365 45.7603C285.809 45.9836 285.194 46.0952 284.519 46.0952ZM283.514 36.1421V46.0952H281.463V36.1421H283.514ZM292.624 38.6987V46.0952H290.648V38.6987H292.624ZM290.525 36.771C290.525 36.4839 290.626 36.2469 290.826 36.0601C291.027 35.8732 291.296 35.7798 291.633 35.7798C291.965 35.7798 292.232 35.8732 292.433 36.0601C292.638 36.2469 292.74 36.4839 292.74 36.771C292.74 37.0581 292.638 37.2951 292.433 37.4819C292.232 37.6688 291.965 37.7622 291.633 37.7622C291.296 37.7622 291.027 37.6688 290.826 37.4819C290.626 37.2951 290.525 37.0581 290.525 36.771ZM298.343 44.4272V41.1323C298.343 40.8953 298.304 40.6925 298.227 40.5239C298.149 40.3507 298.029 40.2163 297.865 40.1206C297.705 40.0249 297.498 39.9771 297.243 39.9771C297.024 39.9771 296.835 40.0158 296.675 40.0933C296.516 40.1662 296.393 40.2733 296.306 40.4146C296.219 40.5513 296.176 40.7131 296.176 40.8999H294.207C294.207 40.5854 294.28 40.2869 294.426 40.0044C294.572 39.7218 294.784 39.4735 295.062 39.2593C295.34 39.0405 295.67 38.8696 296.053 38.7466C296.44 38.6235 296.873 38.562 297.352 38.562C297.926 38.562 298.437 38.6577 298.883 38.8491C299.33 39.0405 299.681 39.3276 299.936 39.7104C300.196 40.0933 300.326 40.5718 300.326 41.146V44.311C300.326 44.7166 300.351 45.0493 300.401 45.3091C300.451 45.5643 300.524 45.7876 300.619 45.979V46.0952H298.63C298.535 45.8947 298.462 45.644 298.411 45.3433C298.366 45.0379 298.343 44.7326 298.343 44.4272ZM298.603 41.5903L298.617 42.7046H297.516C297.256 42.7046 297.031 42.7342 296.839 42.7935C296.648 42.8527 296.491 42.937 296.368 43.0464C296.244 43.1512 296.153 43.2743 296.094 43.4155C296.039 43.5568 296.012 43.7118 296.012 43.8804C296.012 44.049 296.051 44.2017 296.128 44.3384C296.206 44.4705 296.317 44.5754 296.463 44.6528C296.609 44.7257 296.78 44.7622 296.976 44.7622C297.272 44.7622 297.53 44.703 297.748 44.5845C297.967 44.466 298.136 44.3201 298.254 44.147C298.377 43.9738 298.441 43.8097 298.446 43.6548L298.965 44.4888C298.892 44.6756 298.792 44.8693 298.664 45.0698C298.541 45.2703 298.384 45.4595 298.193 45.6372C298.001 45.8104 297.771 45.9539 297.502 46.0679C297.233 46.1772 296.914 46.2319 296.545 46.2319C296.076 46.2319 295.65 46.1385 295.267 45.9517C294.889 45.7603 294.588 45.4982 294.365 45.1655C294.146 44.8283 294.036 44.4455 294.036 44.0171C294.036 43.6297 294.109 43.2856 294.255 42.9849C294.401 42.6841 294.615 42.4312 294.898 42.2261C295.185 42.0164 295.543 41.8592 295.971 41.7544C296.399 41.645 296.896 41.5903 297.461 41.5903H298.603ZM303.912 40.23V46.0952H301.936V38.6987H303.789L303.912 40.23ZM303.638 42.1372H303.092C303.092 41.6222 303.153 41.1483 303.276 40.7153C303.404 40.2778 303.588 39.8996 303.83 39.5806C304.076 39.257 304.379 39.0063 304.739 38.8286C305.099 38.6509 305.516 38.562 305.99 38.562C306.318 38.562 306.619 38.6121 306.892 38.7124C307.166 38.8081 307.4 38.9608 307.596 39.1704C307.797 39.3755 307.952 39.6444 308.061 39.9771C308.171 40.3052 308.225 40.6994 308.225 41.1597V46.0952H306.257V41.3784C306.257 41.0412 306.211 40.7814 306.12 40.5991C306.029 40.4168 305.899 40.2892 305.73 40.2163C305.566 40.1434 305.368 40.1069 305.135 40.1069C304.88 40.1069 304.657 40.1593 304.466 40.2642C304.279 40.369 304.124 40.5148 304.001 40.7017C303.878 40.884 303.787 41.0981 303.727 41.3442C303.668 41.5903 303.638 41.8547 303.638 42.1372ZM308.041 41.9116L307.337 42.0005C307.337 41.5174 307.396 41.0685 307.514 40.6538C307.637 40.2391 307.817 39.8745 308.054 39.5601C308.296 39.2456 308.594 39.0018 308.95 38.8286C309.305 38.6509 309.716 38.562 310.18 38.562C310.536 38.562 310.859 38.6144 311.151 38.7192C311.443 38.8195 311.691 38.9813 311.896 39.2046C312.106 39.4233 312.265 39.7104 312.375 40.0659C312.489 40.4214 312.546 40.8566 312.546 41.3716V46.0952H310.57V41.3716C310.57 41.0298 310.524 40.77 310.433 40.5923C310.347 40.41 310.219 40.2847 310.051 40.2163C309.886 40.1434 309.691 40.1069 309.463 40.1069C309.226 40.1069 309.018 40.1548 308.841 40.2505C308.663 40.3416 308.515 40.4692 308.396 40.6333C308.278 40.7974 308.189 40.9888 308.13 41.2075C308.07 41.4217 308.041 41.6564 308.041 41.9116ZM313.856 42.4722V42.3286C313.856 41.7863 313.933 41.2873 314.088 40.8315C314.243 40.3713 314.469 39.9725 314.765 39.6353C315.061 39.298 315.426 39.036 315.859 38.8491C316.291 38.6577 316.788 38.562 317.349 38.562C317.909 38.562 318.408 38.6577 318.846 38.8491C319.283 39.036 319.65 39.298 319.946 39.6353C320.247 39.9725 320.475 40.3713 320.63 40.8315C320.785 41.2873 320.862 41.7863 320.862 42.3286V42.4722C320.862 43.0099 320.785 43.509 320.63 43.9692C320.475 44.425 320.247 44.8237 319.946 45.1655C319.65 45.5028 319.286 45.7648 318.853 45.9517C318.42 46.1385 317.923 46.2319 317.362 46.2319C316.802 46.2319 316.303 46.1385 315.865 45.9517C315.432 45.7648 315.066 45.5028 314.765 45.1655C314.469 44.8237 314.243 44.425 314.088 43.9692C313.933 43.509 313.856 43.0099 313.856 42.4722ZM315.824 42.3286V42.4722C315.824 42.7821 315.852 43.0715 315.906 43.3403C315.961 43.6092 316.048 43.8462 316.166 44.0513C316.289 44.2518 316.449 44.409 316.645 44.5229C316.841 44.6369 317.08 44.6938 317.362 44.6938C317.636 44.6938 317.871 44.6369 318.067 44.5229C318.263 44.409 318.42 44.2518 318.538 44.0513C318.657 43.8462 318.743 43.6092 318.798 43.3403C318.857 43.0715 318.887 42.7821 318.887 42.4722V42.3286C318.887 42.0278 318.857 41.7453 318.798 41.481C318.743 41.2121 318.654 40.9751 318.531 40.77C318.413 40.5604 318.256 40.3963 318.06 40.2778C317.864 40.1593 317.627 40.1001 317.349 40.1001C317.071 40.1001 316.834 40.1593 316.638 40.2778C316.446 40.3963 316.289 40.5604 316.166 40.77C316.048 40.9751 315.961 41.2121 315.906 41.481C315.852 41.7453 315.824 42.0278 315.824 42.3286ZM324.1 40.2778V46.0952H322.131V38.6987H323.977L324.1 40.2778ZM323.813 42.1372H323.28C323.28 41.5903 323.35 41.0981 323.492 40.6606C323.633 40.2186 323.831 39.8426 324.086 39.5327C324.342 39.2183 324.645 38.979 324.996 38.8149C325.351 38.6463 325.748 38.562 326.185 38.562C326.531 38.562 326.848 38.6121 327.135 38.7124C327.422 38.8127 327.669 38.9722 327.874 39.1909C328.083 39.4097 328.243 39.6991 328.352 40.0591C328.466 40.4191 328.523 40.8589 328.523 41.3784V46.0952H326.541V41.3716C326.541 41.0435 326.495 40.7882 326.404 40.606C326.313 40.4237 326.178 40.2961 326.001 40.2231C325.827 40.1457 325.613 40.1069 325.358 40.1069C325.094 40.1069 324.863 40.1593 324.668 40.2642C324.476 40.369 324.317 40.5148 324.189 40.7017C324.066 40.884 323.973 41.0981 323.909 41.3442C323.845 41.5903 323.813 41.8547 323.813 42.1372ZM334.488 44.4819V35.5952H336.471V46.0952H334.686L334.488 44.4819ZM329.812 42.4858V42.3423C329.812 41.7772 329.876 41.2645 330.004 40.8042C330.131 40.3394 330.318 39.9406 330.564 39.6079C330.81 39.2752 331.114 39.0177 331.474 38.8354C331.834 38.6532 332.244 38.562 332.704 38.562C333.137 38.562 333.515 38.6532 333.839 38.8354C334.167 39.0177 334.445 39.2775 334.673 39.6147C334.905 39.9474 335.092 40.3416 335.233 40.7974C335.375 41.2485 335.477 41.743 335.541 42.2808V42.5952C335.477 43.1102 335.375 43.5887 335.233 44.0308C335.092 44.4728 334.905 44.8602 334.673 45.1929C334.445 45.521 334.167 45.7762 333.839 45.9585C333.511 46.1408 333.128 46.2319 332.69 46.2319C332.23 46.2319 331.82 46.1385 331.46 45.9517C331.104 45.7648 330.804 45.5028 330.558 45.1655C330.316 44.8283 330.131 44.4318 330.004 43.9761C329.876 43.5203 329.812 43.0236 329.812 42.4858ZM331.781 42.3423V42.4858C331.781 42.7912 331.804 43.076 331.85 43.3403C331.9 43.6047 331.979 43.8394 332.089 44.0444C332.203 44.245 332.349 44.4022 332.526 44.5161C332.709 44.6255 332.93 44.6802 333.189 44.6802C333.527 44.6802 333.805 44.605 334.023 44.4546C334.242 44.2996 334.408 44.0877 334.522 43.8188C334.641 43.55 334.709 43.2401 334.727 42.8892V41.9937C334.714 41.7065 334.673 41.4491 334.604 41.2212C334.541 40.9888 334.445 40.7905 334.317 40.6265C334.194 40.4624 334.039 40.3348 333.852 40.2437C333.67 40.1525 333.454 40.1069 333.203 40.1069C332.948 40.1069 332.729 40.1662 332.547 40.2847C332.365 40.3986 332.216 40.5558 332.102 40.7563C331.993 40.9569 331.911 41.1938 331.856 41.4673C331.806 41.7362 331.781 42.0278 331.781 42.3423Z" fill="#333333"/>
</g>
<g filter="url(#filter1_d_57443_8269)">
<rect x="252.409" y="67.0952" width="94" height="28" rx="8" fill="white" shape-rendering="crispEdges"/>
<rect width="16" height="16" transform="translate(260.409 73.0952)" fill="white"/>
<path d="M274.288 80.3881C274.678 80.7786 274.678 81.4118 274.288 81.8023L269.116 86.9739C268.726 87.3644 268.092 87.3644 267.702 86.9739L262.53 81.8023L261.823 82.5094L262.53 81.8023C262.14 81.4118 262.14 80.7786 262.53 80.3881L267.702 75.2165C268.092 74.826 268.726 74.826 269.116 75.2165L274.288 80.3881Z" fill="white" stroke="#333333" stroke-width="2"/>
<path d="M273.066 84.7518C273.066 85.3041 272.618 85.7518 272.066 85.7518L264.752 85.7518C264.2 85.7518 263.752 85.3041 263.752 84.7518L263.752 77.4381L262.752 77.4381L263.752 77.4381C263.752 76.8858 264.2 76.4381 264.752 76.4381L272.066 76.4381C272.618 76.4381 273.066 76.8858 273.066 77.4381L273.066 84.7518Z" stroke="#333333" stroke-width="2"/>
<path d="M285.577 82.5474H283.041V80.9478H285.577C285.969 80.9478 286.288 80.884 286.535 80.7563C286.781 80.6242 286.961 80.4419 287.075 80.2095C287.188 79.9771 287.245 79.715 287.245 79.4233C287.245 79.1271 287.188 78.8514 287.075 78.5962C286.961 78.341 286.781 78.1359 286.535 77.981C286.288 77.826 285.969 77.7485 285.577 77.7485H283.752V86.0952H281.702V76.1421H285.577C286.357 76.1421 287.024 76.2834 287.58 76.5659C288.141 76.8439 288.569 77.229 288.866 77.7212C289.162 78.2134 289.31 78.7762 289.31 79.4097C289.31 80.0522 289.162 80.6082 288.866 81.0776C288.569 81.547 288.141 81.9093 287.58 82.1646C287.024 82.4198 286.357 82.5474 285.577 82.5474ZM292.78 75.5952V86.0952H290.804V75.5952H292.78ZM298.499 84.4272V81.1323C298.499 80.8953 298.46 80.6925 298.383 80.5239C298.305 80.3507 298.185 80.2163 298.021 80.1206C297.861 80.0249 297.654 79.9771 297.399 79.9771C297.18 79.9771 296.991 80.0158 296.831 80.0933C296.672 80.1662 296.549 80.2733 296.462 80.4146C296.375 80.5513 296.332 80.7131 296.332 80.8999H294.363C294.363 80.5854 294.436 80.2869 294.582 80.0044C294.728 79.7218 294.94 79.4735 295.218 79.2593C295.496 79.0405 295.826 78.8696 296.209 78.7466C296.597 78.6235 297.029 78.562 297.508 78.562C298.082 78.562 298.593 78.6577 299.039 78.8491C299.486 79.0405 299.837 79.3276 300.092 79.7104C300.352 80.0933 300.482 80.5718 300.482 81.146V84.311C300.482 84.7166 300.507 85.0493 300.557 85.3091C300.607 85.5643 300.68 85.7876 300.776 85.979V86.0952H298.786C298.691 85.8947 298.618 85.644 298.568 85.3433C298.522 85.0379 298.499 84.7326 298.499 84.4272ZM298.759 81.5903L298.773 82.7046H297.672C297.412 82.7046 297.187 82.7342 296.995 82.7935C296.804 82.8527 296.647 82.937 296.524 83.0464C296.401 83.1512 296.309 83.2743 296.25 83.4155C296.195 83.5568 296.168 83.7118 296.168 83.8804C296.168 84.049 296.207 84.2017 296.284 84.3384C296.362 84.4705 296.473 84.5754 296.619 84.6528C296.765 84.7257 296.936 84.7622 297.132 84.7622C297.428 84.7622 297.686 84.703 297.904 84.5845C298.123 84.466 298.292 84.3201 298.41 84.147C298.533 83.9738 298.597 83.8097 298.602 83.6548L299.121 84.4888C299.048 84.6756 298.948 84.8693 298.82 85.0698C298.697 85.2703 298.54 85.4595 298.349 85.6372C298.157 85.8104 297.927 85.9539 297.658 86.0679C297.389 86.1772 297.07 86.2319 296.701 86.2319C296.232 86.2319 295.806 86.1385 295.423 85.9517C295.045 85.7603 294.744 85.4982 294.521 85.1655C294.302 84.8283 294.193 84.4455 294.193 84.0171C294.193 83.6297 294.265 83.2856 294.411 82.9849C294.557 82.6841 294.771 82.4312 295.054 82.2261C295.341 82.0164 295.699 81.8592 296.127 81.7544C296.555 81.645 297.052 81.5903 297.617 81.5903H298.759ZM305.722 78.6987V80.0933H301.416V78.6987H305.722ZM302.482 76.8735H304.451V83.8667C304.451 84.0809 304.478 84.245 304.533 84.3589C304.592 84.4728 304.679 84.5526 304.793 84.5981C304.906 84.6392 305.05 84.6597 305.223 84.6597C305.346 84.6597 305.456 84.6551 305.551 84.646C305.652 84.6323 305.736 84.6187 305.804 84.605L305.811 86.0542C305.642 86.1089 305.46 86.1522 305.264 86.1841C305.068 86.216 304.852 86.2319 304.615 86.2319C304.182 86.2319 303.804 86.1613 303.48 86.02C303.161 85.8742 302.915 85.6418 302.742 85.3228C302.569 85.0037 302.482 84.5845 302.482 84.0649V76.8735ZM309.021 78.6987V86.0952H307.046V78.6987H309.021ZM306.923 76.771C306.923 76.4839 307.023 76.2469 307.224 76.0601C307.424 75.8732 307.693 75.7798 308.03 75.7798C308.363 75.7798 308.63 75.8732 308.83 76.0601C309.035 76.2469 309.138 76.4839 309.138 76.771C309.138 77.0581 309.035 77.2951 308.83 77.4819C308.63 77.6688 308.363 77.7622 308.03 77.7622C307.693 77.7622 307.424 77.6688 307.224 77.4819C307.023 77.2951 306.923 77.0581 306.923 76.771ZM312.676 80.2778V86.0952H310.707V78.6987H312.553L312.676 80.2778ZM312.389 82.1372H311.856C311.856 81.5903 311.926 81.0981 312.068 80.6606C312.209 80.2186 312.407 79.8426 312.662 79.5327C312.918 79.2183 313.221 78.979 313.572 78.8149C313.927 78.6463 314.324 78.562 314.761 78.562C315.107 78.562 315.424 78.6121 315.711 78.7124C315.998 78.8127 316.244 78.9722 316.45 79.1909C316.659 79.4097 316.819 79.6991 316.928 80.0591C317.042 80.4191 317.099 80.8589 317.099 81.3784V86.0952H315.117V81.3716C315.117 81.0435 315.071 80.7882 314.98 80.606C314.889 80.4237 314.754 80.2961 314.577 80.2231C314.403 80.1457 314.189 80.1069 313.934 80.1069C313.67 80.1069 313.439 80.1593 313.244 80.2642C313.052 80.369 312.893 80.5148 312.765 80.7017C312.642 80.884 312.549 81.0981 312.485 81.3442C312.421 81.5903 312.389 81.8547 312.389 82.1372ZM323.071 84.3247V78.6987H325.04V86.0952H323.187L323.071 84.3247ZM323.29 82.8071L323.871 82.7935C323.871 83.2856 323.814 83.7437 323.7 84.1675C323.586 84.5868 323.415 84.9513 323.187 85.2612C322.959 85.5666 322.672 85.8058 322.326 85.979C321.98 86.1476 321.572 86.2319 321.102 86.2319C320.742 86.2319 320.41 86.1818 320.104 86.0815C319.803 85.9767 319.544 85.8149 319.325 85.5962C319.111 85.3729 318.942 85.0881 318.819 84.7417C318.701 84.3908 318.641 83.9692 318.641 83.4771V78.6987H320.61V83.4907C320.61 83.7095 320.635 83.894 320.685 84.0444C320.74 84.1948 320.815 84.3179 320.911 84.4136C321.007 84.5093 321.118 84.5776 321.246 84.6187C321.378 84.6597 321.524 84.6802 321.683 84.6802C322.089 84.6802 322.408 84.5981 322.64 84.4341C322.877 84.27 323.044 84.0467 323.139 83.7642C323.24 83.4771 323.29 83.158 323.29 82.8071ZM328.612 80.23V86.0952H326.637V78.6987H328.489L328.612 80.23ZM328.339 82.1372H327.792C327.792 81.6222 327.854 81.1483 327.977 80.7153C328.104 80.2778 328.289 79.8996 328.53 79.5806C328.777 79.257 329.08 79.0063 329.44 78.8286C329.8 78.6509 330.217 78.562 330.691 78.562C331.019 78.562 331.319 78.6121 331.593 78.7124C331.866 78.8081 332.101 78.9608 332.297 79.1704C332.498 79.3755 332.652 79.6444 332.762 79.9771C332.871 80.3052 332.926 80.6994 332.926 81.1597V86.0952H330.957V81.3784C330.957 81.0412 330.912 80.7814 330.82 80.5991C330.729 80.4168 330.599 80.2892 330.431 80.2163C330.267 80.1434 330.069 80.1069 329.836 80.1069C329.581 80.1069 329.358 80.1593 329.166 80.2642C328.979 80.369 328.824 80.5148 328.701 80.7017C328.578 80.884 328.487 81.0981 328.428 81.3442C328.369 81.5903 328.339 81.8547 328.339 82.1372ZM332.741 81.9116L332.037 82.0005C332.037 81.5174 332.096 81.0685 332.215 80.6538C332.338 80.2391 332.518 79.8745 332.755 79.5601C332.997 79.2456 333.295 79.0018 333.651 78.8286C334.006 78.6509 334.416 78.562 334.881 78.562C335.236 78.562 335.56 78.6144 335.852 78.7192C336.143 78.8195 336.392 78.9813 336.597 79.2046C336.806 79.4233 336.966 79.7104 337.075 80.0659C337.189 80.4214 337.246 80.8566 337.246 81.3716V86.0952H335.271V81.3716C335.271 81.0298 335.225 80.77 335.134 80.5923C335.047 80.41 334.92 80.2847 334.751 80.2163C334.587 80.1434 334.391 80.1069 334.163 80.1069C333.926 80.1069 333.719 80.1548 333.541 80.2505C333.363 80.3416 333.215 80.4692 333.097 80.6333C332.978 80.7974 332.889 80.9888 332.83 81.2075C332.771 81.4217 332.741 81.6564 332.741 81.9116Z" fill="#333333"/>
</g>
<g filter="url(#filter2_d_57443_8269)">
<rect x="252.409" y="107.095" width="66" height="28" rx="8" fill="white" shape-rendering="crispEdges"/>
<rect width="16" height="16" transform="translate(260.409 113.095)" fill="white"/>
<path d="M274.288 120.388C274.678 120.779 274.678 121.412 274.288 121.802L269.116 126.974C268.726 127.364 268.092 127.364 267.702 126.974L262.53 121.802L261.823 122.509L262.53 121.802C262.14 121.412 262.14 120.779 262.53 120.388L267.702 115.217C268.092 114.826 268.726 114.826 269.116 115.217L274.288 120.388Z" fill="white" stroke="#333333" stroke-width="2"/>
<path d="M289.517 120.893V124.837C289.362 125.024 289.123 125.227 288.799 125.446C288.475 125.66 288.058 125.845 287.548 126C287.038 126.154 286.42 126.232 285.695 126.232C285.053 126.232 284.467 126.127 283.939 125.917C283.41 125.703 282.954 125.391 282.571 124.981C282.193 124.571 281.902 124.069 281.696 123.477C281.491 122.88 281.389 122.199 281.389 121.433V120.811C281.389 120.045 281.487 119.364 281.683 118.767C281.883 118.17 282.168 117.667 282.537 117.256C282.906 116.846 283.346 116.534 283.857 116.32C284.367 116.106 284.934 115.999 285.559 115.999C286.425 115.999 287.136 116.14 287.692 116.422C288.248 116.7 288.671 117.088 288.963 117.584C289.259 118.077 289.442 118.642 289.51 119.28H287.521C287.471 118.943 287.375 118.649 287.234 118.398C287.092 118.147 286.889 117.951 286.625 117.81C286.365 117.669 286.028 117.598 285.613 117.598C285.272 117.598 284.966 117.669 284.697 117.81C284.433 117.947 284.21 118.15 284.027 118.418C283.845 118.687 283.706 119.02 283.61 119.417C283.515 119.813 283.467 120.273 283.467 120.797V121.433C283.467 121.953 283.517 122.413 283.617 122.814C283.718 123.21 283.866 123.545 284.062 123.819C284.262 124.088 284.508 124.291 284.8 124.427C285.092 124.564 285.431 124.632 285.819 124.632C286.142 124.632 286.411 124.605 286.625 124.55C286.844 124.496 287.019 124.43 287.152 124.352C287.288 124.27 287.393 124.193 287.466 124.12V122.356H285.593V120.893H289.517ZM290.834 122.472V122.329C290.834 121.786 290.911 121.287 291.066 120.832C291.221 120.371 291.447 119.972 291.743 119.635C292.039 119.298 292.404 119.036 292.836 118.849C293.269 118.658 293.766 118.562 294.327 118.562C294.887 118.562 295.386 118.658 295.824 118.849C296.261 119.036 296.628 119.298 296.924 119.635C297.225 119.972 297.453 120.371 297.608 120.832C297.763 121.287 297.84 121.786 297.84 122.329V122.472C297.84 123.01 297.763 123.509 297.608 123.969C297.453 124.425 297.225 124.824 296.924 125.166C296.628 125.503 296.264 125.765 295.831 125.952C295.398 126.139 294.901 126.232 294.34 126.232C293.78 126.232 293.281 126.139 292.843 125.952C292.41 125.765 292.044 125.503 291.743 125.166C291.447 124.824 291.221 124.425 291.066 123.969C290.911 123.509 290.834 123.01 290.834 122.472ZM292.802 122.329V122.472C292.802 122.782 292.83 123.071 292.884 123.34C292.939 123.609 293.026 123.846 293.144 124.051C293.267 124.252 293.427 124.409 293.623 124.523C293.819 124.637 294.058 124.694 294.34 124.694C294.614 124.694 294.849 124.637 295.044 124.523C295.24 124.409 295.398 124.252 295.516 124.051C295.635 123.846 295.721 123.609 295.776 123.34C295.835 123.071 295.865 122.782 295.865 122.472V122.329C295.865 122.028 295.835 121.745 295.776 121.481C295.721 121.212 295.632 120.975 295.509 120.77C295.391 120.56 295.234 120.396 295.038 120.278C294.842 120.159 294.605 120.1 294.327 120.1C294.049 120.1 293.812 120.159 293.616 120.278C293.424 120.396 293.267 120.56 293.144 120.77C293.026 120.975 292.939 121.212 292.884 121.481C292.83 121.745 292.802 122.028 292.802 122.329ZM301.228 115.595V126.095H299.253V115.595H301.228ZM307.324 124.482V115.595H309.306V126.095H307.522L307.324 124.482ZM302.648 122.486V122.342C302.648 121.777 302.712 121.264 302.839 120.804C302.967 120.339 303.154 119.941 303.4 119.608C303.646 119.275 303.949 119.018 304.309 118.835C304.669 118.653 305.079 118.562 305.539 118.562C305.972 118.562 306.351 118.653 306.674 118.835C307.002 119.018 307.28 119.278 307.508 119.615C307.741 119.947 307.927 120.342 308.069 120.797C308.21 121.249 308.313 121.743 308.376 122.281V122.595C308.313 123.11 308.21 123.589 308.069 124.031C307.927 124.473 307.741 124.86 307.508 125.193C307.28 125.521 307.002 125.776 306.674 125.958C306.346 126.141 305.963 126.232 305.526 126.232C305.065 126.232 304.655 126.139 304.295 125.952C303.94 125.765 303.639 125.503 303.393 125.166C303.151 124.828 302.967 124.432 302.839 123.976C302.712 123.52 302.648 123.024 302.648 122.486ZM304.617 122.342V122.486C304.617 122.791 304.639 123.076 304.685 123.34C304.735 123.605 304.815 123.839 304.924 124.044C305.038 124.245 305.184 124.402 305.362 124.516C305.544 124.625 305.765 124.68 306.025 124.68C306.362 124.68 306.64 124.605 306.859 124.455C307.077 124.3 307.244 124.088 307.358 123.819C307.476 123.55 307.545 123.24 307.563 122.889V121.994C307.549 121.707 307.508 121.449 307.44 121.221C307.376 120.989 307.28 120.791 307.153 120.626C307.03 120.462 306.875 120.335 306.688 120.244C306.506 120.153 306.289 120.107 306.038 120.107C305.783 120.107 305.564 120.166 305.382 120.285C305.2 120.399 305.052 120.556 304.938 120.756C304.828 120.957 304.746 121.194 304.692 121.467C304.642 121.736 304.617 122.028 304.617 122.342Z" fill="#333333"/>
</g>
<g filter="url(#filter3_d_57443_8269)">
<rect x="252.409" y="147.095" width="73" height="28" rx="8" fill="white" shape-rendering="crispEdges"/>
<rect width="16" height="16" transform="translate(260.409 153.095)" fill="white"/>
<circle cx="266.909" cy="161.095" r="5" stroke="#333333" stroke-width="2"/>
<circle cx="269.909" cy="161.095" r="5" fill="white" stroke="#333333" stroke-width="2"/>
<path d="M286.867 163.491C286.867 163.313 286.84 163.153 286.785 163.012C286.735 162.866 286.639 162.734 286.498 162.616C286.357 162.493 286.158 162.372 285.903 162.253C285.648 162.135 285.317 162.012 284.912 161.884C284.461 161.738 284.032 161.574 283.627 161.392C283.226 161.21 282.87 160.998 282.56 160.756C282.255 160.51 282.013 160.225 281.836 159.902C281.663 159.578 281.576 159.202 281.576 158.774C281.576 158.359 281.667 157.983 281.849 157.646C282.032 157.304 282.287 157.013 282.615 156.771C282.943 156.525 283.33 156.336 283.777 156.204C284.228 156.071 284.723 156.005 285.26 156.005C285.994 156.005 286.635 156.138 287.181 156.402C287.728 156.666 288.152 157.028 288.453 157.489C288.758 157.949 288.911 158.475 288.911 159.068H286.874C286.874 158.776 286.812 158.521 286.689 158.302C286.571 158.079 286.388 157.903 286.142 157.776C285.901 157.648 285.595 157.584 285.226 157.584C284.871 157.584 284.575 157.639 284.338 157.749C284.101 157.853 283.923 157.997 283.804 158.179C283.686 158.357 283.627 158.557 283.627 158.781C283.627 158.949 283.668 159.102 283.75 159.239C283.836 159.375 283.964 159.503 284.133 159.622C284.301 159.74 284.509 159.852 284.755 159.957C285.001 160.061 285.286 160.164 285.609 160.264C286.151 160.428 286.628 160.613 287.038 160.818C287.453 161.023 287.799 161.253 288.077 161.508C288.355 161.764 288.565 162.053 288.706 162.376C288.847 162.7 288.918 163.067 288.918 163.477C288.918 163.91 288.833 164.297 288.665 164.639C288.496 164.981 288.252 165.27 287.933 165.507C287.614 165.744 287.234 165.924 286.792 166.047C286.35 166.17 285.855 166.232 285.308 166.232C284.816 166.232 284.331 166.168 283.852 166.041C283.374 165.908 282.939 165.71 282.547 165.446C282.159 165.181 281.849 164.844 281.617 164.434C281.385 164.024 281.268 163.539 281.268 162.978H283.326C283.326 163.288 283.374 163.55 283.469 163.764C283.565 163.978 283.7 164.152 283.873 164.284C284.051 164.416 284.26 164.512 284.502 164.571C284.748 164.63 285.017 164.66 285.308 164.66C285.664 164.66 285.955 164.61 286.183 164.509C286.416 164.409 286.587 164.27 286.696 164.092C286.81 163.915 286.867 163.714 286.867 163.491ZM292.367 158.699V166.095H290.392V158.699H292.367ZM290.269 156.771C290.269 156.484 290.369 156.247 290.569 156.06C290.77 155.873 291.039 155.78 291.376 155.78C291.709 155.78 291.975 155.873 292.176 156.06C292.381 156.247 292.484 156.484 292.484 156.771C292.484 157.058 292.381 157.295 292.176 157.482C291.975 157.669 291.709 157.762 291.376 157.762C291.039 157.762 290.77 157.669 290.569 157.482C290.369 157.295 290.269 157.058 290.269 156.771ZM296.172 155.595V166.095H294.197V155.595H296.172ZM300.415 164.66L302.056 158.699H304.113L301.618 166.095H300.374L300.415 164.66ZM299.287 158.699L300.935 164.667L300.969 166.095H299.718L297.223 158.699H299.287ZM308.404 166.232C307.829 166.232 307.314 166.141 306.859 165.958C306.403 165.772 306.016 165.514 305.697 165.186C305.382 164.858 305.141 164.477 304.972 164.044C304.803 163.607 304.719 163.142 304.719 162.65V162.376C304.719 161.816 304.799 161.303 304.958 160.838C305.118 160.374 305.346 159.97 305.642 159.628C305.943 159.287 306.307 159.025 306.736 158.842C307.164 158.655 307.647 158.562 308.185 158.562C308.709 158.562 309.174 158.649 309.579 158.822C309.985 158.995 310.325 159.241 310.598 159.56C310.876 159.879 311.086 160.262 311.227 160.708C311.368 161.151 311.439 161.643 311.439 162.185V163.005H305.56V161.693H309.504V161.542C309.504 161.269 309.454 161.025 309.354 160.811C309.258 160.592 309.112 160.419 308.916 160.292C308.72 160.164 308.47 160.1 308.164 160.1C307.905 160.1 307.681 160.157 307.494 160.271C307.308 160.385 307.155 160.544 307.036 160.75C306.923 160.955 306.836 161.196 306.777 161.474C306.722 161.748 306.695 162.048 306.695 162.376V162.65C306.695 162.946 306.736 163.22 306.818 163.47C306.904 163.721 307.025 163.937 307.18 164.12C307.34 164.302 307.531 164.443 307.754 164.543C307.982 164.644 308.24 164.694 308.527 164.694C308.882 164.694 309.213 164.625 309.518 164.489C309.828 164.347 310.094 164.136 310.318 163.853L311.275 164.892C311.12 165.115 310.908 165.33 310.639 165.535C310.375 165.74 310.056 165.908 309.682 166.041C309.308 166.168 308.882 166.232 308.404 166.232ZM314.629 160.312V166.095H312.66V158.699H314.512L314.629 160.312ZM316.857 158.651L316.823 160.476C316.727 160.462 316.611 160.451 316.474 160.442C316.342 160.428 316.221 160.421 316.112 160.421C315.834 160.421 315.593 160.458 315.387 160.531C315.187 160.599 315.018 160.702 314.882 160.838C314.749 160.975 314.649 161.141 314.581 161.337C314.517 161.533 314.481 161.757 314.471 162.007L314.075 161.884C314.075 161.406 314.123 160.966 314.219 160.565C314.314 160.159 314.453 159.806 314.635 159.505C314.822 159.205 315.05 158.972 315.319 158.808C315.588 158.644 315.896 158.562 316.242 158.562C316.351 158.562 316.463 158.571 316.577 158.589C316.691 158.603 316.784 158.624 316.857 158.651Z" fill="#333333"/>
</g>
<g filter="url(#filter4_d_57443_8269)">
<rect x="252.409" y="187.095" width="81" height="28" rx="8" fill="white" shape-rendering="crispEdges"/>
<rect width="16" height="16" transform="translate(260.409 193.095)" fill="white"/>
<circle cx="268.409" cy="201.095" r="5" stroke="#333333" stroke-width="2"/>
<path d="M285.35 201.727H282.794L282.78 200.319H284.927C285.305 200.319 285.615 200.271 285.856 200.175C286.098 200.075 286.278 199.931 286.396 199.745C286.519 199.553 286.581 199.321 286.581 199.047C286.581 198.737 286.522 198.487 286.403 198.295C286.289 198.104 286.109 197.965 285.863 197.878C285.622 197.792 285.309 197.749 284.927 197.749H283.505V206.095H281.454V196.142H284.927C285.505 196.142 286.023 196.197 286.478 196.306C286.939 196.416 287.328 196.582 287.647 196.805C287.966 197.028 288.21 197.311 288.379 197.653C288.547 197.99 288.632 198.391 288.632 198.856C288.632 199.266 288.538 199.644 288.351 199.991C288.169 200.337 287.88 200.62 287.483 200.838C287.091 201.057 286.579 201.178 285.945 201.201L285.35 201.727ZM285.261 206.095H282.233L283.033 204.496H285.261C285.622 204.496 285.915 204.439 286.143 204.325C286.371 204.206 286.54 204.047 286.649 203.846C286.759 203.646 286.813 203.416 286.813 203.156C286.813 202.864 286.763 202.611 286.663 202.397C286.567 202.183 286.412 202.019 286.198 201.905C285.984 201.786 285.701 201.727 285.35 201.727H283.375L283.388 200.319H285.849L286.321 200.873C286.927 200.863 287.415 200.971 287.784 201.194C288.158 201.413 288.429 201.697 288.597 202.048C288.771 202.399 288.857 202.775 288.857 203.176C288.857 203.814 288.718 204.352 288.44 204.79C288.162 205.222 287.754 205.548 287.217 205.767C286.683 205.986 286.032 206.095 285.261 206.095ZM292.341 200.312V206.095H290.372V198.699H292.225L292.341 200.312ZM294.569 198.651L294.535 200.476C294.44 200.462 294.323 200.451 294.187 200.442C294.055 200.428 293.934 200.421 293.824 200.421C293.546 200.421 293.305 200.458 293.1 200.531C292.899 200.599 292.731 200.702 292.594 200.838C292.462 200.975 292.361 201.141 292.293 201.337C292.229 201.533 292.193 201.757 292.184 202.007L291.787 201.884C291.787 201.406 291.835 200.966 291.931 200.565C292.027 200.159 292.166 199.806 292.348 199.505C292.535 199.205 292.763 198.972 293.031 198.808C293.3 198.644 293.608 198.562 293.954 198.562C294.064 198.562 294.175 198.571 294.289 198.589C294.403 198.603 294.497 198.624 294.569 198.651ZM295.08 202.472V202.329C295.08 201.786 295.157 201.287 295.312 200.832C295.467 200.371 295.693 199.972 295.989 199.635C296.285 199.298 296.65 199.036 297.083 198.849C297.516 198.658 298.012 198.562 298.573 198.562C299.133 198.562 299.632 198.658 300.07 198.849C300.507 199.036 300.874 199.298 301.17 199.635C301.471 199.972 301.699 200.371 301.854 200.832C302.009 201.287 302.086 201.786 302.086 202.329V202.472C302.086 203.01 302.009 203.509 301.854 203.969C301.699 204.425 301.471 204.824 301.17 205.166C300.874 205.503 300.51 205.765 300.077 205.952C299.644 206.139 299.147 206.232 298.586 206.232C298.026 206.232 297.527 206.139 297.089 205.952C296.656 205.765 296.29 205.503 295.989 205.166C295.693 204.824 295.467 204.425 295.312 203.969C295.157 203.509 295.08 203.01 295.08 202.472ZM297.048 202.329V202.472C297.048 202.782 297.076 203.071 297.13 203.34C297.185 203.609 297.272 203.846 297.39 204.051C297.513 204.252 297.673 204.409 297.869 204.523C298.065 204.637 298.304 204.694 298.586 204.694C298.86 204.694 299.095 204.637 299.291 204.523C299.487 204.409 299.644 204.252 299.762 204.051C299.881 203.846 299.967 203.609 300.022 203.34C300.081 203.071 300.111 202.782 300.111 202.472V202.329C300.111 202.028 300.081 201.745 300.022 201.481C299.967 201.212 299.878 200.975 299.755 200.77C299.637 200.56 299.48 200.396 299.284 200.278C299.088 200.159 298.851 200.1 298.573 200.1C298.295 200.1 298.058 200.159 297.862 200.278C297.67 200.396 297.513 200.56 297.39 200.77C297.272 200.975 297.185 201.212 297.13 201.481C297.076 201.745 297.048 202.028 297.048 202.329ZM305.324 200.278V206.095H303.355V198.699H305.201L305.324 200.278ZM305.037 202.137H304.504C304.504 201.59 304.574 201.098 304.716 200.661C304.857 200.219 305.055 199.843 305.31 199.533C305.566 199.218 305.869 198.979 306.22 198.815C306.575 198.646 306.972 198.562 307.409 198.562C307.755 198.562 308.072 198.612 308.359 198.712C308.646 198.813 308.893 198.972 309.098 199.191C309.307 199.41 309.467 199.699 309.576 200.059C309.69 200.419 309.747 200.859 309.747 201.378V206.095H307.765V201.372C307.765 201.043 307.719 200.788 307.628 200.606C307.537 200.424 307.402 200.296 307.225 200.223C307.051 200.146 306.837 200.107 306.582 200.107C306.318 200.107 306.088 200.159 305.892 200.264C305.7 200.369 305.541 200.515 305.413 200.702C305.29 200.884 305.197 201.098 305.133 201.344C305.069 201.59 305.037 201.855 305.037 202.137ZM317.23 204.557V206.095H311.611V204.557H317.23ZM317.12 199.833L312.404 206.095H311.084V204.926L315.781 198.699H317.12V199.833ZM316.423 198.699V200.244H311.194V198.699H316.423ZM321.862 206.232C321.288 206.232 320.773 206.141 320.317 205.958C319.861 205.772 319.474 205.514 319.155 205.186C318.841 204.858 318.599 204.477 318.43 204.044C318.262 203.607 318.177 203.142 318.177 202.65V202.376C318.177 201.816 318.257 201.303 318.417 200.838C318.576 200.374 318.804 199.97 319.1 199.628C319.401 199.287 319.766 199.025 320.194 198.842C320.622 198.655 321.106 198.562 321.643 198.562C322.167 198.562 322.632 198.649 323.038 198.822C323.443 198.995 323.783 199.241 324.056 199.56C324.334 199.879 324.544 200.262 324.685 200.708C324.827 201.151 324.897 201.643 324.897 202.185V203.005H319.018V201.693H322.963V201.542C322.963 201.269 322.913 201.025 322.812 200.811C322.717 200.592 322.571 200.419 322.375 200.292C322.179 200.164 321.928 200.1 321.623 200.1C321.363 200.1 321.14 200.157 320.953 200.271C320.766 200.385 320.613 200.544 320.495 200.75C320.381 200.955 320.294 201.196 320.235 201.474C320.18 201.748 320.153 202.048 320.153 202.376V202.65C320.153 202.946 320.194 203.22 320.276 203.47C320.363 203.721 320.483 203.937 320.638 204.12C320.798 204.302 320.989 204.443 321.213 204.543C321.441 204.644 321.698 204.694 321.985 204.694C322.341 204.694 322.671 204.625 322.976 204.489C323.286 204.347 323.553 204.136 323.776 203.853L324.733 204.892C324.578 205.115 324.366 205.33 324.097 205.535C323.833 205.74 323.514 205.908 323.14 206.041C322.767 206.168 322.341 206.232 321.862 206.232Z" fill="#333333"/>
</g>
<path d="M245.683 48.0559C245.927 47.9254 246.018 47.6223 245.888 47.3789C245.757 47.1356 245.454 47.0441 245.211 47.1746L245.683 48.0559ZM218.193 61.8285C218.113 62.0929 218.263 62.3719 218.527 62.4517L222.835 63.7522C223.1 63.832 223.379 63.6824 223.459 63.418C223.538 63.1537 223.389 62.8747 223.124 62.7949L219.295 61.6389L220.451 57.8095C220.531 57.5452 220.381 57.2662 220.117 57.1864C219.853 57.1066 219.574 57.2562 219.494 57.5205L218.193 61.8285ZM245.211 47.1746L218.436 61.5324L218.908 62.4137L245.683 48.0559L245.211 47.1746Z" fill="black"/>
<path d="M245.692 84.6532C245.933 84.5177 246.018 84.2128 245.883 83.9722C245.747 83.7316 245.442 83.6464 245.202 83.7818L245.692 84.6532ZM210.041 103.747C209.967 104.013 210.122 104.289 210.388 104.364L214.722 105.575C214.988 105.649 215.264 105.494 215.338 105.228C215.413 104.962 215.257 104.686 214.991 104.612L211.139 103.535L212.216 99.6828C212.29 99.4168 212.135 99.141 211.869 99.0666C211.603 98.9923 211.327 99.1476 211.253 99.4136L210.041 103.747ZM245.202 83.7818L210.278 103.446L210.768 104.318L245.692 84.6532L245.202 83.7818Z" fill="black"/>
<path d="M245.513 158.442C245.787 158.406 245.979 158.155 245.943 157.881C245.906 157.607 245.655 157.415 245.381 157.451L245.513 158.442ZM167.053 167.994C166.885 168.213 166.927 168.527 167.146 168.695L170.719 171.43C170.938 171.598 171.252 171.557 171.42 171.337C171.588 171.118 171.546 170.804 171.327 170.636L168.151 168.205L170.583 165.029C170.75 164.81 170.709 164.496 170.489 164.328C170.27 164.16 169.956 164.202 169.789 164.421L167.053 167.994ZM245.381 157.451L167.384 167.802L167.516 168.793L245.513 158.442L245.381 157.451Z" fill="black"/>
<path d="M245.447 199.968C245.723 199.968 245.947 199.744 245.947 199.468C245.947 199.192 245.723 198.968 245.447 198.968V199.968ZM200.468 199.114C200.273 199.309 200.273 199.626 200.468 199.821L203.65 203.003C203.845 203.199 204.162 203.199 204.357 203.003C204.553 202.808 204.553 202.491 204.357 202.296L201.529 199.468L204.357 196.639C204.553 196.444 204.553 196.128 204.357 195.932C204.162 195.737 203.845 195.737 203.65 195.932L200.468 199.114ZM245.447 198.968H200.822V199.968H245.447V198.968Z" fill="black"/>
<path d="M245.69 132.04C245.931 131.906 246.018 131.601 245.884 131.36C245.75 131.119 245.446 131.032 245.204 131.166L245.69 132.04ZM237.593 135.565C237.518 135.83 237.672 136.107 237.937 136.183L242.264 137.418C242.53 137.493 242.807 137.34 242.882 137.074C242.958 136.809 242.804 136.532 242.539 136.456L238.692 135.358L239.79 131.512C239.866 131.246 239.712 130.97 239.446 130.894C239.181 130.818 238.904 130.972 238.828 131.238L237.593 135.565ZM245.204 131.166L237.831 135.265L238.317 136.139L245.69 132.04L245.204 131.166Z" fill="black"/>
<defs>
<filter id="filter0_d_57443_8269" x="248.409" y="27.0952" width="101" height="36" filterUnits="userSpaceOnUse" color-interpolation-filters="sRGB">
<feFlood flood-opacity="0" result="BackgroundImageFix"/>
<feColorMatrix in="SourceAlpha" type="matrix" values="0 0 0 0 0 0 0 0 0 0 0 0 0 0 0 0 0 0 127 0" result="hardAlpha"/>
<feOffset dy="4"/>
<feGaussianBlur stdDeviation="2"/>
<feComposite in2="hardAlpha" operator="out"/>
<feColorMatrix type="matrix" values="0 0 0 0 0 0 0 0 0 0 0 0 0 0 0 0 0 0 0.25 0"/>
<feBlend mode="normal" in2="BackgroundImageFix" result="effect1_dropShadow_57443_8269"/>
<feBlend mode="normal" in="SourceGraphic" in2="effect1_dropShadow_57443_8269" result="shape"/>
</filter>
<filter id="filter1_d_57443_8269" x="248.409" y="67.0952" width="102" height="36" filterUnits="userSpaceOnUse" color-interpolation-filters="sRGB">
<feFlood flood-opacity="0" result="BackgroundImageFix"/>
<feColorMatrix in="SourceAlpha" type="matrix" values="0 0 0 0 0 0 0 0 0 0 0 0 0 0 0 0 0 0 127 0" result="hardAlpha"/>
<feOffset dy="4"/>
<feGaussianBlur stdDeviation="2"/>
<feComposite in2="hardAlpha" operator="out"/>
<feColorMatrix type="matrix" values="0 0 0 0 0 0 0 0 0 0 0 0 0 0 0 0 0 0 0.25 0"/>
<feBlend mode="normal" in2="BackgroundImageFix" result="effect1_dropShadow_57443_8269"/>
<feBlend mode="normal" in="SourceGraphic" in2="effect1_dropShadow_57443_8269" result="shape"/>
</filter>
<filter id="filter2_d_57443_8269" x="248.409" y="107.095" width="74" height="36" filterUnits="userSpaceOnUse" color-interpolation-filters="sRGB">
<feFlood flood-opacity="0" result="BackgroundImageFix"/>
<feColorMatrix in="SourceAlpha" type="matrix" values="0 0 0 0 0 0 0 0 0 0 0 0 0 0 0 0 0 0 127 0" result="hardAlpha"/>
<feOffset dy="4"/>
<feGaussianBlur stdDeviation="2"/>
<feComposite in2="hardAlpha" operator="out"/>
<feColorMatrix type="matrix" values="0 0 0 0 0 0 0 0 0 0 0 0 0 0 0 0 0 0 0.25 0"/>
<feBlend mode="normal" in2="BackgroundImageFix" result="effect1_dropShadow_57443_8269"/>
<feBlend mode="normal" in="SourceGraphic" in2="effect1_dropShadow_57443_8269" result="shape"/>
</filter>
<filter id="filter3_d_57443_8269" x="248.409" y="147.095" width="81" height="36" filterUnits="userSpaceOnUse" color-interpolation-filters="sRGB">
<feFlood flood-opacity="0" result="BackgroundImageFix"/>
<feColorMatrix in="SourceAlpha" type="matrix" values="0 0 0 0 0 0 0 0 0 0 0 0 0 0 0 0 0 0 127 0" result="hardAlpha"/>
<feOffset dy="4"/>
<feGaussianBlur stdDeviation="2"/>
<feComposite in2="hardAlpha" operator="out"/>
<feColorMatrix type="matrix" values="0 0 0 0 0 0 0 0 0 0 0 0 0 0 0 0 0 0 0.25 0"/>
<feBlend mode="normal" in2="BackgroundImageFix" result="effect1_dropShadow_57443_8269"/>
<feBlend mode="normal" in="SourceGraphic" in2="effect1_dropShadow_57443_8269" result="shape"/>
</filter>
<filter id="filter4_d_57443_8269" x="248.409" y="187.095" width="89" height="36" filterUnits="userSpaceOnUse" color-interpolation-filters="sRGB">
<feFlood flood-opacity="0" result="BackgroundImageFix"/>
<feColorMatrix in="SourceAlpha" type="matrix" values="0 0 0 0 0 0 0 0 0 0 0 0 0 0 0 0 0 0 127 0" result="hardAlpha"/>
<feOffset dy="4"/>
<feGaussianBlur stdDeviation="2"/>
<feComposite in2="hardAlpha" operator="out"/>
<feColorMatrix type="matrix" values="0 0 0 0 0 0 0 0 0 0 0 0 0 0 0 0 0 0 0.25 0"/>
<feBlend mode="normal" in2="BackgroundImageFix" result="effect1_dropShadow_57443_8269"/>
<feBlend mode="normal" in="SourceGraphic" in2="effect1_dropShadow_57443_8269" result="shape"/>
</filter>
</defs>
</svg>
