<svg width="375" height="240" viewBox="0 0 375 240" fill="none" xmlns="http://www.w3.org/2000/svg">
<g clip-path="url(#clip0_57471_7386)">
<mask id="mask0_57471_7386" style="mask-type:alpha" maskUnits="userSpaceOnUse" x="23" y="25" width="85" height="82">
<path d="M78.2193 28.9337C77.4031 23.2201 73.7513 28.6475 72.2041 30.1251C70.6569 31.6028 69.3193 30.2523 68.4857 28.9337C67.4437 27.2855 66.8754 25.2774 64.602 28.9337C62.3286 32.5901 61.3813 30.9609 59.1079 27.4561C56.8346 23.9513 56.5504 25.2774 55.6031 27.9297C54.6559 30.582 52.6667 35.6024 48.9724 31.624C45.2782 27.6455 44.5204 28.9337 44.2362 31.624C43.952 34.3142 46.699 39.9597 40.0683 37.4969C33.4376 35.034 34.5743 39.2019 36.1846 42.2331C37.7949 45.2643 37.0371 45.4537 32.3009 46.401C27.5646 47.3482 27.9435 47.3482 28.9855 49.4322C30.0275 51.5161 36.0899 55.8735 28.9855 57.4838C21.8811 59.0941 23.2073 60.6097 25.8596 62.1253C28.5119 63.6409 33.5323 64.8723 27.9435 67.8088C22.3548 70.7452 25.0071 71.5977 28.4172 73.0186C31.8272 74.4395 32.3009 74.1553 27.9435 77.4707C23.5862 80.786 28.7013 81.3544 32.3009 82.5858C35.9004 83.8172 34.7637 84.6697 32.3009 88.7429C29.838 92.8161 29.838 94.2369 36.0899 92.6266C42.3417 91.0163 39.5 93.1002 38.7422 97.2681C37.9844 101.436 42.91 96.6998 45.0887 96.4156C47.2674 96.1314 47.5515 96.4156 47.8357 102.223C48.1199 108.031 52.0983 106.551 54.3717 103.435C56.6451 100.319 59.6763 99.3521 61.0972 102.223C62.518 105.095 63.4653 106.93 66.307 103.435C69.1487 99.9401 68.5759 99.8002 71.8802 103.435C75.1846 107.07 75.6252 105.858 76.3962 101.232C77.1673 96.606 80.3615 100.131 83.8862 102.223C87.4109 104.316 87.912 102.334 86.3094 97.8176C84.7068 93.3016 87.0804 95.1741 91.0457 95.5045C95.011 95.835 97.324 96.7161 95.3414 92.9712C93.3588 89.2262 93.3588 88.1247 95.3414 86.3708C96.9275 84.9676 100.784 85.7861 102.514 86.3708C105.777 86.5628 102.514 82.5309 99.2496 79.4589C95.9857 76.387 100.21 75.811 104.241 74.659C108.273 73.5071 109.233 70.2431 104.241 68.1312C99.2496 66.0192 100.21 64.6753 102.514 62.7553C104.817 60.8353 111.153 57.3794 104.241 56.9954C97.3296 56.6114 98.2896 55.2675 100.21 50.4676C102.13 45.6677 100.786 46.2437 95.7937 45.6677C90.8018 45.0917 100.594 38.7558 95.7937 37.9878C90.9938 37.2199 87.4019 46.2786 87.912 34.8004C88.4222 23.3222 79.2396 36.0758 78.2193 28.9337Z" fill="#ECF1FF"/>
</mask>
<g mask="url(#mask0_57471_7386)">
<circle cx="65.758" cy="65.5212" r="43.9206" fill="url(#paint0_radial_57471_7386)"/>
</g>
<path opacity="0.4" d="M373.832 133.63C388.004 138.084 388.51 154.381 386.992 161.973V192.846H96.9854C96.1418 188.291 94.9609 176.751 96.9854 167.034C99.0099 157.316 107.276 155.899 111.157 156.405C110.651 154.718 109.942 149.725 111.157 143.246C112.371 136.768 122.123 136.498 126.846 137.173C125.159 133.293 122.797 124.419 126.846 119.965C130.895 115.511 145.742 115.747 152.658 116.422C150.297 113.891 146.99 105.895 152.658 94.1527C158.327 82.4108 171.554 82.512 177.458 84.0303C176.109 80.8249 174.219 72.6933 177.458 65.8101C180.697 58.9268 190.28 58.5557 194.666 59.2305C194.835 56.8686 197.298 50.5253 205.801 44.0469C214.304 37.5686 224.865 43.0347 229.082 46.5775C231.444 44.5531 239.104 41.2127 250.846 44.0469C262.588 46.8812 268.222 57.3747 269.572 62.2672C270.416 60.5802 274.633 57.6109 284.756 59.2305C294.878 60.8501 298.421 70.0277 298.927 74.4141C301.795 73.0644 309.758 72.2884 318.666 79.9814C327.573 87.6744 328.45 98.3704 327.776 102.757C329.294 101.238 335.165 100.327 346.502 108.83C357.839 117.333 354.263 128.906 351.057 133.63C352.744 131.774 359.661 129.176 373.832 133.63Z" fill="#E2E8F9"/>
<path d="M242.516 88.2145C226.671 94.6105 224.595 112.199 225.539 120.194C222.736 118.122 214.289 118.099 202.924 134.585C191.56 151.072 207.659 179.052 217.13 190.981H470.997C472.112 182.064 473.211 159.663 468.683 141.388C464.156 123.114 449.281 122.607 442.41 124.637C442.949 123.156 444.592 118.951 446.856 113.977C449.685 107.761 441.197 85.5512 423.007 92.6578C422.361 79.2569 409.534 74.553 403.201 73.8762C399.698 67.108 389.7 52.9626 377.735 50.526C365.771 48.0895 349.575 55.0933 342.973 58.8997C340.817 57.1237 335.051 53.5717 329.23 53.5717C323.409 53.5717 316.834 65.0776 314.274 70.8305C312.755 64.7808 305.19 53.9251 287.081 58.8997C268.972 63.8744 265.388 80.5157 265.859 88.2145C264.68 85.5496 258.361 81.8186 242.516 88.2145Z" fill="white"/>
<path d="M25.4464 141.258L9.96151 101.921L5.79251 146.037L-3.88186 89.3192L-0.991309 168.567V202.02H71.0615L182.416 189.731V161.74V146.037L162.766 161.74L154.578 146.037L139.84 161.74L128.377 137.162L118.551 168.567L105.451 146.037V161.74L92.35 141.258L82.5245 161.74L71.0615 124.19L48.1355 168.567L36.6725 141.258H25.4464Z" fill="#62A543"/>
<path d="M378.027 137.161V168.566V202.02H305.975L194.62 189.731V161.739V146.037L214.271 161.739L222.458 146.037L237.197 161.739L248.66 137.161L258.485 168.566L271.586 146.037V161.739L284.686 141.257L294.512 161.739L305.975 150.094L328.901 168.566L340.364 141.257L351.827 161.739L378.027 137.161Z" fill="#62A543"/>
<path opacity="0.7" d="M5.75537 146.821L-0.991211 182.7V209.748H41.4165L106.956 199.812V177.18V164.485L95.3903 177.18L90.5712 164.485L81.8968 177.18L75.1501 157.309L69.3672 182.7L61.6567 164.485V177.18L53.9462 160.621L48.1632 177.18V157.309L27.9231 182.7L21.1764 160.621L14.4297 177.18L5.75537 146.821Z" fill="#8DBC77"/>
<path opacity="0.7" d="M371.281 146.821L378.027 182.7V209.748H335.62L270.08 199.812V177.18V164.485L281.646 177.18L286.465 164.485L295.139 177.18L301.886 157.309L307.669 182.7L315.379 164.485V177.18L323.09 160.621L328.873 177.18L335.62 146.821L349.113 182.7L355.86 160.621L362.606 177.18L371.281 146.821Z" fill="#8DBC77"/>
<path d="M162.605 84.5658L38.2397 208.931H351L208.165 66.0957L176.15 98.1106L162.605 84.5658Z" fill="#FFDADA"/>
<path d="M206.417 77.4102C199.944 85.8608 182.923 102.676 173.43 112.17" stroke="url(#paint1_linear_57471_7386)" stroke-width="4"/>
<path d="M149.706 103.434C143.233 111.884 123.273 130.95 113.78 140.443C101.914 152.31 69.8964 177.114 85.5387 177.114C101.181 177.114 108.871 181.158 93.2289 187.091" stroke="url(#paint2_linear_57471_7386)" stroke-width="4"/>
<path d="M149.706 103.434C143.233 111.884 123.273 130.95 113.78 140.443C101.914 152.31 101.077 165.262 116.719 165.262C132.361 165.262 126.623 184.217 110.981 190.15C98.467 194.897 73.0296 199.727 68.7145 203.143" stroke="url(#paint3_linear_57471_7386)" stroke-width="4"/>
<path d="M125.275 181.925C113.671 193.528 96.0208 197.32 81.1407 203.143" stroke="#7EA1FF" stroke-linecap="round"/>
<path d="M176.15 98.1106L162.605 84.5658L150.962 121.41L150.962 167.925L116.075 196.167L83.6807 208.931H351L208.165 66.0957L219.904 110.611L198.766 105.013L217.396 157.579L193.324 134.7L176.15 98.1106Z" fill="#E3AAAA"/>
<path d="M180.801 205.053C172.112 196.921 154.2 178.185 152.062 168.293C161.076 168.293 179.448 161.469 197.51 153.572C202.723 151.293 200.596 149.719 223.057 168.293C245.519 186.867 228.858 138.859 234.604 135.878C223.91 129.863 201.52 115.493 197.51 106.136C212.749 103.196 210.32 79.2909 207.201 67.7061" stroke="white" stroke-dasharray="2 2"/>
<circle cx="153.61" cy="169.37" r="5.25" fill="white" stroke="#E3AAAA" stroke-width="1.5"/>
<circle cx="237.322" cy="137.293" r="5.25" fill="white" stroke="#E3AAAA" stroke-width="1.5"/>
<circle cx="200.143" cy="106.893" r="5.25" fill="white" stroke="#E3AAAA" stroke-width="1.5"/>
<path d="M95.3852 200.561L91.8424 207.14L92.5533 209.955H127.038L125.314 205.622L122.806 208.074L119.044 203.372L116.222 205.622L115.282 202.118L112.617 205.622L109.639 194.437L105.72 205.622L103.055 203.372L101.458 205.622L99.181 200.561L95.3852 205.622V200.561Z" fill="#80B567"/>
<path d="M-0.991211 177.458V206.373V209.93H103.574L95.4899 206.373L91.0806 199.471L89.2434 206.373L86.6713 194.807L80.7923 203.078V199.471L77.1179 203.078V185.766L71.9737 203.078V194.807L69.0342 203.078L65.7272 181.077L60.9505 203.078L58.7459 172.421L52.4994 199.471V185.766L48.1047 194.807V177.458L37.3037 194.807V163.965L31.4122 177.458L22.5749 194.807V177.458L16.6834 194.807L12.3106 163.965L5.89855 179.339V165.349L-0.991211 177.458Z" fill="#A7DB8F"/>
<path d="M216.635 199.97L213.551 209.909H257.322L288.653 203.833L285.33 198.374L282.245 203.833L278.921 195.526L272.513 202.647L267.054 195.526L263.731 202.647L258.983 193.152L255.186 199.97L253.762 195.526L249.014 205.97L243.555 202.647L240.469 205.97L237.859 198.374L235.485 205.97L233.349 202.647L230.5 205.97L227.415 195.526L224.329 205.97L221.243 202.647L218.632 205.97L216.635 199.97Z" fill="#80B567"/>
<path d="M385.237 177.458V206.373V209.93H250.435L260.856 206.373L266.541 199.471L268.909 206.373L272.225 194.807L279.804 203.078V199.471L284.541 203.078V185.766L291.173 203.078V194.807L294.962 203.078L299.226 181.077L305.384 203.078L308.226 172.421L316.279 199.471V185.766L321.944 194.807V177.458L335.869 194.807V163.965L343.464 177.458L354.856 194.807V177.458L362.452 194.807L373.844 189.024V206.373L385.237 177.458Z" fill="#A7DB8F"/>
<path d="M136.219 208.361H97.8555L99.3066 209.93H258.666L257.75 208.361H212.261H198.997L159.935 204.176L136.219 208.361Z" fill="#A7DB8F"/>
<path d="M183.146 91.1026L208.261 66.1533L231.678 89.4917L215.6 78.2247V94.6755L211.134 78.2247L208.261 85.1477L204.237 78.2247L183.146 91.1026Z" fill="white"/>
<path d="M226.03 128.597L230.024 125.891V137.139H226.03V128.597Z" fill="#FF9318"/>
<path d="M229.67 122.633C229.67 120.622 231.609 119.181 233.534 119.76L236.32 120.598L239.106 119.76C241.031 119.181 242.97 120.622 242.97 122.633V142.817H229.67V122.633Z" fill="#333333"/>
<circle cx="233.415" cy="127.463" r="0.618652" stroke="#333333"/>
<circle cx="233.415" cy="127.463" r="1.93262" stroke="white"/>
<circle cx="239.203" cy="127.463" r="1.93262" stroke="white"/>
<circle cx="239.203" cy="127.463" r="0.618652" stroke="#333333"/>
<path d="M375 209.114L375 215.886C375 215.886 314.846 240 187.5 240C60.1547 240 0 215.886 0 215.886V209.114H375Z" fill="#A7DB8F"/>
<path d="M95.0781 209.218C104.255 209.334 122.608 210.682 122.608 215.142C122.608 219.603 109.366 221.182 102.745 221.415" stroke="#ECF1FF" stroke-width="4"/>
<circle cx="208.143" cy="66.8926" r="5.25" fill="white" stroke="#E3AAAA" stroke-width="1.5"/>
<circle cx="153.019" cy="168.45" r="5.25" fill="#A7DB8F" stroke="white" stroke-width="1.5"/>
<path d="M153.168 169.834L152.103 153.042" stroke="black"/>
<path d="M163.697 154.94L152.5 152.016L153.138 162.071L163.697 154.94Z" fill="#FF9318"/>
<path d="M154.812 153.214L164.373 154.534L154.812 161.702" stroke="black"/>
<circle cx="186.143" cy="206.892" r="5.25" fill="#A7DB8F" stroke="white" stroke-width="1.5"/>
<path d="M186.292 208.276L185.227 191.484" stroke="black"/>
<path d="M196.821 193.382L185.624 190.457L186.261 200.513L196.821 193.382Z" fill="#FF9318"/>
<path d="M187.935 191.656L197.496 192.976L187.935 200.143" stroke="black"/>
<path d="M74.9861 217.715C91.4728 219.813 109.583 220.588 116.578 220.712C135.605 221.588 126.694 229.705 113.954 231.579C101.214 233.452 67.4921 230.829 55.8765 226.708C44.2608 222.586 54.3777 215.092 74.9861 217.715Z" fill="#ECF1FF"/>
<path d="M100.039 220.973C94.9654 220.409 83.1274 219.028 76.363 218.014C67.9075 216.745 52.2648 215.054 53.5331 220.973C54.8014 226.892 70.4435 231.12 85.2412 231.965C97.0793 232.642 108.776 232.247 113.144 231.965" stroke="#62A543"/>
<path d="M72.0906 225.067C72.9674 225.177 74.9181 225.067 75.7068 223.752C76.6927 222.109 75.8708 226.218 78.172 226.218C80.0129 226.218 81.1306 225.451 81.4593 225.067C81.6785 225.451 82.4126 226.218 83.5961 226.218C84.7795 226.218 86.0616 226.218 86.5547 226.218" stroke="#7EA1FF"/>
<path d="M99.9932 226.386C100.87 226.495 102.821 226.386 103.609 225.071C104.595 223.427 103.773 227.536 106.075 227.536C107.915 227.536 109.033 226.769 109.362 226.386C109.581 226.769 110.315 227.536 111.499 227.536C112.682 227.536 113.964 227.536 114.457 227.536" stroke="#7EA1FF"/>
<path d="M137.195 109.918L162.257 84.166L176.096 98.0995L183.084 112.59L156.532 104.09L137.195 109.918Z" fill="white"/>
<path d="M183.084 112.59L156.532 104.09L162.257 84.166L176.199 98.1098L183.084 112.59Z" fill="#EBEBEB"/>
<path d="M103.208 157.21C104.425 165.884 112.157 166.415 118.933 167.77" stroke="#7EA1FF" stroke-linecap="round"/>
<path d="M145.393 109.442C144.686 109.98 135.215 116.665 136.057 117.718C136.619 118.42 137.434 120.497 136.34 121.112C135.185 121.763 127.817 122.536 128.749 124.295C129.492 125.699 128.773 126.063 127.57 127.266" stroke="#7EA1FF" stroke-linecap="round"/>
<path d="M102.436 210.727C108.03 210.942 114.12 210.839 119.587 212.101C121.076 212.445 121.177 212.986 120.452 214.154C119.06 216.398 117.351 216.93 114.634 217.7C109.791 219.072 104.769 219.823 99.9932 221.415" stroke="#7EA1FF" stroke-linecap="round"/>
<path d="M198.902 85.4927C197.558 86.2396 199.168 87.9816 198.647 88.4228C197.082 89.747 194.43 90.2304 192.616 91.1995C190.053 92.5687 187.796 94.0187 186.33 96.5316" stroke="#7EA1FF" stroke-linecap="round"/>
<path d="M111.555 124.348L109.896 131.396L106.705 121.059L102.124 145.208L105.302 142.116L111.555 140.457L113.852 137.522L130.117 117.902L129.784 107.825L127.759 114.443L126.187 101.552L120.842 124.348L118.725 111.085L114.942 128.948L111.555 124.348Z" fill="#62A543"/>
<path d="M122.933 151.163H117.252L111.693 158.45L117.252 162.268L126.516 161.11L138.482 162.268L140.847 151.163L136.538 152.425L133.817 145.041L131.323 151.163L129.797 137.558L122.933 151.163Z" fill="#75AF5A"/>
<path d="M186.528 111.601L183.674 108.524L182.578 111.601L183.674 122.862L185.882 125.511V134.122H189.636L205.515 146.931L202.848 131.862L199.114 134.122V122.862L196.464 124.407L192.711 111.601L190.723 117.784L188.074 107.406L186.528 111.601Z" fill="#62A543"/>
<path d="M242.921 90.5851L237.69 81.4321V90.5851L233.797 85.8353L235.438 94.4327L256.093 114.633L261.063 119.025L258.611 99.0842L255.179 105.295L253.596 95.4884L250.929 87.4796L247.606 88.9949L244.882 82.4128L242.921 90.5851Z" fill="#62A543"/>
<path d="M246.282 100.731L243.697 110.425L248.006 113.656V118.611H256.407L261.361 122.704L262.869 120.55L261.361 108.056L258.561 111.933L256.407 108.056L253.822 111.933L252.314 105.255L249.514 108.056L246.282 100.731Z" fill="#80B567"/>
<path d="M117.386 158.634C117.386 156.425 119.177 154.634 121.386 154.634H123.871C126.08 154.634 127.871 156.425 127.871 158.634V163.464L117.386 162.838V158.634Z" fill="#D29F65"/>
<path d="M120.903 159.725C121.299 159.742 122.348 159.528 123.377 158.538M125.198 158.372C125.514 159.069 126.17 159.541 127.385 159.725" stroke="#806241"/>
</g>
<defs>
<radialGradient id="paint0_radial_57471_7386" cx="0" cy="0" r="1" gradientUnits="userSpaceOnUse" gradientTransform="translate(65.758 65.5212) rotate(90) scale(43.9206)">
<stop offset="0.335" stop-color="#FFC400"/>
<stop offset="0.55" stop-color="#FFD500"/>
<stop offset="1" stop-color="#FFD900" stop-opacity="0"/>
</radialGradient>
<linearGradient id="paint1_linear_57471_7386" x1="202.786" y1="77.4102" x2="165.921" y2="177.12" gradientUnits="userSpaceOnUse">
<stop stop-color="#D3DBF2"/>
<stop offset="1" stop-color="#ECF1FF"/>
</linearGradient>
<linearGradient id="paint2_linear_57471_7386" x1="126.276" y1="123.906" x2="86.9936" y2="183.973" gradientUnits="userSpaceOnUse">
<stop offset="0.416231" stop-color="#D3DBF2"/>
<stop offset="1" stop-color="#ECF1FF" stop-opacity="0"/>
</linearGradient>
<linearGradient id="paint3_linear_57471_7386" x1="146.076" y1="103.434" x2="109.21" y2="203.143" gradientUnits="userSpaceOnUse">
<stop stop-color="#D3DBF2"/>
<stop offset="1" stop-color="#ECF1FF"/>
</linearGradient>
<clipPath id="clip0_57471_7386">
<rect width="375" height="240" fill="white"/>
</clipPath>
</defs>
</svg>
