<svg width="375" height="240" viewBox="0 0 375 240" fill="none" xmlns="http://www.w3.org/2000/svg">
<g clip-path="url(#clip0_57471_7188)">
<mask id="mask0_57471_7188" style="mask-type:alpha" maskUnits="userSpaceOnUse" x="166" y="0" width="76" height="73">
<path d="M215.453 3.53819C214.727 -1.54725 211.476 3.28338 210.099 4.59859C208.722 5.91381 207.532 4.71181 206.79 3.53819C205.862 2.07117 205.356 0.283835 203.333 3.53819C201.31 6.79255 200.466 5.34246 198.443 2.22298C196.42 -0.896505 196.167 0.283839 195.323 2.64453C194.48 5.00522 192.71 9.47367 189.422 5.93263C186.134 2.3916 185.459 3.53819 185.206 5.93263C184.953 8.32707 187.398 13.3519 181.497 11.1599C175.595 8.9678 176.607 12.6775 178.04 15.3754C179.473 18.0733 178.799 18.2419 174.583 19.085C170.368 19.9282 170.705 19.9281 171.632 21.783C172.56 23.6378 177.956 27.5161 171.632 28.9494C165.309 30.3826 166.489 31.7316 168.85 33.0806C171.211 34.4295 175.679 35.5256 170.705 38.1392C165.731 40.7528 168.091 41.5116 171.126 42.7763C174.162 44.0409 174.583 43.788 170.705 46.7388C166.827 49.6897 171.379 50.1956 174.583 51.2916C177.787 52.3876 176.775 53.1464 174.583 56.7718C172.391 60.3971 172.391 61.6618 177.956 60.2285C183.52 58.7952 180.991 60.65 180.316 64.3597C179.642 68.0694 184.026 63.8538 185.965 63.6009C187.904 63.348 188.157 63.6009 188.41 68.7702C188.663 73.9395 192.204 72.6221 194.227 69.8486C196.251 67.0751 198.949 66.2145 200.213 68.7702C201.478 71.3259 202.321 72.9594 204.851 69.8486C207.38 66.7379 206.87 66.6134 209.811 69.8486C212.752 73.0838 213.144 72.0054 213.831 67.8879C214.517 63.7704 217.36 66.9075 220.497 68.7702C223.634 70.6329 224.08 68.8683 222.654 64.8488C221.227 60.8293 223.34 62.4959 226.869 62.79C230.399 63.0841 232.457 63.8684 230.693 60.5352C228.928 57.2019 228.928 56.2216 230.693 54.6604C232.105 53.4116 235.537 54.1401 237.076 54.6604C239.981 54.8313 237.076 51.2427 234.171 48.5085C231.266 45.7743 235.026 45.2616 238.614 44.2363C242.203 43.211 243.057 40.3059 238.614 38.4262C234.171 36.5464 235.026 35.3502 237.076 33.6413C239.127 31.9324 244.766 28.8565 238.614 28.5147C232.462 28.1729 233.317 26.9767 235.026 22.7045C236.735 18.4323 235.538 18.945 231.095 18.4323C226.652 17.9197 235.368 12.2804 231.095 11.5969C226.823 10.9133 223.626 18.9761 224.08 8.75985C224.534 -1.45644 216.361 9.89499 215.453 3.53819Z" fill="#ECF1FF"/>
</mask>
<g mask="url(#mask0_57471_7188)">
<circle cx="204.362" cy="36.1031" r="39.0918" fill="url(#paint0_radial_57471_7188)"/>
</g>
<path d="M25.4464 141.258L9.96151 101.92L5.79251 146.037L-3.88186 89.3187L-0.991309 168.566V202.02H71.0615L182.416 189.731V161.739V146.037L162.766 161.739L154.578 146.037L139.84 161.739L128.377 137.161L118.551 168.566L105.451 146.037V161.739L92.35 141.258L82.5245 161.739L71.0615 124.19L48.1355 168.566L36.6725 141.258H25.4464Z" fill="#62A543"/>
<path d="M378.027 137.161V168.567V202.02H305.975L194.62 189.731V161.739V146.037L214.271 161.739L222.458 146.037L237.197 161.739L248.66 137.161L258.485 168.567L271.586 146.037V161.739L284.128 133.765L294.908 157.988L305.975 150.094L328.901 168.567L340.364 141.258L351.827 161.739L378.027 137.161Z" fill="#62A543"/>
<path opacity="0.7" d="M5.75537 146.821L-0.991211 182.7V209.748H41.4165L106.956 199.812V177.18V164.485L95.3903 177.18L90.5712 164.485L81.8968 177.18L75.1501 157.309L69.3672 182.7L61.6567 164.485V177.18L53.9462 160.621L48.1632 177.18V157.309L27.9231 182.7L21.1764 160.621L14.4297 177.18L5.75537 146.821Z" fill="#8DBC77"/>
<path opacity="0.7" d="M371.281 146.821L378.027 182.7V209.748H335.62L270.08 199.812V177.18V164.485L281.646 177.18L286.465 164.485L295.139 177.18L301.886 157.309L307.669 182.7L315.379 164.485V177.18L323.09 160.621L328.873 177.18L335.62 146.821L349.113 182.7L355.86 160.621L362.606 177.18L371.281 146.821Z" fill="#8DBC77"/>
<path d="M162.605 84.5653L38.2397 208.931H351L208.165 66.0952L176.15 98.1101L162.605 84.5653Z" fill="#FFDADA"/>
<path d="M156.706 95.4331C150.233 103.884 130.273 122.95 120.78 132.443C108.914 144.309 69.8963 175.114 85.5386 175.114C101.181 175.114 111.671 176.126 58.5513 193.748" stroke="url(#paint1_linear_57471_7188)" stroke-width="4"/>
<path d="M206.417 74.4102C199.944 82.8608 182.923 99.6765 173.43 109.17" stroke="url(#paint2_linear_57471_7188)" stroke-width="4"/>
<path d="M198.902 82.4922C197.558 83.2391 199.168 84.9811 198.647 85.4223C197.082 86.7465 194.43 87.2299 192.616 88.199C190.053 89.5682 187.796 91.0182 186.33 93.5311" stroke="#7EA1FF" stroke-linecap="round"/>
<path d="M176.15 98.1101L162.605 84.5653L150.962 121.409L150.962 167.925L116.075 196.166L83.6807 208.931H351L208.165 66.0952L219.904 110.611L198.766 105.012L217.396 157.579L193.324 134.699L176.15 98.1101Z" fill="#E3AAAA"/>
<path d="M132.328 186.935L126.316 183.655L121.105 203.177L125.105 212.236L160.305 209.74L215.657 213.116L218.636 189.276L215.253 185.165L204.701 190.061L198.182 183.655L192.532 188.323L187.027 183.655L182.365 186.935H176.162L173.702 183.655L171.647 186.046L168.484 186.935L164.306 183.655L158.58 185.165L154.287 186.046L150.358 181.196L143.567 186.935L137.794 181.196L132.328 186.935Z" fill="#80B567"/>
<path d="M222.547 193.969L219.951 187.969L209.912 199.081L215.941 213.908H272.836L313.56 207.833L309.241 186.374L305.23 191.833L300.911 183.525L292.581 190.646L285.485 183.525L281.166 190.646L274.995 181.152L270.059 187.969L268.208 183.525L262.038 193.969L254.942 190.646L250.931 193.969L247.537 186.374L244.452 193.969L241.675 190.646L237.973 193.969L233.962 183.525L229.951 193.969L225.941 190.646L222.547 193.969Z" fill="#80B567"/>
<path d="M180.801 205.053C172.112 196.921 154.2 178.184 152.062 168.293C161.076 168.293 179.448 161.468 197.51 153.572C202.723 151.293 200.596 149.719 223.057 168.293C245.519 186.867 228.858 138.858 234.604 135.878C223.91 129.862 201.52 115.493 197.51 106.136C212.749 103.195 210.32 79.2904 207.201 67.7056" stroke="white" stroke-dasharray="2 2"/>
<circle cx="153.61" cy="169.37" r="5.25" fill="white" stroke="#E3AAAA" stroke-width="1.5"/>
<circle cx="237.322" cy="137.292" r="5.25" fill="white" stroke="#E3AAAA" stroke-width="1.5"/>
<circle cx="200.143" cy="106.892" r="5.25" fill="white" stroke="#E3AAAA" stroke-width="1.5"/>
<path d="M385.237 177.458V206.372V209.93H250.435L260.856 206.372L266.541 199.47L268.909 206.372L272.225 194.806L279.804 203.077V199.47L284.541 203.077V185.765L291.173 203.077V194.806L294.962 203.077L299.226 181.076L305.384 203.077L308.226 172.42L316.279 199.47V185.765L321.944 194.806V177.458L335.869 194.806V163.964L343.464 177.458L354.856 194.806V177.458L362.452 194.806L373.844 189.024V206.372L385.237 177.458Z" fill="#A7DB8F"/>
<path d="M136.219 208.361H97.8555L99.3066 209.93H258.666L257.75 208.361H212.261H198.997L159.935 204.176L136.219 208.361Z" fill="#A7DB8F"/>
<path d="M197.698 76.5621L208.234 66.0952L217.644 75.4732L210.376 74.5659L197.698 76.5621Z" fill="white"/>
<path d="M375 209.114L375 215.886C375 215.886 314.846 240 187.5 240C60.1547 240 0 215.886 0 215.886V209.114H375Z" fill="#A7DB8F"/>
<circle cx="208.143" cy="66.8921" r="5.25" fill="white" stroke="#E3AAAA" stroke-width="1.5"/>
<path d="M198.03 58.5972L202.024 55.8911V67.1386H198.03V58.5972Z" fill="#FF9318"/>
<path d="M201.67 52.6329C201.67 50.6223 203.609 49.1809 205.534 49.76L208.32 50.598L211.106 49.76C213.031 49.1809 214.97 50.6223 214.97 52.6328V72.8168H201.67V52.6329Z" fill="#333333"/>
<circle cx="205.426" cy="57.4629" r="0.618652" stroke="#333333"/>
<circle cx="205.426" cy="57.4629" r="1.93262" stroke="white"/>
<circle cx="211.214" cy="57.4629" r="1.93262" stroke="white"/>
<circle cx="211.214" cy="57.4629" r="0.618652" stroke="#333333"/>
<circle cx="205.415" cy="57.4629" r="0.618652" stroke="#333333"/>
<circle cx="211.203" cy="57.4629" r="0.618652" stroke="#333333"/>
<path d="M224.054 57.0589L228.549 56.0439M224.054 65.0347L228.549 66.6299M221.444 71.4154L225.649 75.7658M193.891 67.5L189.106 69.8202M192.876 61.2644H188.09M193.891 55.0288L189.106 52.9986M199.692 48.6482L195.341 44.5878M208.392 44.5878V41.3975M218.398 47.9231L221.444 43.7177" stroke="#FF9318"/>
<circle cx="200.143" cy="106.892" r="5.25" fill="#A7DB8F" stroke="white" stroke-width="1.5"/>
<path d="M200.292 108.276L199.227 91.4835" stroke="black"/>
<path d="M210.821 93.3816L199.624 90.4574L200.261 100.513L210.821 93.3816Z" fill="#FF9318"/>
<path d="M201.935 91.6562L211.496 92.9763L201.935 100.143" stroke="black"/>
<circle cx="237.143" cy="137.892" r="5.25" fill="#A7DB8F" stroke="white" stroke-width="1.5"/>
<path d="M237.292 139.276L236.227 122.484" stroke="black"/>
<path d="M247.821 124.382L236.624 121.457L237.261 131.513L247.821 124.382Z" fill="#FF9318"/>
<path d="M238.935 122.656L248.496 123.976L238.935 131.143" stroke="black"/>
<path d="M151.436 98.4927C144.963 106.943 124.273 127.95 114.78 137.443C102.914 149.309 102.077 162.262 117.719 162.262C133.361 162.262 127.623 181.217 111.981 187.15C99.467 191.897 74.0296 196.727 69.7145 200.143" stroke="url(#paint3_linear_57471_7188)" stroke-width="4"/>
<path d="M126.275 178.925C114.671 190.528 97.0208 194.32 82.1407 200.143" stroke="#7EA1FF" stroke-linecap="round"/>
<path d="M104.208 153.21C105.425 161.884 113.157 162.415 119.933 163.77" stroke="#7EA1FF" stroke-linecap="round"/>
<circle cx="152.143" cy="168.892" r="5.25" fill="#A7DB8F" stroke="white" stroke-width="1.5"/>
<path d="M152.292 170.276L151.227 153.484" stroke="black"/>
<path d="M162.821 155.382L151.624 152.457L152.261 162.513L162.821 155.382Z" fill="#FF9318"/>
<path d="M153.935 153.656L163.496 154.976L153.935 162.143" stroke="black"/>
<circle cx="186.143" cy="207.892" r="5.25" fill="#A7DB8F" stroke="white" stroke-width="1.5"/>
<path d="M186.292 209.276L185.227 192.484" stroke="black"/>
<path d="M196.821 194.382L185.624 191.457L186.261 201.513L196.821 194.382Z" fill="#FF9318"/>
<path d="M187.935 192.656L197.496 193.976L187.935 201.143" stroke="black"/>
<path d="M74.9861 215.714C91.4728 217.813 89.2969 219.2 173.545 219.135C257.793 219.069 220.967 231.969 208.228 233.842C195.488 235.715 67.4921 228.829 55.8765 224.707C44.2608 220.586 54.3777 213.092 74.9861 215.714Z" fill="#ECF1FF"/>
<path d="M100.039 218.973C94.9654 218.409 83.1274 217.028 76.363 216.013C67.9075 214.745 52.2648 213.054 53.5331 218.973C54.8014 224.891 70.4435 229.119 85.2412 229.965C97.0793 230.641 140.399 232.525 162.789 233.403C185.179 234.281 205.593 234.72 215.252 232.086C227.325 228.793 260.032 218.973 143.692 218.973" stroke="#62A543"/>
<path d="M72.0906 223.067C72.9674 223.176 74.9181 223.067 75.7068 221.752C76.6927 220.108 75.8708 224.217 78.172 224.217C80.0129 224.217 81.1306 223.45 81.4593 223.067C81.6785 223.45 82.4126 224.217 83.5961 224.217C84.7795 224.217 86.0616 224.217 86.5547 224.217" stroke="#7EA1FF"/>
<path d="M138.172 225.695C139.048 225.805 140.999 225.695 141.788 224.38C142.774 222.737 141.952 226.846 144.253 226.846C146.094 226.846 147.212 226.079 147.54 225.695C147.76 226.079 148.494 226.846 149.677 226.846C150.861 226.846 152.143 226.846 152.636 226.846" stroke="#7EA1FF"/>
<path d="M187.935 224.705C187.059 224.815 185.108 224.705 184.319 223.39C183.333 221.747 184.155 225.856 181.854 225.856C180.013 225.856 178.895 225.089 178.567 224.705C178.347 225.089 177.613 225.856 176.43 225.856C175.246 225.856 173.964 225.856 173.471 225.856" stroke="#7EA1FF"/>
<path d="M199.096 228.533C199.746 228.445 201.311 228.037 202.374 227.116C204.589 228.533 204.943 228.533 206.981 228.533C208.611 228.533 209.845 227.588 210.259 227.116C210.613 227.588 211.729 228.533 213.36 228.533" stroke="#7EA1FF"/>
<path d="M99.9932 224.385C100.87 224.495 102.821 224.385 103.609 223.07C104.595 221.427 103.773 225.536 106.075 225.536C107.915 225.536 109.033 224.769 109.362 224.385C109.581 224.769 110.315 225.536 111.499 225.536C112.682 225.536 113.964 225.536 114.457 225.536" stroke="#7EA1FF"/>
<path d="M162.257 84.166L176.097 98.0995L159.579 95.9829L148.022 98.7925L162.257 84.166Z" fill="white"/>
<path d="M162.257 84.166L176.199 98.1098L158.94 96.1345L162.257 84.166Z" fill="#FAFAFA"/>
<path d="M113.484 115.565L109.689 123.557L106.338 120.269L101.757 144.418L104.934 141.325L111.187 139.666L113.484 136.731L129.75 117.111L138.865 107.308L132.809 105.473L125.819 100.761L122.35 110.295H118.357L116.111 117.111L113.484 115.565Z" fill="#62A543"/>
<path d="M122.565 150.372H116.885L111.326 157.659L116.885 161.477L126.148 160.319L138.114 161.477L140.479 150.372L136.171 151.634L133.45 144.25L130.955 150.372L129.429 136.767L122.565 150.372Z" fill="#75AF5A"/>
<path d="M186.161 110.81L183.307 107.733L182.21 110.81L183.307 122.071L185.515 124.72V133.331H189.268L205.147 146.14L202.48 131.071L198.746 133.331V122.071L196.097 123.616L192.343 110.81L190.356 116.993L187.706 106.615L186.161 110.81Z" fill="#62A543"/>
<path d="M242.553 89.7945L237.323 80.6416V89.7945L233.429 85.0447L235.071 93.6422L255.725 113.843L260.695 118.234L258.244 98.2937L254.811 104.505L253.228 94.6979L250.562 86.6891L247.238 88.2044L244.514 81.6223L242.553 89.7945Z" fill="#62A543"/>
<path d="M262.219 106.752L260.857 116.963H257.453L293.304 150.772L289.901 140.561H288.086L284.909 133.981L283.094 137.384L281.052 121.501L278.556 130.123L276.06 121.501L271.522 123.089L270.16 114.694L266.984 119.459L262.219 106.752Z" fill="#62A543"/>
<path d="M245.915 99.9409L243.33 109.635L247.638 112.866V117.82H256.039L260.994 121.913L262.502 119.759L260.994 107.265L258.193 111.143L256.039 107.265L253.454 111.143L251.946 104.465L249.146 107.265L245.915 99.9409Z" fill="#80B567"/>
<path d="M268.829 133.69L260.783 122.13L261.557 118.616L264.334 122.13L265.524 120.864L266.449 123.641L267.904 122.13L271.738 128.401L272.664 126.417L275.837 132.5H278.217L279.804 138.847L274.912 134.88L268.829 133.69Z" fill="#80B567"/>
<path d="M87.4568 164.122L85.7916 169.783L93.7844 162.124L101.777 158.294L103.442 153.132L105.274 147.47L103.442 149.136L101.777 137.313L97.666 141.568V147.47H93.7844L91.8028 152.29H88.7874L87.4568 164.122Z" fill="#A7DB8F"/>
<path d="M133.793 117.265L128.26 129.839L133.793 125.248L143.691 117.265L142.605 119.411L153.056 112.99L158.892 114.75L156.992 105.974L155.092 108.825V102.717L152.377 104.942L150.613 100.41L147.084 105.974L145.612 104.942L140.08 114.75L138.571 112.99L136.056 120.534L133.793 117.265Z" fill="#75AF5A"/>
<path d="M179.342 92.0203L176.951 99.7644L178.545 103.295L184.011 97.6006L192.78 88.376H189.478L186.403 89.4009L184.695 88.376L181.734 92.8174L179.342 92.0203Z" fill="#62A543"/>
<path d="M151.393 98.4419C150.686 98.9794 141.215 105.664 142.057 106.717C142.619 107.419 143.434 109.497 142.34 110.112C141.185 110.762 133.817 111.535 134.749 113.295C135.492 114.698 134.773 115.062 133.57 116.265" stroke="#7EA1FF" stroke-linecap="round"/>
<path d="M79.5411 193.96L74.113 199.14L56.8357 207.646L78.0647 209.231L125.396 208.4V187.744L121.257 186.729L119.518 189.138L115.172 193.96L111.985 191.076L105.943 197.945L101.38 189.138L95.3758 197.945L91.293 196.173L88.8463 197.945L85.3568 193.96L79.5411 197.945V193.96Z" fill="#80B567"/>
<path d="M120.557 204.222L119.06 207.964L119.808 208.927H136.276L152.744 206.895L142.478 203.366L136.276 206.895L134.458 203.366L132.533 207.964L127.935 200.693L123.016 206.895L120.557 204.222Z" fill="#A7DB8F"/>
<path d="M92.7013 207.366C108.025 207.366 124.608 208.682 124.608 213.142M124.608 213.142C124.608 217.603 111.366 219.183 104.745 219.415L134.46 220.993C127.566 222.256 125.02 216.285 124.608 213.142Z" stroke="#ECF1FF" stroke-width="4"/>
<path d="M133.267 211.954C133.267 209.744 135.058 207.954 137.267 207.954H142.057C144.266 207.954 146.057 209.744 146.057 211.954V219.108H133.267V211.954Z" fill="#A07121"/>
<path d="M145.572 211.824C145.572 212.995 144.821 213.757 144.102 213.757C143.384 213.757 142.633 212.995 142.633 211.824C142.633 211.272 142.807 211.006 143.008 210.856C143.238 210.685 143.602 210.593 144.102 210.593C144.602 210.593 144.966 210.685 145.197 210.856C145.398 211.006 145.572 211.272 145.572 211.824Z" stroke="white"/>
<path d="M141.411 211.824C141.411 212.96 140.625 213.757 139.799 213.757C138.973 213.757 138.187 212.96 138.187 211.824C138.187 211.286 138.367 211.021 138.591 210.866C138.849 210.686 139.255 210.593 139.799 210.593C140.343 210.593 140.749 210.686 141.007 210.866C141.231 211.021 141.411 211.286 141.411 211.824Z" stroke="white"/>
<path d="M121.777 216.958H124.566L127.935 219.108H114.457L121.777 216.958Z" fill="#ECF1FF"/>
<path d="M104.436 208.727C110.03 208.942 116.12 208.839 121.587 210.101C123.076 210.445 123.177 210.986 122.452 212.154C121.06 214.398 119.351 214.93 116.634 215.7C111.791 217.072 106.769 217.823 101.993 219.415" stroke="#7EA1FF" stroke-linecap="round"/>
<path d="M-0.991211 177.458V206.372V209.93H103.574L95.4899 206.372L91.0806 199.471L89.2434 206.372L86.6713 194.807L80.7923 203.077V199.471L77.1179 203.077V185.765L71.9737 203.077V194.807L69.0342 203.077L65.7272 181.076L60.9505 203.077L58.7459 172.42L52.4994 199.471V185.765L48.1047 194.807V177.458L37.3037 194.807V163.964L31.4122 177.458L22.5749 194.807V177.458L16.6834 194.807L12.3106 163.964L5.89855 179.338V165.348L-0.991211 177.458Z" fill="#A7DB8F"/>
<path d="M245.685 164.001L247.549 169.781L289.682 170.713L291.173 164.001L288.004 166.798L285.953 159.714L282.598 165.306L277.378 162.883L272.903 165.306L268.988 159.714L265.074 164.001L257.244 156.172L254.82 162.883L250.719 153.748L249.6 165.306L245.685 164.001Z" fill="#A7DB8F"/>
<path d="M279.428 162.015C279.428 159.806 277.637 158.015 275.428 158.015H270.639C268.43 158.015 266.639 159.806 266.639 162.015V169.17H279.428V162.015Z" fill="#A07121"/>
<path d="M267.124 161.886C267.124 163.057 267.875 163.818 268.593 163.818C269.311 163.818 270.063 163.057 270.063 161.886C270.063 160.755 269.346 160.09 268.593 160.09C267.841 160.09 267.124 160.755 267.124 161.886Z" stroke="white"/>
<path d="M271.285 161.886C271.285 163.022 272.071 163.819 272.897 163.819C273.723 163.819 274.508 163.022 274.508 161.886C274.508 160.79 273.759 160.09 272.897 160.09C272.035 160.09 271.285 160.79 271.285 161.886Z" stroke="white"/>
<path d="M260.955 167.786C267.357 167.443 280.008 170.017 284.728 170.015C302.384 171.223 274.389 173.965 257.348 173.287C240.307 172.609 252.951 168.215 260.955 167.786Z" fill="#ECF1FF"/>
<path d="M257.065 170.409C257.538 170.311 258.631 169.988 259.219 169.479C260.1 170.164 260.883 170.899 261.569 170.409C262.117 170.018 262.776 169.463 263.037 169.234C263.364 169.626 264.173 170.409 264.799 170.409" stroke="#7EA1FF"/>
<path d="M293.525 169.12C314.556 166.675 300.487 158.085 294.655 149.871" stroke="#ECF1FF" stroke-width="3"/>
<path d="M251.528 169.625C248.805 170.561 246.201 172.524 257.571 172.882C271.783 173.33 287.45 170.577 287.45 170.577C282.168 168.751 274.879 168.219 271.895 168.182" stroke="#7EA1FF"/>
<path d="M200.687 203.281L195.857 208.111L199.097 208.831L252.514 209.821L259.81 208.831L254.246 204.751L251.649 206.729L249.671 202.649L247.445 206.729L242.128 207.348L231.123 203.281L222.22 208.111L218.882 203.281L215.419 206.729L213.194 198.568L208.99 206.729L206.022 203.281L203.054 205.74L200.687 203.281Z" fill="#A7DB8F"/>
<path d="M165.177 109.371C164.863 110.156 164.811 112.061 166.067 111.517C167.638 110.836 169.522 107.434 165.177 109.371Z" fill="#BA9191"/>
<path d="M162.686 106.044C162.924 104.031 164.631 102.514 166.658 102.514H169.589C171.798 102.514 173.589 104.305 173.589 106.514V109.268C173.589 109.982 172.857 110.477 172.18 110.252C171.096 109.892 169.589 109.476 168.405 109.476C167.219 109.476 165.276 110.573 163.817 111.522C163.076 112.004 162.052 111.406 162.156 110.527L162.686 106.044Z" fill="white"/>
<circle cx="169.677" cy="104.946" r="1.93262" stroke="white"/>
<circle cx="169.666" cy="104.946" r="0.618652" stroke="#333333"/>
<circle cx="172.311" cy="104.946" r="0.618652" stroke="#333333"/>
<path d="M120.386 156.634C120.386 154.425 122.176 152.634 124.386 152.634H126.871C129.08 152.634 130.871 154.425 130.871 156.634V161.464L120.386 160.838V156.634Z" fill="#D29F65"/>
<path d="M123.903 157.725C124.298 157.742 125.347 157.528 126.377 156.538M128.198 156.372C128.514 157.069 129.169 157.541 130.385 157.725" stroke="#806241"/>
</g>
<defs>
<radialGradient id="paint0_radial_57471_7188" cx="0" cy="0" r="1" gradientUnits="userSpaceOnUse" gradientTransform="translate(204.362 36.1031) rotate(90) scale(39.0918)">
<stop offset="0.335" stop-color="#FFC400"/>
<stop offset="0.55" stop-color="#FFD500"/>
<stop offset="1" stop-color="#FFD900" stop-opacity="0"/>
</radialGradient>
<linearGradient id="paint1_linear_57471_7188" x1="133.276" y1="115.906" x2="93.9935" y2="175.973" gradientUnits="userSpaceOnUse">
<stop offset="0.416231" stop-color="#D3DBF2"/>
<stop offset="1" stop-color="#ECF1FF"/>
</linearGradient>
<linearGradient id="paint2_linear_57471_7188" x1="202.786" y1="74.4102" x2="165.921" y2="174.12" gradientUnits="userSpaceOnUse">
<stop stop-color="#D3DBF2"/>
<stop offset="1" stop-color="#ECF1FF"/>
</linearGradient>
<linearGradient id="paint3_linear_57471_7188" x1="147.076" y1="100.433" x2="110.21" y2="200.143" gradientUnits="userSpaceOnUse">
<stop stop-color="#D3DBF2"/>
<stop offset="1" stop-color="#ECF1FF"/>
</linearGradient>
<clipPath id="clip0_57471_7188">
<rect width="375" height="240" fill="white"/>
</clipPath>
</defs>
</svg>
