<svg width="375" height="240" viewBox="0 0 375 240" fill="none" xmlns="http://www.w3.org/2000/svg">
<g clip-path="url(#clip0_57471_7296)">
<path opacity="0.4" d="M453.832 169.63C468.004 174.084 468.51 190.381 466.992 197.973V207.785L176.985 228.846C176.142 224.291 174.961 212.751 176.985 203.034C179.01 193.316 187.276 191.899 191.157 192.405C190.651 190.718 189.942 185.725 191.157 179.246C192.371 172.768 202.123 172.498 206.846 173.173C205.159 169.293 202.797 160.419 206.846 155.965C210.895 151.511 225.742 151.747 232.658 152.422C230.297 149.891 226.99 141.895 232.658 130.153C238.327 118.411 251.554 118.512 257.458 120.03C256.109 116.825 254.219 108.693 257.458 101.81C260.697 94.9268 270.28 94.5557 274.666 95.2305C274.835 92.8686 277.298 86.5253 285.801 80.0469C294.304 73.5686 304.865 79.0347 309.082 82.5775C311.444 80.5531 319.104 77.2127 330.846 80.0469C342.588 82.8812 348.222 93.3747 349.572 98.2672C350.416 96.5802 354.633 93.6109 364.756 95.2305C374.878 96.8501 378.421 106.028 378.927 110.414C381.795 109.064 389.758 108.288 398.666 115.981C407.573 123.674 408.45 134.37 407.776 138.757C409.294 137.238 415.165 136.327 426.502 144.83C437.839 153.333 434.263 164.906 431.057 169.63C432.744 167.774 439.661 165.176 453.832 169.63Z" fill="#E2E8F9"/>
<path d="M282.516 116.215C266.671 122.611 264.595 140.199 265.539 148.194C262.736 146.122 254.289 146.099 242.924 162.585C231.56 179.072 247.659 207.052 257.13 218.981L382.973 214.567L510.997 218.981C512.112 210.064 513.211 187.663 508.683 169.388C504.156 151.114 489.281 150.607 482.41 152.637C482.949 151.156 484.592 146.951 486.856 141.977C489.685 135.761 481.197 113.551 463.007 120.658C462.361 107.257 449.534 102.553 443.201 101.876C439.698 95.108 429.7 80.9626 417.735 78.526C405.771 76.0895 389.575 83.0933 382.973 86.8997C380.817 85.1237 375.051 81.5717 369.23 81.5717C363.409 81.5717 356.834 93.0776 354.274 98.8305C352.755 92.7808 345.19 81.9251 327.081 86.8997C308.972 91.8744 305.388 108.516 305.859 116.215C304.68 113.55 298.361 109.819 282.516 116.215Z" fill="white"/>
<path d="M25.4464 141.258L9.96151 101.92L5.79251 146.037L-3.88186 89.3187L-0.991309 168.566V202.02H71.0615L182.416 189.731V161.739V146.037L162.766 161.739L154.578 146.037L139.84 161.739L128.377 137.161L118.551 168.566L105.451 146.037V161.739L92.35 141.258L82.5245 161.739L71.0615 124.19L48.1355 168.566L36.6725 141.258H25.4464Z" fill="#62A543"/>
<path d="M378.027 137.161V168.566V202.02H305.975L194.62 189.731V161.739V146.037L214.271 161.739L222.458 146.037L237.197 161.739L248.66 137.161L258.485 168.566L271.586 146.037V161.739L284.686 141.257L294.512 161.739L305.975 150.094L328.901 168.566L340.364 141.257L351.827 161.739L378.027 137.161Z" fill="#62A543"/>
<path opacity="0.7" d="M5.75537 146.821L-0.991211 182.7V209.748H41.4165L106.956 199.812V177.18V164.485L95.3903 177.18L90.5712 164.485L81.8968 177.18L75.1501 157.309L69.3672 182.7L61.6567 164.485V177.18L53.9462 160.621L48.1632 177.18V157.309L27.9231 182.7L21.1764 160.621L14.4297 177.18L5.75537 146.821Z" fill="#8DBC77"/>
<path opacity="0.7" d="M371.281 146.821L378.027 182.7V209.748H335.62L270.08 199.812V177.18V164.485L281.646 177.18L286.465 164.485L295.139 177.18L301.886 157.309L307.669 182.7L315.379 164.485V177.18L323.09 160.621L328.873 177.18L335.62 146.821L349.113 182.7L355.86 160.621L362.606 177.18L371.281 146.821Z" fill="#8DBC77"/>
<path d="M162.605 84.5653L38.2397 208.931H351L208.165 66.0952L176.15 98.1101L162.605 84.5653Z" fill="#FFDADA"/>
<path d="M149.706 103.433C143.233 111.884 123.273 130.95 113.78 140.443C101.914 152.309 69.8963 177.114 85.5386 177.114C101.181 177.114 104.671 184.126 51.5513 201.748" stroke="url(#paint0_linear_57471_7296)" stroke-width="4"/>
<path d="M206.417 77.4102C199.944 85.8608 182.923 102.676 173.43 112.17" stroke="url(#paint1_linear_57471_7296)" stroke-width="4"/>
<path d="M149.706 103.433C143.233 111.884 123.273 130.95 113.78 140.443C101.914 152.309 101.077 165.262 116.719 165.262C132.361 165.262 126.623 184.217 110.981 190.15C98.467 194.897 73.0296 199.727 68.7145 203.143" stroke="url(#paint2_linear_57471_7296)" stroke-width="4"/>
<path d="M125.275 181.925C113.671 193.528 96.0208 197.32 81.1407 203.143" stroke="#7EA1FF" stroke-linecap="round"/>
<path d="M176.15 98.1101L162.605 84.5653L150.962 121.409L150.962 167.925L116.075 196.166L83.6807 208.931H351L208.165 66.0952L219.904 110.611L198.766 105.012L217.396 157.579L193.324 134.699L176.15 98.1101Z" fill="#E3AAAA"/>
<path d="M96.3852 193.561L92.8424 200.14L93.5533 210.955H128.038L126.314 198.622L123.806 201.074L120.044 196.372L117.222 198.622L116.282 195.118L113.617 198.622L110.639 187.437L106.72 198.622L104.055 196.372L102.458 198.622L100.181 193.561L96.3852 198.622V193.561Z" fill="#80B567"/>
<path d="M131.118 204.399L125.105 201.119V209.236L160.305 206.74L215.657 210.117V205.859L214.042 202.629L210.665 204.399L209.197 201.119L206.114 206.74L204.792 201.119L201.709 204.399L199.213 197.49L198.038 206.74L196.13 201.119L193.487 205.859L190.697 201.119L188.348 205.859L185.118 203.51L181.154 204.399L179.539 201.119L176.309 204.399L172.492 201.119L170.436 203.51L168.674 198.66L165.885 204.399L163.095 201.119L157.369 202.629L153.845 200.28L150.909 203.51L149.147 198.66L146.504 204.399L144.509 201.119L141.776 204.399L136.583 198.66L131.118 204.399Z" fill="#80B567"/>
<path d="M217.635 192.969L214.551 210.908H258.322L289.653 204.833L286.33 191.374L283.245 196.833L279.921 188.525L273.513 195.646L268.054 188.525L264.731 195.646L259.983 186.152L256.186 192.969L254.762 188.525L250.014 198.969L244.555 195.646L241.469 198.969L238.859 191.374L236.485 198.969L234.349 195.646L231.5 198.969L228.415 188.525L225.329 198.969L222.243 195.646L219.632 198.969L217.635 192.969Z" fill="#80B567"/>
<path d="M180.801 205.053C172.112 196.921 154.2 178.184 152.062 168.293C161.076 168.293 179.448 161.468 197.51 153.572C202.723 151.293 200.596 149.719 223.057 168.293C245.519 186.867 228.858 138.858 234.604 135.878C223.91 129.862 201.52 115.493 197.51 106.136C212.749 103.195 210.32 79.2904 207.201 67.7056" stroke="white" stroke-dasharray="2 2"/>
<path d="M71.2673 199.515C71.2673 197.306 73.0582 195.515 75.2673 195.515H80.0566C82.2658 195.515 84.0566 197.306 84.0566 199.515V206.67H71.2673V199.515Z" fill="#A07121"/>
<circle cx="153.61" cy="169.37" r="5.25" fill="white" stroke="#E3AAAA" stroke-width="1.5"/>
<circle cx="237.322" cy="137.292" r="5.25" fill="white" stroke="#E3AAAA" stroke-width="1.5"/>
<circle cx="200.143" cy="106.892" r="5.25" fill="white" stroke="#E3AAAA" stroke-width="1.5"/>
<path d="M-0.991211 177.458V206.372V209.93H103.574L95.4899 206.372L91.0806 199.471L89.2434 206.372L86.6713 194.807L80.7923 203.077V199.471L77.1179 203.077V185.765L71.9737 203.077V194.807L69.0342 203.077L65.7272 181.076L60.9505 203.077L58.7459 172.42L52.4994 199.471V185.765L48.1047 194.807V177.458L37.3037 194.807V163.964L31.4122 177.458L22.5749 194.807V177.458L16.6834 194.807L12.3106 163.964L5.89855 179.338V165.348L-0.991211 177.458Z" fill="#A7DB8F"/>
<path d="M385.237 177.458V206.372V209.93H250.435L260.856 206.372L266.541 199.47L268.909 206.372L272.225 194.806L279.804 203.077V199.47L284.541 203.077V185.765L291.173 203.077V194.806L294.962 203.077L299.226 181.076L305.384 203.077L308.226 172.42L316.279 199.47V185.765L321.944 194.806V177.458L335.869 194.806V163.964L343.464 177.458L354.856 194.806V177.458L362.452 194.806L373.844 189.024V206.372L385.237 177.458Z" fill="#A7DB8F"/>
<path d="M136.219 208.361H97.8555L99.3066 209.93H258.666L257.75 208.361H212.261H198.997L159.935 204.176L136.219 208.361Z" fill="#A7DB8F"/>
<path d="M231.678 89.4917L215.6 78.2247L210.919 75.3877L201.455 80.5864L191.989 82.3178L208.261 66.1533L231.678 89.4917Z" fill="white"/>
<path d="M375 209.114L375 215.886C375 215.886 314.846 240 187.5 240C60.1547 240 0 215.886 0 215.886V209.114H375Z" fill="#A7DB8F"/>
<path d="M95.0781 209.218C104.255 209.334 122.608 210.682 122.608 215.142C122.608 219.603 109.366 221.182 102.745 221.415" stroke="#ECF1FF" stroke-width="4"/>
<circle cx="208.143" cy="66.8921" r="5.25" fill="white" stroke="#E3AAAA" stroke-width="1.5"/>
<circle cx="153.019" cy="168.45" r="5.25" fill="#A7DB8F" stroke="white" stroke-width="1.5"/>
<path d="M153.168 169.833L152.103 153.041" stroke="black"/>
<path d="M163.697 154.939L152.5 152.015L153.138 162.07L163.697 154.939Z" fill="#FF9318"/>
<path d="M154.812 153.214L164.373 154.534L154.812 161.701" stroke="black"/>
<circle cx="186.143" cy="206.892" r="5.25" fill="#A7DB8F" stroke="white" stroke-width="1.5"/>
<path d="M186.292 208.276L185.227 191.484" stroke="black"/>
<path d="M196.821 193.382L185.624 190.457L186.261 200.513L196.821 193.382Z" fill="#FF9318"/>
<path d="M187.935 191.656L197.496 192.976L187.935 200.143" stroke="black"/>
<path d="M74.9861 216.714C91.4728 218.813 152.106 221.612 159.101 221.737C178.128 222.612 169.217 230.73 156.477 232.603C143.737 234.477 67.4921 229.829 55.8765 225.707C44.2608 221.586 54.3777 214.092 74.9861 216.714Z" fill="#ECF1FF"/>
<path d="M100.039 219.973C94.9654 219.409 83.1274 218.028 76.363 217.013C67.9075 215.745 52.2648 214.054 53.5331 219.973C54.8014 225.891 70.4435 230.119 85.2412 230.965C97.0793 231.641 130.163 233.328 154.506 231.988" stroke="#62A543"/>
<path d="M72.0906 224.067C72.9674 224.176 74.9181 224.067 75.7068 222.752C76.6927 221.108 75.8708 225.217 78.172 225.217C80.0129 225.217 81.1306 224.45 81.4593 224.067C81.6785 224.45 82.4126 225.217 83.5961 225.217C84.7795 225.217 86.0616 225.217 86.5547 225.217" stroke="#7EA1FF"/>
<path d="M138.172 226.695C139.048 226.805 140.999 226.695 141.788 225.38C142.774 223.737 141.952 227.846 144.253 227.846C146.094 227.846 147.212 227.079 147.54 226.695C147.76 227.079 148.494 227.846 149.677 227.846C150.861 227.846 152.143 227.846 152.636 227.846" stroke="#7EA1FF"/>
<path d="M99.9932 225.385C100.87 225.495 102.821 225.385 103.609 224.07C104.595 222.427 103.773 226.536 106.075 226.536C107.915 226.536 109.033 225.769 109.362 225.385C109.581 225.769 110.315 226.536 111.499 226.536C112.682 226.536 113.964 226.536 114.457 226.536" stroke="#7EA1FF"/>
<path d="M137.195 109.918L162.257 84.166L176.096 98.0995L159.579 95.9829L137.195 109.918Z" fill="white"/>
<path d="M183.084 112.59L159.108 96.2712L162.257 84.166L176.199 98.1098L183.084 112.59Z" fill="#FAFAFA"/>
<path d="M103.208 157.21C104.425 165.884 112.157 166.415 118.933 167.77" stroke="#7EA1FF" stroke-linecap="round"/>
<path d="M133.474 120.964C132.767 121.501 123.296 128.186 124.138 129.239C124.7 129.941 125.514 132.019 124.421 132.634C123.265 133.284 115.898 134.057 116.83 135.817C117.573 137.22 116.854 137.584 115.651 138.787" stroke="#7EA1FF" stroke-linecap="round"/>
<path d="M102.436 210.727C108.03 210.942 114.12 210.839 119.587 212.101C121.076 212.445 121.177 212.986 120.452 214.154C119.06 216.398 117.351 216.93 114.634 217.7C109.791 219.072 104.769 219.823 99.9932 221.415" stroke="#7EA1FF" stroke-linecap="round"/>
<path d="M204.143 81.2886C202.798 82.0355 204.408 83.7775 203.887 84.2187C202.322 85.5429 199.671 86.0263 197.857 86.9954C195.294 88.3646 193.036 89.8146 191.571 92.3275" stroke="#7EA1FF" stroke-linecap="round"/>
<path d="M189.574 99.5972L193.567 96.8911V108.139H189.574V99.5972Z" fill="#FF9318"/>
<path d="M193.213 93.6329C193.213 91.6223 195.152 90.1809 197.078 90.76L199.863 91.598L202.649 90.76C204.574 90.1809 206.513 91.6223 206.513 93.6328V113.817H193.213V93.6329Z" fill="#333333"/>
<circle cx="196.958" cy="98.4629" r="0.618652" stroke="#333333"/>
<circle cx="196.958" cy="98.4629" r="1.93262" stroke="white"/>
<circle cx="202.747" cy="98.4629" r="1.93262" stroke="white"/>
<circle cx="202.747" cy="98.4629" r="0.618652" stroke="#333333"/>
<circle cx="235.686" cy="136.892" r="5.25" fill="#A7DB8F" stroke="white" stroke-width="1.5"/>
<path d="M235.835 138.276L234.77 121.484" stroke="black"/>
<path d="M246.364 123.382L235.167 120.457L235.805 130.513L246.364 123.382Z" fill="#FF9318"/>
<path d="M237.479 121.656L247.04 122.976L237.479 130.143" stroke="black"/>
<path d="M113.852 116.355L110.057 124.348L106.705 121.059L102.124 145.208L105.302 142.116L111.555 140.457L113.852 137.522L130.117 117.902L139.232 108.098L133.177 106.263L126.187 101.552L122.718 111.085H118.725L116.479 117.902L113.852 116.355Z" fill="#62A543"/>
<path d="M122.933 151.163H117.252L111.693 158.45L117.252 162.268L126.516 161.11L138.482 162.268L140.847 151.163L136.538 152.425L133.817 145.04L131.323 151.163L129.797 137.557L122.933 151.163Z" fill="#75AF5A"/>
<path d="M186.528 111.601L183.674 108.524L182.578 111.601L183.674 122.861L185.882 125.511V134.122H189.636L205.515 146.93L202.848 131.861L199.114 134.122V122.861L196.464 124.407L192.711 111.601L190.723 117.783L188.074 107.406L186.528 111.601Z" fill="#62A543"/>
<path d="M242.921 90.5851L237.69 81.4321V90.5851L233.797 85.8353L235.438 94.4327L256.093 114.633L261.063 119.025L258.611 99.0842L255.179 105.295L253.596 95.4884L250.929 87.4796L247.606 88.9949L244.882 82.4128L242.921 90.5851Z" fill="#62A543"/>
<path d="M247.977 109.204C248.291 109.989 248.343 111.894 247.087 111.35C245.516 110.67 243.632 107.267 247.977 109.204Z" fill="#BA9191"/>
<path d="M250.468 105.878C250.23 103.864 248.523 102.347 246.496 102.347L243.565 102.347C241.356 102.347 239.565 104.138 239.565 106.347L239.565 109.101C239.565 109.815 240.297 110.31 240.974 110.085C242.058 109.725 243.565 109.31 244.749 109.31C245.935 109.31 247.878 110.407 249.337 111.355C250.078 111.837 251.102 111.239 250.998 110.361L250.468 105.878Z" fill="white"/>
<circle cx="2.43262" cy="2.43262" r="1.93262" transform="matrix(-1 8.74228e-08 8.74228e-08 1 245.91 102.347)" stroke="white"/>
<circle cx="1.11865" cy="1.11865" r="0.618652" transform="matrix(-1 8.74228e-08 8.74228e-08 1 244.607 103.661)" stroke="#333333"/>
<circle cx="1.11865" cy="1.11865" r="0.618652" transform="matrix(-1 8.74228e-08 8.74228e-08 1 241.962 103.661)" stroke="#333333"/>
<path d="M262.586 107.542L261.225 117.753H257.821L293.672 151.562L290.268 141.351H288.453L285.277 134.771L283.461 138.175L281.419 122.291L278.923 130.914L276.427 122.291L271.889 123.88L270.528 115.484L267.351 120.249L262.586 107.542Z" fill="#62A543"/>
<path d="M246.526 96.5224L243.697 110.425L248.006 113.656V118.611H256.407L261.361 122.704L262.869 120.549L261.361 108.055L258.561 111.933L256.407 108.055L254.197 108.562L252.216 100.942L249.117 102.72L246.526 96.5224Z" fill="#80B567"/>
<path d="M269.197 134.48L261.151 122.92L261.924 119.407L264.701 122.92L265.891 121.655L266.817 124.431L268.271 122.92L272.106 129.191L273.031 127.208L276.205 133.29H278.585L280.172 139.637L275.279 135.67L269.197 134.48Z" fill="#80B567"/>
<path d="M87.8243 164.912L86.1592 170.574L94.1519 162.914L102.145 159.084L103.81 153.922L105.641 148.261L103.81 149.926L102.145 138.104L98.0335 142.359V148.261H94.1519L92.1703 153.08H89.155L87.8243 164.912Z" fill="#A7DB8F"/>
<path d="M134.16 118.055L128.628 130.63L134.16 126.038L144.059 118.055L142.973 120.202L153.424 113.78L159.26 115.541L157.36 106.765L155.46 109.615V103.508L152.745 105.733L150.981 101.2L147.452 106.765L145.98 105.733L140.447 115.541L138.938 113.78L136.424 121.325L134.16 118.055Z" fill="#75AF5A"/>
<path d="M270.989 164.714L270.989 174.547H287.953L285.836 168.106L282.047 170.307L277.879 164.714L274.903 170.307L270.989 164.714Z" fill="#A7DB8F"/>
<mask id="mask0_57471_7296" style="mask-type:alpha" maskUnits="userSpaceOnUse" x="112" y="9" width="76" height="73">
<path d="M161.453 12.5382C160.727 7.45275 157.476 12.2834 156.099 13.5986C154.722 14.9138 153.532 13.7118 152.79 12.5382C151.862 11.0712 151.356 9.28383 149.333 12.5382C147.31 15.7926 146.466 14.3425 144.443 11.223C142.42 8.10349 142.167 9.28384 141.323 11.6445C140.48 14.0052 138.71 18.4737 135.422 14.9326C132.134 11.3916 131.459 12.5382 131.206 14.9326C130.953 17.3271 133.398 22.3519 127.497 20.1599C121.595 17.9678 122.607 21.6775 124.04 24.3754C125.473 27.0733 124.799 27.2419 120.583 28.085C116.368 28.9282 116.705 28.9281 117.632 30.783C118.56 32.6378 123.956 36.5161 117.632 37.9494C111.309 39.3826 112.489 40.7316 114.85 42.0806C117.211 43.4295 121.679 44.5256 116.705 47.1392C111.731 49.7528 114.091 50.5116 117.126 51.7763C120.162 53.0409 120.583 52.788 116.705 55.7388C112.827 58.6897 117.379 59.1956 120.583 60.2916C123.787 61.3876 122.775 62.1464 120.583 65.7718C118.391 69.3971 118.391 70.6618 123.956 69.2285C129.52 67.7952 126.991 69.65 126.316 73.3597C125.642 77.0694 130.026 72.8538 131.965 72.6009C133.904 72.348 134.157 72.6009 134.41 77.7702C134.663 82.9395 138.204 81.6221 140.227 78.8486C142.251 76.0751 144.949 75.2145 146.213 77.7702C147.478 80.3259 148.321 81.9594 150.851 78.8486C153.38 75.7379 152.87 75.6134 155.811 78.8486C158.752 82.0838 159.144 81.0054 159.831 76.8879C160.517 72.7704 163.36 75.9075 166.497 77.7702C169.634 79.6329 170.08 77.8683 168.654 73.8488C167.227 69.8293 169.34 71.4959 172.869 71.79C176.399 72.0841 178.457 72.8684 176.693 69.5352C174.928 66.2019 174.928 65.2216 176.693 63.6604C178.105 62.4116 181.537 63.1401 183.076 63.6604C185.981 63.8313 183.076 60.2427 180.171 57.5085C177.266 54.7743 181.026 54.2616 184.614 53.2363C188.203 52.211 189.057 49.3059 184.614 47.4262C180.171 45.5464 181.026 44.3502 183.076 42.6413C185.127 40.9324 190.766 37.8565 184.614 37.5147C178.462 37.1729 179.317 35.9767 181.026 31.7045C182.735 27.4323 181.538 27.945 177.095 27.4323C172.652 26.9197 181.368 21.2804 177.095 20.5969C172.823 19.9133 169.626 27.9761 170.08 17.7599C170.534 7.54356 162.361 18.895 161.453 12.5382Z" fill="#ECF1FF"/>
</mask>
<g mask="url(#mask0_57471_7296)">
<circle cx="150.362" cy="45.1031" r="39.0918" fill="url(#paint3_radial_57471_7296)"/>
</g>
<path d="M179.71 92.8108L177.318 100.555L178.912 104.085L184.379 98.3911L193.148 89.1665H189.845L186.77 90.1915L185.062 89.1665L182.101 93.608L179.71 92.8108Z" fill="#62A543"/>
<ellipse cx="279.396" cy="175.197" rx="9.27585" ry="0.825365" fill="#ECF1FF"/>
<path d="M117.386 158.634C117.386 156.425 119.177 154.634 121.386 154.634H123.871C126.08 154.634 127.871 156.425 127.871 158.634V163.464L117.386 162.838V158.634Z" fill="#D29F65"/>
<path d="M120.903 159.725C121.299 159.742 122.348 159.528 123.377 158.538M125.198 158.372C125.514 159.069 126.17 159.541 127.385 159.725" stroke="#806241"/>
</g>
<defs>
<linearGradient id="paint0_linear_57471_7296" x1="126.276" y1="123.906" x2="86.9935" y2="183.973" gradientUnits="userSpaceOnUse">
<stop offset="0.416231" stop-color="#D3DBF2"/>
<stop offset="1" stop-color="#ECF1FF"/>
</linearGradient>
<linearGradient id="paint1_linear_57471_7296" x1="202.786" y1="77.4102" x2="165.921" y2="177.12" gradientUnits="userSpaceOnUse">
<stop stop-color="#D3DBF2"/>
<stop offset="1" stop-color="#ECF1FF"/>
</linearGradient>
<linearGradient id="paint2_linear_57471_7296" x1="146.076" y1="103.433" x2="109.21" y2="203.143" gradientUnits="userSpaceOnUse">
<stop stop-color="#D3DBF2"/>
<stop offset="1" stop-color="#ECF1FF"/>
</linearGradient>
<radialGradient id="paint3_radial_57471_7296" cx="0" cy="0" r="1" gradientUnits="userSpaceOnUse" gradientTransform="translate(150.362 45.1031) rotate(90) scale(39.0918)">
<stop offset="0.335" stop-color="#FFC400"/>
<stop offset="0.55" stop-color="#FFD500"/>
<stop offset="1" stop-color="#FFD900" stop-opacity="0"/>
</radialGradient>
<clipPath id="clip0_57471_7296">
<rect width="375" height="240" fill="white"/>
</clipPath>
</defs>
</svg>
