<svg width="375" height="240" viewBox="0 0 375 240" fill="none" xmlns="http://www.w3.org/2000/svg">
<g clip-path="url(#clip0_57471_7451)">
<mask id="mask0_57471_7451" style="mask-type:alpha" maskUnits="userSpaceOnUse" x="-43" y="34" width="111" height="106">
<path d="M29.0801 38.7517C28.0103 31.263 23.2239 38.3765 21.1961 40.3133C19.1682 42.25 17.415 40.48 16.3224 38.7517C14.9567 36.5914 14.2118 33.9594 11.2321 38.7517C8.25239 43.5441 7.01084 41.4087 4.03114 36.815C1.05144 32.2213 0.678978 33.9594 -0.562565 37.4357C-1.80411 40.9121 -4.41135 47.4922 -9.25336 42.2777C-14.0954 37.0633 -15.0886 38.7517 -15.4611 42.2777C-15.8335 45.8038 -12.2331 53.2033 -20.9239 49.9753C-29.6147 46.7473 -28.1248 52.2101 -26.0142 56.183C-23.9036 60.156 -24.8968 60.4043 -31.1045 61.6458C-37.3122 62.8873 -36.8156 62.8873 -35.4499 65.6187C-34.0842 68.3501 -26.1383 74.0612 -35.4499 76.1719C-44.7615 78.2825 -43.0233 80.2689 -39.547 82.2554C-36.0707 84.2419 -29.4905 85.8559 -36.8156 89.7047C-44.1407 93.5534 -40.6644 94.6708 -36.1948 96.5331C-31.7253 98.3955 -31.1045 98.023 -36.8156 102.368C-42.5267 106.714 -35.8224 107.459 -31.1045 109.073C-26.3866 110.687 -27.8765 111.804 -31.1045 117.143C-34.3325 122.481 -34.3325 124.344 -26.1383 122.233C-17.9441 120.122 -21.6688 122.854 -22.662 128.317C-23.6552 133.779 -17.1992 127.572 -14.3437 127.199C-11.4881 126.827 -11.1157 127.199 -10.7432 134.812C-10.3708 142.424 -5.15628 140.484 -2.17657 136.4C0.803127 132.315 4.77606 131.048 6.63837 134.812C8.50069 138.575 9.74223 140.98 13.4669 136.4C17.1915 131.819 16.4406 131.635 20.7716 136.4C25.1026 141.164 25.6801 139.576 26.6907 133.512C27.7012 127.449 31.8879 132.069 36.5076 134.812C41.1274 137.554 41.7843 134.956 39.6837 129.037C37.5832 123.118 40.6943 125.572 45.8915 126.005C51.0887 126.438 54.1204 127.593 51.5218 122.685C48.9232 117.776 48.9232 116.333 51.5218 114.034C53.6007 112.195 58.6549 113.267 60.9222 114.034C65.2002 114.285 60.9222 109.001 56.6442 104.974C52.3662 100.948 57.9024 100.193 63.187 98.6832C68.4716 97.1733 69.7298 92.8954 63.187 90.1273C56.6442 87.3591 57.9024 85.5976 60.9222 83.0812C63.9419 80.5647 72.2463 76.0351 63.187 75.5318C54.1277 75.0285 55.386 73.267 57.9024 66.9758C60.4189 60.6847 58.6574 61.4396 52.1146 60.6847C45.5718 59.9297 58.4057 51.6254 52.1146 50.6188C45.8234 49.6122 41.1156 61.4854 41.7843 46.4411C42.4529 31.3967 30.4174 48.1127 29.0801 38.7517Z" fill="#ECF1FF"/>
</mask>
<g mask="url(#mask0_57471_7451)">
<circle cx="12.747" cy="86.7067" r="57.5661" fill="url(#paint0_radial_57471_7451)"/>
</g>
<path opacity="0.7" d="M313.248 126.719C309.415 117.025 307.627 97.9129 331.131 99.0208C323.191 88.3998 329.127 74.6097 341.847 77.8274C341.847 57.1422 354.566 56.2228 362.198 58.9809C367.286 46.11 382.973 36.9166 391.453 45.1907C398.237 51.81 399.367 57.1422 399.085 58.9809C402.052 55.9164 410.108 51.6261 418.588 58.9809C427.067 66.3356 425.513 74.6097 423.676 77.8274C426.926 75.529 434.954 73.0468 441.059 81.5047C447.164 89.9627 446.147 96.7062 444.875 99.0208C447.701 96.4322 455.135 92.8081 462.258 99.0208C469.381 105.233 468.9 112.916 467.77 115.98C472.151 114.712 481.422 115.085 483.457 126.719C488.884 122.173 493.633 124.825 495.329 126.719V179.874H294.785C291.251 175.278 286.305 164.062 294.785 155.971C301.246 149.807 307.059 150.19 310.619 151.874C305.364 147.491 300.985 138.496 313.248 126.719Z" fill="#E2E8F9"/>
<path d="M309.832 134.63C324.004 139.084 324.51 155.381 322.992 162.973V193.846H32.9854C32.1418 189.291 30.9609 177.751 32.9854 168.034C35.0099 158.316 43.2765 156.899 47.1567 157.405C46.6506 155.718 45.942 150.725 47.1567 144.246C48.3714 137.768 58.1226 137.498 62.8464 138.173C61.1593 134.293 58.7975 125.419 62.8464 120.965C66.8954 116.511 81.7415 116.747 88.6585 117.422C86.2966 114.891 82.9899 106.895 88.6585 95.1527C94.327 83.4108 107.554 83.512 113.458 85.0303C112.109 81.8249 110.219 73.6933 113.458 66.8101C116.697 59.9268 126.28 59.5557 130.666 60.2305C130.835 57.8686 133.298 51.5253 141.801 45.0469C150.304 38.5686 160.865 44.0347 165.082 47.5775C167.444 45.5531 175.104 42.2127 186.846 45.0469C198.588 47.8812 204.222 58.3747 205.572 63.2672C206.416 61.5802 210.633 58.6109 220.756 60.2305C230.878 61.8501 234.421 71.0277 234.927 75.4141C237.795 74.0644 245.758 73.2884 254.666 80.9814C263.573 88.6744 264.45 99.3704 263.776 103.757C265.294 102.238 271.165 101.327 282.502 109.83C293.839 118.333 290.263 129.906 287.057 134.63C288.744 132.774 295.661 130.176 309.832 134.63Z" fill="#E2E8F9"/>
<path d="M154.516 89.2145C138.671 95.6105 136.595 113.199 137.539 121.194C134.736 119.122 126.289 119.099 114.924 135.585C103.56 152.072 119.659 180.052 129.13 191.981H382.997C384.112 183.064 385.211 160.663 380.683 142.388C376.156 124.114 361.281 123.607 354.41 125.637C354.949 124.156 356.592 119.951 358.856 114.977C361.685 108.761 353.197 86.5512 335.007 93.6578C334.361 80.2569 321.534 75.553 315.201 74.8762C311.698 68.108 301.7 53.9626 289.735 51.526C277.771 49.0895 261.575 56.0933 254.973 59.8997C252.817 58.1237 247.051 54.5717 241.23 54.5717C235.409 54.5717 228.834 66.0776 226.274 71.8305C224.755 65.7808 217.19 54.9251 199.081 59.8997C180.972 64.8744 177.388 81.5157 177.859 89.2145C176.68 86.5496 170.361 82.8186 154.516 89.2145Z" fill="white"/>
<path d="M25.4464 141.258L9.96151 101.921L5.79251 146.037L-3.88186 89.3192L-0.991309 168.567V202.02H71.0615L182.416 189.731V161.74V146.037L162.766 161.74L154.578 146.037L139.84 161.74L128.377 137.162L118.551 168.567L105.451 146.037V161.74L92.35 141.258L82.5245 161.74L71.0615 124.19L48.1355 168.567L36.6725 141.258H25.4464Z" fill="#62A543"/>
<path d="M378.027 137.161V168.566V202.02H305.975L194.62 189.731V161.739V146.037L214.271 161.739L222.458 146.037L237.197 161.739L248.66 137.161L258.485 168.566L271.586 146.037V161.739L284.686 141.257L294.512 161.739L305.975 150.094L328.901 168.566L340.364 141.257L351.827 161.739L378.027 137.161Z" fill="#62A543"/>
<path opacity="0.7" d="M5.75537 146.821L-0.991211 182.7V209.748H41.4165L106.956 199.812V177.18V164.485L95.3903 177.18L90.5712 164.485L81.8968 177.18L75.1501 157.309L69.3672 182.7L61.6567 164.485V177.18L53.9462 160.621L48.1632 177.18V157.309L27.9231 182.7L21.1764 160.621L14.4297 177.18L5.75537 146.821Z" fill="#8DBC77"/>
<path opacity="0.7" d="M371.281 146.821L378.027 182.7V209.748H335.62L270.08 199.812V177.18V164.485L281.646 177.18L286.465 164.485L295.139 177.18L301.886 157.309L307.669 182.7L315.379 164.485V177.18L323.09 160.621L328.873 177.18L335.62 146.821L349.113 182.7L355.86 160.621L362.606 177.18L371.281 146.821Z" fill="#8DBC77"/>
<path d="M162.605 84.5658L38.2397 208.931H351L208.165 66.0957L176.15 98.1106L162.605 84.5658Z" fill="#FFDADA"/>
<path d="M147.706 108.434C141.233 116.884 121.273 135.95 111.78 145.443C99.9135 157.31 95.8264 156.955 95.8264 170.184" stroke="url(#paint1_linear_57471_7451)" stroke-width="4"/>
<path d="M196.706 86.4336C190.234 94.8842 170.273 113.95 160.78 123.443C148.914 135.31 144.827 134.955 144.827 148.184" stroke="url(#paint2_linear_57471_7451)" stroke-width="4"/>
<path d="M176.15 98.1106L162.605 84.5658L150.962 121.41L150.962 167.925L116.075 196.167L83.6807 208.931H351L208.165 66.0957L219.904 110.611L198.766 105.013L217.396 157.579L193.324 134.7L176.15 98.1106Z" fill="#E3AAAA"/>
<path d="M237.254 83.2192L235.438 93.4329L256.093 113.633L257.455 106.143L253.596 107.505L250.419 90.2553L246.56 100.015L243.836 93.4329L241.794 97.0644L237.254 83.2192Z" fill="#62A543"/>
<path d="M131.144 115.778L162.257 84.166L176.097 98.0995L183.084 112.59L154.548 110.49L131.144 115.778Z" fill="white"/>
<path d="M183.084 112.59L154.42 110.523L162.257 84.166L176.199 98.1098L183.084 112.59Z" fill="#EBEBEB"/>
<path d="M180.801 205.053C172.112 196.921 154.2 178.185 152.062 168.293C161.076 168.293 179.448 161.469 197.51 153.572C202.723 151.293 200.596 149.719 223.057 168.293C245.519 186.867 228.858 138.859 234.604 135.878C223.91 129.863 201.52 115.493 197.51 106.136C212.749 103.196 210.32 79.2909 207.201 67.7061" stroke="white" stroke-dasharray="2 2"/>
<circle cx="153.61" cy="169.37" r="5.25" fill="white" stroke="#E3AAAA" stroke-width="1.5"/>
<circle cx="237.322" cy="137.293" r="5.25" fill="white" stroke="#E3AAAA" stroke-width="1.5"/>
<circle cx="200.143" cy="106.893" r="5.25" fill="white" stroke="#E3AAAA" stroke-width="1.5"/>
<path d="M-0.991211 177.458V206.373V209.93H103.574L95.4899 206.373L91.0806 199.471L89.2434 206.373L86.6713 194.807L80.7923 203.078V199.471L77.1179 203.078V185.766L71.9737 203.078V194.807L69.0342 203.078L65.7272 181.077L60.9505 203.078L58.7459 172.421L52.4994 199.471V185.766L48.1047 194.807V177.458L37.3037 194.807V163.965L31.4122 177.458L22.5749 194.807V177.458L16.6834 194.807L12.3106 163.965L5.89855 179.339V165.349L-0.991211 177.458Z" fill="#A7DB8F"/>
<path d="M385.237 177.458V206.373V209.93H250.435L260.856 206.373L266.541 199.471L268.909 206.373L272.225 194.807L279.804 203.078V199.471L284.541 203.078V185.766L291.173 203.078V194.807L294.962 203.078L299.226 181.077L305.384 203.078L308.226 172.421L316.279 199.471V185.766L321.944 194.807V177.458L335.869 194.807V163.965L343.464 177.458L354.856 194.807V177.458L362.452 194.807L373.844 189.024V206.373L385.237 177.458Z" fill="#A7DB8F"/>
<path d="M136.219 208.361H97.8555L99.3066 209.93H258.666L257.75 208.361H212.261H198.997L159.935 204.176L136.219 208.361Z" fill="#A7DB8F"/>
<path d="M183.146 91.1026L208.261 66.1533L231.678 89.4917V102.514L215.6 94.6755L211.342 90.4621L202.389 93.2168L194.383 89.4917L183.146 91.1026Z" fill="white"/>
<path d="M187.595 88.062C192.881 82.6662 197.753 76.8547 202.763 71.2073C205.763 67.8257 208.855 64.5318 211.945 61.2354" stroke="#E2E8F9" stroke-linecap="round"/>
<path d="M198.902 85.4927C197.558 86.2396 199.168 87.9816 198.647 88.4228C197.082 89.747 194.43 90.2304 192.616 91.1995C190.053 92.5687 187.796 94.0187 186.33 96.5316" stroke="#7EA1FF" stroke-linecap="round"/>
<path d="M231.678 102.514L215.6 94.6755L208.261 66.1533L231.678 89.4917V102.514Z" fill="#EBEBEB"/>
<path d="M144.03 159.597L148.024 156.891V168.139H144.03V159.597Z" fill="#FF9318"/>
<path d="M147.67 153.633C147.67 151.622 149.609 150.181 151.534 150.76L154.32 151.598L157.106 150.76C159.031 150.181 160.97 151.622 160.97 153.633V173.817H147.67V153.633Z" fill="#333333"/>
<circle cx="151.415" cy="158.463" r="0.618652" stroke="#333333"/>
<circle cx="151.415" cy="158.463" r="1.93262" stroke="white"/>
<circle cx="157.203" cy="158.463" r="1.93262" stroke="white"/>
<circle cx="157.203" cy="158.463" r="0.618652" stroke="#333333"/>
<path d="M375 209.114L375 215.886C375 215.886 314.846 240 187.5 240C60.1547 240 0 215.886 0 215.886V209.114H375Z" fill="#A7DB8F"/>
<circle cx="208.143" cy="66.8926" r="5.25" fill="white" stroke="#E3AAAA" stroke-width="1.5"/>
<circle cx="186.143" cy="206.892" r="5.25" fill="#A7DB8F" stroke="white" stroke-width="1.5"/>
<path d="M186.292 208.276L185.227 191.484" stroke="black"/>
<path d="M196.821 193.382L185.624 190.457L186.261 200.513L196.821 193.382Z" fill="#FF9318"/>
<path d="M187.935 191.656L197.496 192.976L187.935 200.143" stroke="black"/>
<path d="M147.393 109.442C146.686 109.98 137.215 116.665 138.057 117.718C138.619 118.42 139.433 120.497 138.34 121.112C137.184 121.763 129.817 122.536 130.749 124.295C131.492 125.699 130.773 126.063 129.57 127.266" stroke="#7EA1FF" stroke-linecap="round"/>
<path d="M141.616 105.397C146.902 100.002 149.184 97.6853 154.194 92.0379C157.194 88.6562 160.287 85.3624 163.376 82.0659" stroke="#E2E8F9" stroke-linecap="round"/>
<path d="M111.555 126.547L109.896 131.397L106.705 121.06L102.124 145.208L105.301 142.116L111.555 140.457L113.852 137.522L120.743 131.397L118.446 119.146L114.872 133.055L111.555 126.547Z" fill="#62A543"/>
<path d="M120.34 152.425L117.252 164.97L126.516 161.11L138.482 162.268V158.022H135.008L133.85 152.425L129.797 156.671L125.358 145.091L122.656 158.022L120.34 152.425Z" fill="#75AF5A"/>
<path d="M185.882 116.9L183.674 122.862L185.882 125.511V134.122H189.636L200.676 140.967V134.122L198.026 135.668L194.272 122.862L192.285 129.044L189.636 118.667L188.09 122.862L185.882 116.9Z" fill="#62A543"/>
</g>
<defs>
<radialGradient id="paint0_radial_57471_7451" cx="0" cy="0" r="1" gradientUnits="userSpaceOnUse" gradientTransform="translate(12.747 86.7067) rotate(90) scale(57.5661)">
<stop offset="0.335" stop-color="#FFC400"/>
<stop offset="0.55" stop-color="#FFD500"/>
<stop offset="1" stop-color="#FFD900" stop-opacity="0"/>
</radialGradient>
<linearGradient id="paint1_linear_57471_7451" x1="144.076" y1="108.434" x2="95.8264" y2="181.962" gradientUnits="userSpaceOnUse">
<stop stop-color="#D3DBF2"/>
<stop offset="1" stop-color="#ECF1FF" stop-opacity="0"/>
</linearGradient>
<linearGradient id="paint2_linear_57471_7451" x1="193.076" y1="86.4336" x2="144.827" y2="159.962" gradientUnits="userSpaceOnUse">
<stop stop-color="#D3DBF2"/>
<stop offset="1" stop-color="#ECF1FF" stop-opacity="0"/>
</linearGradient>
<clipPath id="clip0_57471_7451">
<rect width="375" height="240" fill="white"/>
</clipPath>
</defs>
</svg>
