<svg width="20" height="22" viewBox="0 0 20 22" fill="none" xmlns="http://www.w3.org/2000/svg">
<path d="M17.75 7.2373H15V5.2373C15 3.97753 14.4996 2.76935 13.6088 1.87855C12.718 0.98775 11.5098 0.487305 10.25 0.487305C8.99022 0.487305 7.78204 0.98775 6.89124 1.87855C6.00044 2.76935 5.5 3.97753 5.5 5.2373V7.2373H2.75C2.28587 7.2373 1.84075 7.42168 1.51256 7.74987C1.18437 8.07806 1 8.52318 1 8.9873V19.4873C1 19.9514 1.18437 20.3966 1.51256 20.7247C1.84075 21.0529 2.28587 21.2373 2.75 21.2373H17.75C18.2141 21.2373 18.6592 21.0529 18.9874 20.7247C19.3156 20.3966 19.5 19.9514 19.5 19.4873V8.9873C19.5 8.52318 19.3156 8.07806 18.9874 7.74987C18.6592 7.42168 18.2141 7.2373 17.75 7.2373ZM7.5 5.2373C7.5 4.50796 7.78973 3.80849 8.30546 3.29276C8.82118 2.77704 9.52065 2.4873 10.25 2.4873C10.9793 2.4873 11.6788 2.77704 12.1945 3.29276C12.7103 3.80849 13 4.50796 13 5.2373V7.2373H7.5V5.2373ZM3 19.2373V9.2373H17.5V19.2373H3ZM11.3933 15.0012C11.5444 14.7751 11.625 14.5093 11.625 14.2373C11.625 13.8726 11.4801 13.5229 11.2223 13.265C10.9644 13.0072 10.6147 12.8623 10.25 12.8623C9.97805 12.8623 9.71221 12.9429 9.48609 13.094C9.25997 13.2451 9.08374 13.4599 8.97967 13.7111C8.8756 13.9624 8.84837 14.2388 8.90142 14.5056C8.95447 14.7723 9.08543 15.0173 9.27773 15.2096C9.47002 15.4019 9.71502 15.5328 9.98175 15.5859C10.2485 15.6389 10.5249 15.6117 10.7762 15.5076C11.0274 15.4036 11.2422 15.2273 11.3933 15.0012Z" fill="#FF4747" stroke="#FF4747" stroke-width="0.5"/>
</svg>
