<svg width="24" height="24" viewBox="0 0 24 24" fill="none" xmlns="http://www.w3.org/2000/svg">
<g clip-path="url(#clip0_61319_672)">
<path d="M15.75 7.12491C15.75 7.34741 15.684 7.56492 15.5604 7.74992C15.4368 7.93493 15.2611 8.07912 15.0555 8.16427C14.85 8.24942 14.6238 8.2717 14.4055 8.22829C14.1873 8.18488 13.9869 8.07774 13.8295 7.9204C13.6722 7.76307 13.5651 7.56261 13.5216 7.34438C13.4782 7.12615 13.5005 6.89995 13.5857 6.69439C13.6708 6.48882 13.815 6.31312 14 6.1895C14.185 6.06589 14.4025 5.99991 14.625 5.99991C14.9234 5.99991 15.2095 6.11843 15.4205 6.32941C15.6315 6.54039 15.75 6.82654 15.75 7.12491ZM20.3175 13.4662C18.5016 16.738 15.12 18.5062 10.2638 18.7255L8.20128 23.5452C8.14331 23.6805 8.04679 23.7958 7.92376 23.8767C7.80073 23.9575 7.65662 24.0004 7.5094 23.9999H7.46159C7.30704 23.9902 7.15927 23.9329 7.03858 23.8359C6.91789 23.7389 6.83019 23.6069 6.78753 23.458L5.40002 18.599L0.543775 17.2087C0.394498 17.1667 0.261885 17.0796 0.164188 16.9592C0.0664908 16.8388 0.00851253 16.691 -0.00176737 16.5363C-0.0120473 16.3816 0.0258766 16.2275 0.106785 16.0952C0.187693 15.963 0.307607 15.859 0.450025 15.7977L5.26971 13.7352C5.49003 8.88084 7.25815 5.50022 10.5282 3.68334C12.8485 2.39522 15.4725 2.19834 17.2669 2.26022C19.0144 2.32022 20.6419 2.66053 20.91 2.82272C21.0195 2.88725 21.1108 2.97854 21.1753 3.08803C21.3338 3.35522 21.675 4.98272 21.7378 6.73022C21.8016 8.52084 21.6056 11.1458 20.3175 13.4662ZM15.1444 16.1849C14.2778 15.8545 13.5232 15.2843 12.9687 14.5409C12.4142 13.7975 12.0828 12.9116 12.0132 11.9868C11.0885 11.9173 10.2028 11.586 9.45957 11.0317C8.71631 10.4773 8.14622 9.72287 7.81596 8.85647C7.16284 10.3433 6.80971 12.143 6.75659 14.2555C6.75327 14.3994 6.70863 14.5392 6.62801 14.6584C6.54739 14.7776 6.43419 14.8711 6.3019 14.9277L2.98409 16.3471L6.21378 17.2715C6.33631 17.3066 6.44788 17.3724 6.53793 17.4626C6.62799 17.5528 6.69356 17.6645 6.72846 17.7871L7.65096 21.0158L9.07221 17.6971C9.12897 17.565 9.22251 17.452 9.34169 17.3715C9.46086 17.2911 9.60065 17.2466 9.7444 17.2433C11.855 17.1927 13.655 16.8399 15.1444 16.1849ZM19.9144 4.08459C18.5878 3.80334 13.905 3.05334 10.5113 5.46741C9.94956 5.86819 9.44494 6.34348 9.01128 6.88022C8.97574 7.36997 9.0475 7.86158 9.22156 8.32074C9.39561 8.77991 9.66776 9.19556 10.019 9.53869C10.3703 9.88182 10.7922 10.1442 11.2553 10.3074C11.7184 10.4707 12.2115 10.531 12.7003 10.484C12.8105 10.4734 12.9215 10.4873 13.0257 10.5246C13.1298 10.562 13.2243 10.622 13.3026 10.7002C13.3808 10.7784 13.4407 10.873 13.4781 10.9771C13.5155 11.0812 13.5294 11.1923 13.5188 11.3024C13.4719 11.7914 13.5323 12.2847 13.6958 12.7479C13.8593 13.2111 14.1219 13.633 14.4653 13.9842C14.8088 14.3354 15.2247 14.6074 15.6842 14.7812C16.1436 14.9551 16.6354 15.0265 17.1253 14.9905C17.6601 14.5568 18.1332 14.0521 18.5316 13.4905C20.9457 10.0996 20.1957 5.41303 19.9144 4.08459Z" fill="black"/>
</g>
<defs>
<clipPath id="clip0_61319_672">
<rect width="24" height="24" fill="white"/>
</clipPath>
</defs>
</svg>
