<svg width="65" height="53" viewBox="0 0 65 53" fill="none" xmlns="http://www.w3.org/2000/svg">
<path d="M64.4963 18.2548C64.4636 16.229 64.155 14.23 63.5523 12.343C62.9499 10.4563 62.0537 8.68161 60.8467 7.10461C59.7489 5.66857 58.406 4.40322 56.8074 3.37204C55.2086 2.34086 53.3541 1.5437 51.2324 1.04434C49.6829 0.679311 48.1551 0.49665 46.6361 0.501845C45.1172 0.506894 43.6072 0.6998 42.0938 1.08575C40.8729 1.39726 39.6611 1.83227 38.4514 2.3941C37.3934 2.88538 36.3375 3.47347 35.2783 4.16054C35.0018 4.33988 34.647 4.33613 34.3734 4.15246C34.025 3.91858 33.665 3.6935 33.2936 3.47607C32.7606 3.16413 32.2042 2.86792 31.6238 2.58441C30.5377 2.05302 29.4542 1.62522 28.3686 1.29886C27.2831 0.972347 26.1954 0.747124 25.1012 0.621166C23.9999 0.494198 22.8975 0.467506 21.7891 0.538781C20.6808 0.610056 19.5665 0.779299 18.4412 1.04434C16.3195 1.5437 14.4649 2.34086 12.8661 3.37204C11.2673 4.40322 9.92427 5.66857 8.82586 7.10461C7.6196 8.68161 6.72374 10.4563 6.12133 12.343C5.51877 14.23 5.20966 16.229 5.17661 18.2548C5.14573 20.2295 5.36233 22.3083 5.80251 24.4313C6.20904 26.391 6.80623 28.3882 7.57523 30.3754C7.69165 30.6762 7.6238 31.0215 7.38878 31.2432C6.70967 31.8843 5.99113 32.4591 5.24838 32.9994C4.3647 33.6422 3.44651 34.2365 2.51904 34.8364C0.69543 36.0145 0.27976 37.7838 0.807358 38.9508C1.33496 40.1177 2.80611 40.6823 4.75644 39.4508C5.67361 38.8715 6.59398 38.2902 7.48766 37.674C8.11878 37.2387 8.73656 36.7861 9.33027 36.3043C9.71651 35.9908 10.2895 36.1078 10.5384 36.5375C10.5402 36.5404 10.5418 36.5433 10.5435 36.5462C10.5851 36.6182 10.6272 36.69 10.6692 36.7619C10.8822 37.1249 10.7884 37.5867 10.4426 37.8281C9.39841 38.5569 8.0992 39.4101 6.7897 40.2458C5.21242 41.2525 3.61991 42.2336 2.43945 42.9414C0.554505 44.07 0.173196 45.7698 0.74255 46.9025C1.31176 48.0356 2.83178 48.6016 4.74919 47.4634C6.01549 46.7099 7.69847 45.678 9.3697 44.6148C10.7724 43.7224 12.1669 42.8083 13.2998 42.0188C13.6514 41.7738 14.1266 41.8494 14.3937 42.1837C15.3703 43.4059 16.4123 44.5789 17.5132 45.6864C18.7941 46.9754 20.1547 48.1757 21.5845 49.2617C21.8775 49.4842 22.1717 49.6924 22.4717 49.8932C22.7713 50.0941 23.0768 50.2874 23.3923 50.48C23.6238 50.622 23.8368 50.7501 24.0302 50.8641C24.2235 50.9782 24.3973 51.0781 24.5506 51.1636C24.863 51.3372 25.1792 51.5033 25.5081 51.6569C25.837 51.8107 26.1786 51.9526 26.5418 52.0779C29.0134 52.9304 31.6515 52.4433 33.672 51.0517C35.6923 49.6599 37.0948 47.3634 37.0948 44.5969C37.0948 43.03 36.6295 41.5644 35.8294 40.3298C35.029 39.0952 33.894 38.0917 32.554 37.4491C30.588 36.5089 29.2529 37.3198 28.7867 38.5241C28.3205 39.7281 28.7231 41.3255 30.2327 41.958C30.7495 42.1756 31.189 42.5385 31.4993 42.9954C31.8094 43.4523 31.9903 44.0034 31.9903 44.5969C31.9903 45.5834 31.489 46.414 30.7665 46.9217C30.044 47.4295 29.1003 47.6146 28.2161 47.3096C28.0389 47.2487 27.851 47.1677 27.6547 47.0727C27.4584 46.9776 27.2537 46.8685 27.043 46.7512C26.837 46.6362 26.6527 46.5316 26.4896 46.4372C26.3266 46.3432 26.185 46.2593 26.0644 46.1856C25.7902 46.018 25.5252 45.8464 25.2654 45.6682C25.0055 45.4899 24.7508 45.3049 24.4977 45.1097C23.2826 44.1727 22.1238 43.1394 21.0302 42.0303C19.9367 40.9212 18.9084 39.7368 17.9539 38.4977L18.0621 38.4097L18.1701 38.3218C19.5904 37.1542 20.9382 35.9516 22.1511 34.7416C23.2179 33.6773 24.1803 32.6071 24.9957 31.5501C25.1968 31.2894 25.5294 31.1796 25.8496 31.2592C26.3884 31.3936 26.9235 31.4914 27.4532 31.555C28.1555 31.6393 28.8484 31.6631 29.5276 31.6306C30.7301 31.5729 31.8833 31.3405 32.9678 30.9581C34.0523 30.5756 35.0682 30.0432 35.9962 29.3857C36.9104 28.7369 37.7389 27.9673 38.4623 27.1008C39.1855 26.2345 39.8037 25.2714 40.2973 24.2362C40.7793 23.2248 41.1441 22.1422 41.3737 21.0115C41.6032 19.8806 41.6977 18.7017 41.6395 17.4974C41.6192 17.074 41.5835 16.6514 41.5335 16.2309C41.4832 15.8104 41.4188 15.392 41.3406 14.9773C41.2611 14.5549 41.1677 14.136 41.0608 13.7222C40.954 13.3083 40.8339 12.8995 40.7011 12.4971C40.4246 11.6587 40.1036 10.8783 39.7384 10.1488C39.5015 9.67571 39.2461 9.22396 38.972 8.79184C38.7248 8.40199 38.8603 7.88849 39.2632 7.66067C39.8321 7.33878 40.3958 7.05469 40.9559 6.80811C41.7614 6.45303 42.5587 6.17543 43.3504 5.97358C44.4409 5.69512 45.5388 5.55849 46.6535 5.55949C47.7681 5.56065 48.8993 5.69945 50.0564 5.972C51.5678 6.32751 52.8788 6.88227 53.9994 7.59315C55.12 8.30417 56.0503 9.1713 56.8002 10.1517C57.6637 11.2806 58.305 12.5688 58.7363 13.9524C59.1676 15.3357 59.3889 16.8143 59.4125 18.3237V18.3287V18.3338C59.4541 20.9681 58.9503 23.8592 57.9851 26.7982C57.02 29.7372 55.5939 32.7241 53.7908 35.55C52.3537 37.8018 50.6813 39.9397 48.8171 41.8563C46.9529 43.7731 44.8965 45.4688 42.6921 46.837C40.9593 47.9118 40.596 49.5979 41.1058 50.7553C41.6157 51.9127 42.9985 52.5418 44.7585 51.5028C47.4362 49.9211 49.9226 47.9352 52.1637 45.6799C54.4049 43.4246 56.4009 40.8999 58.0978 38.2406C60.1524 35.021 61.7766 31.5846 62.875 28.1733C63.9733 24.7619 64.5458 21.3755 64.4971 18.2553H64.4968H64.4963V18.2548ZM35.6922 22.0783C35.3834 22.7264 35.0003 23.3265 34.5549 23.8632C34.1098 24.4001 33.6024 24.8738 33.0451 25.2692C32.5009 25.6552 31.908 25.9677 31.2779 26.1918C30.6478 26.416 29.9807 26.5519 29.2887 26.5851C28.6816 26.6137 28.0494 26.5645 27.3985 26.4283C26.7474 26.2921 26.0777 26.0687 25.3954 25.7488C24.5443 25.3489 23.9456 25.2063 23.4454 25.3674C22.945 25.5284 22.5434 25.9928 22.0864 26.807C21.4453 27.9484 20.4696 29.1771 19.2688 30.4393C18.0682 31.7015 16.6426 32.9973 15.1015 34.2731C14.9836 34.0722 14.8678 33.8709 14.754 33.6689C14.64 33.467 14.528 33.2645 14.4175 33.0612C13.0672 30.5749 12.0106 28.0168 11.3002 25.5184C10.5899 23.02 10.226 20.5814 10.2612 18.3338V18.3287V18.3237C10.285 16.814 10.5064 15.3354 10.9376 13.9521C11.3689 12.5687 12.01 11.2806 12.8734 10.1517C13.6233 9.1713 14.5538 8.30417 15.6746 7.59315C16.7955 6.88227 18.1066 6.32751 19.6175 5.972C20.4584 5.7739 21.2854 5.64664 22.1019 5.5921C22.9184 5.53756 23.7242 5.55546 24.5226 5.64751C25.3277 5.73999 26.1322 5.90765 26.9393 6.15192C27.7463 6.39619 28.5561 6.71692 29.3713 7.11572C30.198 7.52014 30.9538 7.94952 31.6371 8.41815C32.3204 8.88692 32.9313 9.39508 33.4677 9.95706C33.9847 10.4981 34.4421 11.1006 34.8401 11.7795C35.2381 12.4582 35.5766 13.2135 35.8563 14.06C35.9578 14.368 36.049 14.6767 36.1292 14.985C36.2094 15.293 36.2784 15.6009 36.3355 15.9071C36.3938 16.214 36.4413 16.5201 36.4782 16.825C36.5148 17.13 36.5405 17.4337 36.5549 17.7353C36.5927 18.5125 36.5321 19.273 36.3844 20.0019C36.2366 20.7307 36.002 21.4279 35.6922 22.0783ZM17.0985 18.4444C15.3296 17.9774 13.7568 19.5427 14.2203 21.3086C14.4241 22.0845 15.0502 22.7121 15.8247 22.9198C17.5974 23.395 19.1798 21.8205 18.7093 20.0509C18.503 19.2751 17.8745 18.6493 17.0985 18.4444Z" fill="#9747FF"/>
<path d="M64.4963 18.2548C64.4636 16.229 64.155 14.23 63.5523 12.343C62.9499 10.4563 62.0537 8.68161 60.8467 7.10461C59.7489 5.66857 58.4061 4.40322 56.8075 3.37204C55.2086 2.34086 53.3541 1.5437 51.2324 1.04434C49.6829 0.679311 48.1551 0.49665 46.6361 0.501845C45.1172 0.506894 43.6072 0.6998 42.0939 1.08575C40.8729 1.39726 39.6612 1.83227 38.4514 2.3941C37.3935 2.88538 36.3375 3.47347 35.2783 4.16054C35.0018 4.33988 34.647 4.33613 34.3734 4.15246C34.025 3.91858 33.665 3.6935 33.2936 3.47607C32.7606 3.16413 32.2042 2.86792 31.6238 2.58441C30.5377 2.05302 29.4543 1.62522 28.3686 1.29886C27.2831 0.972347 26.1954 0.747124 25.1012 0.621166C23.9999 0.494198 22.8975 0.467506 21.7891 0.538781C20.6808 0.610056 19.5665 0.779299 18.4412 1.04434C16.3195 1.5437 14.4649 2.34086 12.8661 3.37204C11.2673 4.40322 9.92427 5.66857 8.82587 7.10461C7.6196 8.68161 6.72374 10.4563 6.12133 12.343C5.51877 14.23 5.20966 16.229 5.17661 18.2548C5.14573 20.2295 5.36233 22.3083 5.80251 24.4313C6.20904 26.391 6.80623 28.3882 7.57523 30.3754C7.69165 30.6762 7.6238 31.0215 7.38878 31.2432C6.70967 31.8843 5.99113 32.4591 5.24838 32.9994C4.3647 33.6422 3.44651 34.2365 2.51904 34.8364C0.69543 36.0145 0.27976 37.7838 0.807358 38.9508C1.33496 40.1177 2.80611 40.6823 4.75644 39.4508C5.67362 38.8715 6.59398 38.2902 7.48766 37.674C8.11878 37.2387 8.73656 36.7861 9.33027 36.3043C9.71651 35.9908 10.2895 36.1078 10.5384 36.5375C10.5402 36.5404 10.5418 36.5433 10.5435 36.5462C10.5851 36.6182 10.6272 36.69 10.6692 36.7619C10.8822 37.1249 10.7884 37.5867 10.4426 37.8281C9.39841 38.5569 8.0992 39.4101 6.78971 40.2458C5.21242 41.2525 3.61991 42.2336 2.43945 42.9414C0.554505 44.07 0.173196 45.7698 0.74255 46.9025C1.31176 48.0356 2.83178 48.6016 4.74919 47.4634C6.01549 46.7099 7.69847 45.678 9.3697 44.6148C10.7724 43.7224 12.1669 42.8083 13.2998 42.0188C13.6514 41.7738 14.1266 41.8494 14.3937 42.1837C15.3703 43.4059 16.4123 44.5789 17.5132 45.6864C18.7941 46.9754 20.1547 48.1757 21.5845 49.2617C21.8775 49.4842 22.1717 49.6924 22.4717 49.8932C22.7713 50.0941 23.0768 50.2874 23.3923 50.48C23.6238 50.622 23.8368 50.7501 24.0302 50.8641C24.2235 50.9782 24.3973 51.0781 24.5506 51.1636C24.863 51.3372 25.1792 51.5033 25.5081 51.6569C25.837 51.8107 26.1786 51.9526 26.5418 52.0779C29.0134 52.9304 31.6515 52.4433 33.672 51.0517C35.6924 49.6599 37.0948 47.3634 37.0948 44.5969C37.0948 43.03 36.6295 41.5644 35.8294 40.3298C35.029 39.0952 33.894 38.0917 32.554 37.4491C30.588 36.5089 29.2529 37.3198 28.7867 38.5241C28.3205 39.7281 28.7231 41.3255 30.2327 41.958C30.7495 42.1756 31.189 42.5385 31.4993 42.9954C31.8094 43.4523 31.9903 44.0034 31.9903 44.5969C31.9903 45.5834 31.489 46.414 30.7665 46.9217C30.044 47.4295 29.1003 47.6146 28.2161 47.3096C28.0389 47.2487 27.851 47.1677 27.6547 47.0727C27.4584 46.9776 27.2537 46.8685 27.043 46.7512C26.837 46.6362 26.6527 46.5316 26.4896 46.4372C26.3266 46.3432 26.185 46.2593 26.0644 46.1856C25.7902 46.018 25.5252 45.8464 25.2654 45.6682C25.0056 45.4899 24.7508 45.3049 24.4977 45.1097C23.2826 44.1727 22.1238 43.1394 21.0302 42.0303C19.9367 40.9212 18.9084 39.7368 17.9539 38.4977L18.0621 38.4097L18.1701 38.3218C19.5904 37.1542 20.9382 35.9516 22.1511 34.7416C23.2179 33.6773 24.1803 32.6071 24.9957 31.5501C25.1968 31.2894 25.5294 31.1796 25.8496 31.2592C26.3884 31.3936 26.9235 31.4914 27.4532 31.555C28.1555 31.6393 28.8484 31.6631 29.5276 31.6306C30.7301 31.5729 31.8833 31.3405 32.9678 30.9581C34.0523 30.5756 35.0682 30.0432 35.9962 29.3857C36.9104 28.7369 37.739 27.9673 38.4623 27.1008C39.1855 26.2345 39.8037 25.2714 40.2973 24.2362C40.7793 23.2248 41.1441 22.1422 41.3737 21.0115C41.6032 19.8806 41.6978 18.7017 41.6395 17.4974C41.6192 17.074 41.5835 16.6514 41.5335 16.2309C41.4832 15.8104 41.4188 15.392 41.3407 14.9773C41.2611 14.5549 41.1677 14.136 41.0608 13.7222C40.954 13.3083 40.8339 12.8995 40.7011 12.4971C40.4246 11.6587 40.1036 10.8783 39.7384 10.1488C39.5015 9.67571 39.2461 9.22396 38.972 8.79184C38.7248 8.40199 38.8603 7.88849 39.2632 7.66067C39.8321 7.33878 40.3958 7.05469 40.9559 6.80811C41.7614 6.45303 42.5587 6.17543 43.3504 5.97358C44.4409 5.69512 45.5388 5.55849 46.6535 5.55949C47.7681 5.56065 48.8993 5.69945 50.0564 5.972C51.5679 6.32751 52.8788 6.88227 53.9994 7.59315C55.12 8.30417 56.0503 9.1713 56.8002 10.1517C57.6637 11.2806 58.305 12.5688 58.7363 13.9524C59.1676 15.3357 59.3889 16.8143 59.4125 18.3237V18.3287V18.3338C59.4541 20.9681 58.9503 23.8592 57.9852 26.7982C57.02 29.7372 55.5939 32.7241 53.7908 35.55C52.3537 37.8018 50.6813 39.9397 48.8171 41.8563C46.9529 43.7731 44.8965 45.4688 42.6921 46.837C40.9593 47.9118 40.596 49.5979 41.1058 50.7553C41.6157 51.9127 42.9986 52.5418 44.7585 51.5028C47.4362 49.9211 49.9226 47.9352 52.1637 45.6799C54.4049 43.4246 56.4009 40.8999 58.0978 38.2406C60.1524 35.021 61.7766 31.5846 62.875 28.1733C63.9733 24.7619 64.5458 21.3755 64.4971 18.2553H64.4968H64.4963V18.2548ZM35.6922 22.0783C35.3834 22.7264 35.0003 23.3265 34.5549 23.8632C34.1098 24.4001 33.6024 24.8738 33.0451 25.2692C32.501 25.6552 31.908 25.9677 31.2779 26.1918C30.6478 26.416 29.9807 26.5519 29.2887 26.5851C28.6816 26.6137 28.0494 26.5645 27.3985 26.4283C26.7474 26.2921 26.0777 26.0687 25.3954 25.7488C24.5444 25.3489 23.9456 25.2063 23.4454 25.3674C22.945 25.5284 22.5434 25.9928 22.0864 26.807C21.4453 27.9484 20.4696 29.1771 19.2688 30.4393C18.0682 31.7015 16.6426 32.9973 15.1015 34.2731C14.9836 34.0722 14.8678 33.8709 14.754 33.6689C14.64 33.467 14.528 33.2645 14.4175 33.0612C13.0672 30.5749 12.0106 28.0168 11.3002 25.5184C10.5899 23.02 10.226 20.5814 10.2612 18.3338V18.3287V18.3237C10.285 16.814 10.5064 15.3354 10.9376 13.9521C11.3689 12.5687 12.01 11.2806 12.8734 10.1517C13.6233 9.1713 14.5538 8.30417 15.6746 7.59315C16.7955 6.88227 18.1066 6.32751 19.6175 5.972C20.4584 5.7739 21.2854 5.64664 22.1019 5.5921C22.9184 5.53756 23.7242 5.55546 24.5226 5.64751C25.3277 5.73999 26.1322 5.90765 26.9394 6.15192C27.7463 6.39619 28.5561 6.71692 29.3713 7.11572C30.198 7.52014 30.9538 7.94952 31.6371 8.41815C32.3204 8.88692 32.9313 9.39508 33.4677 9.95706C33.9847 10.4981 34.4422 11.1006 34.8401 11.7795C35.2381 12.4582 35.5767 13.2135 35.8563 14.06C35.9578 14.368 36.049 14.6767 36.1292 14.985C36.2094 15.293 36.2784 15.6009 36.3355 15.9071C36.3938 16.214 36.4413 16.5201 36.4782 16.825C36.5149 17.13 36.5405 17.4337 36.5549 17.7353C36.5927 18.5125 36.5321 19.273 36.3844 20.0019C36.2366 20.7307 36.002 21.4279 35.6922 22.0783ZM17.0985 18.4444C15.3296 17.9774 13.7568 19.5427 14.2203 21.3086C14.4241 22.0845 15.0502 22.7121 15.8247 22.9198C17.5974 23.395 19.1798 21.8205 18.7093 20.0509C18.503 19.2751 17.8745 18.6493 17.0985 18.4444Z" fill="#9747FF"/>
</svg>
