<svg width="32" height="26" viewBox="0 0 32 26" fill="none" xmlns="http://www.w3.org/2000/svg">
<path d="M31.9981 8.87742C31.9818 7.86449 31.8275 6.86498 31.5261 5.92152C31.2249 4.97814 30.7769 4.0908 30.1734 3.3023C29.6244 2.58429 28.953 1.95161 28.1537 1.43602C27.3543 0.92043 26.427 0.521852 25.3662 0.272172C24.5915 0.0896557 23.8275 -0.00167479 23.068 0.000922276C22.3086 0.00344721 21.5536 0.0998999 20.7969 0.292877C20.1865 0.448629 19.5806 0.666133 18.9757 0.94705C18.4467 1.19269 17.9188 1.48674 17.3891 1.83027C17.2509 1.91994 17.0735 1.91807 16.9367 1.82623C16.7625 1.70929 16.5825 1.59675 16.3968 1.48803C16.1303 1.33207 15.8521 1.18396 15.5619 1.0422C15.0189 0.776509 14.4771 0.562611 13.9343 0.399428C13.3916 0.236174 12.8477 0.123562 12.3006 0.060583C11.75 -0.00290094 11.1987 -0.0162469 10.6445 0.0193906C10.0904 0.0550282 9.53323 0.139649 8.97062 0.272172C7.90976 0.521852 6.98244 0.92043 6.18307 1.43602C5.38363 1.95161 4.71213 2.58429 4.16293 3.3023C3.5598 4.0908 3.11187 4.97814 2.81066 5.92152C2.50939 6.86498 2.35483 7.86449 2.3383 8.87742C2.32286 9.86474 2.43117 10.9041 2.65125 11.9656C2.85452 12.9455 3.15312 13.9441 3.53761 14.9377C3.59583 15.0881 3.5619 15.2607 3.44439 15.3716C3.10484 15.6921 2.74557 15.9795 2.37419 16.2497C1.93235 16.5711 1.47325 16.8682 1.00952 17.1682C0.097715 17.7572 -0.11012 18.6419 0.153679 19.2254C0.417478 19.8089 1.15306 20.0911 2.12822 19.4754C2.58681 19.1858 3.04699 18.8951 3.49383 18.587C3.80939 18.3694 4.11828 18.143 4.41513 17.9022C4.60825 17.7454 4.89474 17.8039 5.01921 18.0187C5.02008 18.0202 5.02088 18.0216 5.02175 18.0231C5.04255 18.0591 5.06358 18.095 5.0846 18.1309C5.19109 18.3124 5.14419 18.5434 4.97129 18.664C4.4492 19.0284 3.7996 19.4551 3.14485 19.8729C2.35621 20.3762 1.55996 20.8668 0.969724 21.2207C0.0272526 21.785 -0.163402 22.6349 0.121275 23.2013C0.405879 23.7678 1.16589 24.0508 2.1246 23.4817C2.75774 23.105 3.59923 22.589 4.43485 22.0574C5.13621 21.6112 5.83344 21.1541 6.3999 20.7594C6.57569 20.6369 6.81332 20.6747 6.94685 20.8418C7.43516 21.4529 7.95616 22.0394 8.50659 22.5932C9.14706 23.2377 9.82733 23.8378 10.5422 24.3809C10.6888 24.4921 10.8358 24.5962 10.9858 24.6966C11.1357 24.797 11.2884 24.8937 11.4462 24.99C11.5619 25.061 11.6684 25.1251 11.7651 25.182C11.8617 25.2391 11.9487 25.289 12.0253 25.3318C12.1815 25.4186 12.3396 25.5016 12.504 25.5785C12.6685 25.6554 12.8393 25.7263 13.0209 25.789C14.2567 26.2152 15.5757 25.9716 16.586 25.2758C17.5962 24.58 18.2974 23.4317 18.2974 22.0485C18.2974 21.265 18.0648 20.5322 17.6647 19.9149C17.2645 19.2976 16.697 18.7959 16.027 18.4745C15.044 18.0045 14.3764 18.4099 14.1434 19.0121C13.9102 19.6141 14.1115 20.4127 14.8663 20.729C15.1248 20.8378 15.3445 21.0192 15.4996 21.2477C15.6547 21.4762 15.7452 21.7517 15.7452 22.0485C15.7452 22.5417 15.4945 22.957 15.1333 23.2109C14.772 23.4647 14.3002 23.5573 13.858 23.4048C13.7695 23.3743 13.6755 23.3339 13.5774 23.2863C13.4792 23.2388 13.3768 23.1843 13.2715 23.1256C13.1685 23.0681 13.0764 23.0158 12.9948 22.9686C12.9133 22.9216 12.8425 22.8797 12.7822 22.8428C12.6451 22.759 12.5126 22.6732 12.3827 22.5841C12.2528 22.4949 12.1254 22.4025 11.9988 22.3049C11.3913 21.8364 10.8119 21.3197 10.2651 20.7652C9.71837 20.2106 9.20419 19.6184 8.72697 18.9989L8.78105 18.9548L8.83506 18.9109C9.54519 18.3271 10.2191 17.7258 10.8255 17.1208C11.3589 16.5886 11.8401 16.0536 12.2478 15.5251C12.3484 15.3947 12.5147 15.3398 12.6748 15.3796C12.9442 15.4468 13.2118 15.4957 13.4766 15.5275C13.8277 15.5696 14.1742 15.5815 14.5138 15.5653C15.1151 15.5365 15.6917 15.4202 16.2339 15.2291C16.7761 15.0378 17.2841 14.7716 17.7481 14.4429C18.2052 14.1185 18.6195 13.7337 18.9811 13.3004C19.3427 12.8672 19.6518 12.3857 19.8987 11.8681C20.1396 11.3624 20.322 10.8211 20.4369 10.2557C20.5516 9.6903 20.5989 9.10084 20.5697 8.49868C20.5596 8.28702 20.5417 8.07572 20.5167 7.86543C20.4916 7.65521 20.4594 7.446 20.4203 7.23867C20.3805 7.02744 20.3338 6.81802 20.2804 6.61112C20.227 6.40414 20.167 6.19977 20.1006 5.99857C19.9623 5.57936 19.8018 5.18915 19.6192 4.8244C19.5008 4.58785 19.373 4.36198 19.236 4.14592C19.1124 3.95099 19.1801 3.69425 19.3816 3.58034C19.666 3.41939 19.9479 3.27734 20.2279 3.15405C20.6307 2.97652 21.0293 2.83772 21.4252 2.73679C21.9704 2.59756 22.5194 2.52924 23.0767 2.52975C23.6341 2.53032 24.1996 2.59972 24.7782 2.736C25.5339 2.91375 26.1894 3.19113 26.7497 3.54657C27.31 3.90208 27.7752 4.33565 28.1501 4.82585C28.5819 5.39028 28.9025 6.03442 29.1182 6.72618C29.3338 7.41787 29.4444 8.15717 29.4563 8.91183V8.91436V8.91688C29.4771 10.234 29.2252 11.6796 28.7426 13.1491C28.26 14.6186 27.547 16.1121 26.6454 17.525C25.9268 18.6509 25.0906 19.7198 24.1585 20.6782C23.2264 21.6365 22.1983 22.4844 21.096 23.1685C20.2297 23.7059 20.048 24.5489 20.3029 25.1277C20.5578 25.7064 21.2493 26.0209 22.1293 25.5014C23.4681 24.7105 24.7113 23.7176 25.8319 22.59C26.9525 21.4623 27.9505 20.1999 28.7989 18.8703C29.8262 17.2605 30.6383 15.5423 31.1875 13.8367C31.7366 12.131 32.0229 10.4378 31.9986 8.87764H31.9984H31.9981V8.87742ZM17.5961 10.7892C17.4417 11.1132 17.2502 11.4132 17.0275 11.6816C16.8049 11.95 16.5512 12.1869 16.2725 12.3846C16.0005 12.5776 15.704 12.7339 15.3889 12.8459C15.0739 12.958 14.7403 13.026 14.3943 13.0425C14.0908 13.0568 13.7747 13.0322 13.4493 12.9641C13.1237 12.896 12.7889 12.7844 12.4477 12.6244C12.0222 12.4244 11.7228 12.3532 11.4727 12.4337C11.2225 12.5142 11.0217 12.7464 10.7932 13.1535C10.4727 13.7242 9.98478 14.3386 9.3844 14.9696C8.78409 15.6007 8.07128 16.2486 7.30076 16.8866C7.24182 16.7861 7.1839 16.6854 7.12699 16.5844C7.07001 16.4835 7.01398 16.3822 6.95874 16.2806C6.28362 15.0375 5.7553 13.7584 5.40008 12.5092C5.04495 11.26 4.86299 10.0407 4.88061 8.91688V8.91436V8.91183C4.89249 8.15702 5.00319 7.41772 5.21878 6.72604C5.43445 6.03435 5.75501 5.39028 6.1867 4.82585C6.56163 4.33565 7.02688 3.90208 7.58732 3.54657C8.14776 3.19113 8.8033 2.91375 9.55875 2.736C9.9792 2.63695 10.3927 2.57332 10.801 2.54605C11.2092 2.51878 11.6121 2.52773 12.0113 2.57375C12.4139 2.62 12.8161 2.70382 13.2197 2.82596C13.6232 2.94809 14.028 3.10846 14.4357 3.30786C14.849 3.51007 15.2269 3.72476 15.5686 3.95907C15.9102 4.19346 16.2156 4.44754 16.4839 4.72853C16.7424 4.99906 16.9711 5.30032 17.1701 5.63974C17.3691 5.97909 17.5383 6.35675 17.6782 6.78C17.7289 6.93402 17.7745 7.08833 17.8146 7.24249C17.8547 7.39651 17.8892 7.55046 17.9177 7.70355C17.9469 7.85699 17.9707 8.01007 17.9891 8.16251C18.0074 8.31501 18.0203 8.46687 18.0274 8.61764C18.0464 9.00627 18.016 9.38652 17.9422 9.75097C17.8683 10.1154 17.751 10.4639 17.5961 10.7892ZM8.29926 8.97221C7.41479 8.73869 6.62839 9.52135 6.86015 10.4043C6.96207 10.7923 7.2751 11.1061 7.66235 11.2099C8.54871 11.4475 9.33989 10.6602 9.10465 9.77543C9.0015 9.38753 8.68724 9.07465 8.29926 8.97221Z" fill="#60719E"/>
<path d="M31.9981 8.87742C31.9818 7.86449 31.8275 6.86498 31.5261 5.92152C31.2249 4.97814 30.7769 4.0908 30.1734 3.3023C29.6244 2.58429 28.953 1.95161 28.1537 1.43602C27.3543 0.92043 26.427 0.521852 25.3662 0.272172C24.5915 0.0896557 23.8275 -0.00167479 23.068 0.000922276C22.3086 0.00344721 21.5536 0.0998999 20.7969 0.292877C20.1865 0.448629 19.5806 0.666133 18.9757 0.94705C18.4467 1.19269 17.9188 1.48674 17.3891 1.83027C17.2509 1.91994 17.0735 1.91807 16.9367 1.82623C16.7625 1.70929 16.5825 1.59675 16.3968 1.48803C16.1303 1.33207 15.8521 1.18396 15.5619 1.0422C15.0189 0.776509 14.4771 0.562611 13.9343 0.399428C13.3916 0.236174 12.8477 0.123562 12.3006 0.060583C11.75 -0.00290094 11.1987 -0.0162469 10.6445 0.0193906C10.0904 0.0550282 9.53323 0.139649 8.97062 0.272172C7.90976 0.521852 6.98244 0.92043 6.18307 1.43602C5.38363 1.95161 4.71213 2.58429 4.16293 3.3023C3.5598 4.0908 3.11187 4.97814 2.81066 5.92152C2.50939 6.86498 2.35483 7.86449 2.3383 8.87742C2.32286 9.86474 2.43117 10.9041 2.65125 11.9656C2.85452 12.9455 3.15312 13.9441 3.53761 14.9377C3.59583 15.0881 3.5619 15.2607 3.44439 15.3716C3.10484 15.6921 2.74557 15.9795 2.37419 16.2497C1.93235 16.5711 1.47325 16.8682 1.00952 17.1682C0.097715 17.7572 -0.11012 18.6419 0.153679 19.2254C0.417478 19.8089 1.15306 20.0911 2.12822 19.4754C2.58681 19.1858 3.04699 18.8951 3.49383 18.587C3.80939 18.3694 4.11828 18.143 4.41513 17.9022C4.60825 17.7454 4.89474 17.8039 5.01921 18.0187C5.02008 18.0202 5.02088 18.0216 5.02175 18.0231C5.04255 18.0591 5.06358 18.095 5.0846 18.1309C5.19109 18.3124 5.14419 18.5434 4.97129 18.664C4.4492 19.0284 3.7996 19.4551 3.14485 19.8729C2.35621 20.3762 1.55996 20.8668 0.969724 21.2207C0.0272526 21.785 -0.163402 22.6349 0.121275 23.2013C0.405879 23.7678 1.16589 24.0508 2.1246 23.4817C2.75774 23.105 3.59923 22.589 4.43485 22.0574C5.13621 21.6112 5.83344 21.1541 6.3999 20.7594C6.57569 20.6369 6.81332 20.6747 6.94685 20.8418C7.43516 21.4529 7.95616 22.0394 8.50659 22.5932C9.14706 23.2377 9.82733 23.8378 10.5422 24.3809C10.6888 24.4921 10.8358 24.5962 10.9858 24.6966C11.1357 24.797 11.2884 24.8937 11.4462 24.99C11.5619 25.061 11.6684 25.1251 11.7651 25.182C11.8617 25.2391 11.9487 25.289 12.0253 25.3318C12.1815 25.4186 12.3396 25.5016 12.504 25.5785C12.6685 25.6554 12.8393 25.7263 13.0209 25.789C14.2567 26.2152 15.5757 25.9716 16.586 25.2758C17.5962 24.58 18.2974 23.4317 18.2974 22.0485C18.2974 21.265 18.0648 20.5322 17.6647 19.9149C17.2645 19.2976 16.697 18.7959 16.027 18.4745C15.044 18.0045 14.3764 18.4099 14.1434 19.0121C13.9102 19.6141 14.1115 20.4127 14.8663 20.729C15.1248 20.8378 15.3445 21.0192 15.4996 21.2477C15.6547 21.4762 15.7452 21.7517 15.7452 22.0485C15.7452 22.5417 15.4945 22.957 15.1333 23.2109C14.772 23.4647 14.3002 23.5573 13.858 23.4048C13.7695 23.3743 13.6755 23.3339 13.5774 23.2863C13.4792 23.2388 13.3768 23.1843 13.2715 23.1256C13.1685 23.0681 13.0764 23.0158 12.9948 22.9686C12.9133 22.9216 12.8425 22.8797 12.7822 22.8428C12.6451 22.759 12.5126 22.6732 12.3827 22.5841C12.2528 22.4949 12.1254 22.4025 11.9988 22.3049C11.3913 21.8364 10.8119 21.3197 10.2651 20.7652C9.71837 20.2106 9.20419 19.6184 8.72697 18.9989L8.78105 18.9548L8.83506 18.9109C9.54519 18.3271 10.2191 17.7258 10.8255 17.1208C11.3589 16.5886 11.8401 16.0536 12.2478 15.5251C12.3484 15.3947 12.5147 15.3398 12.6748 15.3796C12.9442 15.4468 13.2118 15.4957 13.4766 15.5275C13.8277 15.5696 14.1742 15.5815 14.5138 15.5653C15.1151 15.5365 15.6917 15.4202 16.2339 15.2291C16.7761 15.0378 17.2841 14.7716 17.7481 14.4429C18.2052 14.1185 18.6195 13.7337 18.9811 13.3004C19.3427 12.8672 19.6518 12.3857 19.8987 11.8681C20.1396 11.3624 20.322 10.8211 20.4369 10.2557C20.5516 9.6903 20.5989 9.10084 20.5697 8.49868C20.5596 8.28702 20.5417 8.07572 20.5167 7.86543C20.4916 7.65521 20.4594 7.446 20.4203 7.23867C20.3805 7.02744 20.3338 6.81802 20.2804 6.61112C20.227 6.40414 20.167 6.19977 20.1006 5.99857C19.9623 5.57936 19.8018 5.18915 19.6192 4.8244C19.5008 4.58785 19.373 4.36198 19.236 4.14592C19.1124 3.95099 19.1801 3.69425 19.3816 3.58034C19.666 3.41939 19.9479 3.27734 20.2279 3.15405C20.6307 2.97652 21.0293 2.83772 21.4252 2.73679C21.9704 2.59756 22.5194 2.52924 23.0767 2.52975C23.6341 2.53032 24.1996 2.59972 24.7782 2.736C25.5339 2.91375 26.1894 3.19113 26.7497 3.54657C27.31 3.90208 27.7752 4.33565 28.1501 4.82585C28.5819 5.39028 28.9025 6.03442 29.1182 6.72618C29.3338 7.41787 29.4444 8.15717 29.4563 8.91183V8.91436V8.91688C29.4771 10.234 29.2252 11.6796 28.7426 13.1491C28.26 14.6186 27.547 16.1121 26.6454 17.525C25.9268 18.6509 25.0906 19.7198 24.1585 20.6782C23.2264 21.6365 22.1983 22.4844 21.096 23.1685C20.2297 23.7059 20.048 24.5489 20.3029 25.1277C20.5578 25.7064 21.2493 26.0209 22.1293 25.5014C23.4681 24.7105 24.7113 23.7176 25.8319 22.59C26.9525 21.4623 27.9505 20.1999 28.7989 18.8703C29.8262 17.2605 30.6383 15.5423 31.1875 13.8367C31.7366 12.131 32.0229 10.4378 31.9986 8.87764H31.9984H31.9981V8.87742ZM17.5961 10.7892C17.4417 11.1132 17.2502 11.4132 17.0275 11.6816C16.8049 11.95 16.5512 12.1869 16.2725 12.3846C16.0005 12.5776 15.704 12.7339 15.3889 12.8459C15.0739 12.958 14.7403 13.026 14.3943 13.0425C14.0908 13.0568 13.7747 13.0322 13.4493 12.9641C13.1237 12.896 12.7889 12.7844 12.4477 12.6244C12.0222 12.4244 11.7228 12.3532 11.4727 12.4337C11.2225 12.5142 11.0217 12.7464 10.7932 13.1535C10.4727 13.7242 9.98478 14.3386 9.3844 14.9696C8.78409 15.6007 8.07128 16.2486 7.30076 16.8866C7.24182 16.7861 7.1839 16.6854 7.12699 16.5844C7.07001 16.4835 7.01398 16.3822 6.95874 16.2806C6.28362 15.0375 5.7553 13.7584 5.40008 12.5092C5.04495 11.26 4.86299 10.0407 4.88061 8.91688V8.91436V8.91183C4.89249 8.15702 5.00319 7.41772 5.21878 6.72604C5.43445 6.03435 5.75501 5.39028 6.1867 4.82585C6.56163 4.33565 7.02688 3.90208 7.58732 3.54657C8.14776 3.19113 8.8033 2.91375 9.55875 2.736C9.9792 2.63695 10.3927 2.57332 10.801 2.54605C11.2092 2.51878 11.6121 2.52773 12.0113 2.57375C12.4139 2.62 12.8161 2.70382 13.2197 2.82596C13.6232 2.94809 14.028 3.10846 14.4357 3.30786C14.849 3.51007 15.2269 3.72476 15.5686 3.95907C15.9102 4.19346 16.2156 4.44754 16.4839 4.72853C16.7424 4.99906 16.9711 5.30032 17.1701 5.63974C17.3691 5.97909 17.5383 6.35675 17.6782 6.78C17.7289 6.93402 17.7745 7.08833 17.8146 7.24249C17.8547 7.39651 17.8892 7.55046 17.9177 7.70355C17.9469 7.85699 17.9707 8.01007 17.9891 8.16251C18.0074 8.31501 18.0203 8.46687 18.0274 8.61764C18.0464 9.00627 18.016 9.38652 17.9422 9.75097C17.8683 10.1154 17.751 10.4639 17.5961 10.7892ZM8.29926 8.97221C7.41479 8.73869 6.62839 9.52135 6.86015 10.4043C6.96207 10.7923 7.2751 11.1061 7.66235 11.2099C8.54871 11.4475 9.33989 10.6602 9.10465 9.77543C9.0015 9.38753 8.68724 9.07465 8.29926 8.97221Z" fill="#60719E"/>
</svg>
