<svg width="24" height="24" viewBox="0 0 24 24" fill="none" xmlns="http://www.w3.org/2000/svg">
<path d="M21.5925 17.5398L17.28 12.0001H19.5C19.6401 12.0001 19.7774 11.9609 19.8963 11.8869C20.0153 11.8129 20.1111 11.707 20.173 11.5813C20.2348 11.4556 20.2603 11.3151 20.2464 11.1757C20.2325 11.0363 20.1798 10.9036 20.0944 10.7926L12.5944 1.0426C12.5243 0.951567 12.4343 0.877844 12.3312 0.827113C12.2282 0.776383 12.1148 0.75 12 0.75C11.8851 0.75 11.7718 0.776383 11.6687 0.827113C11.5657 0.877844 11.4757 0.951567 11.4056 1.0426L3.90561 10.7926C3.82015 10.9036 3.7675 11.0363 3.75361 11.1757C3.73971 11.3151 3.76514 11.4556 3.82701 11.5813C3.88888 11.707 3.98472 11.8129 4.10366 11.8869C4.2226 11.9609 4.35989 12.0001 4.49998 12.0001H6.71623L2.40373 17.5398C2.31735 17.6509 2.26398 17.7841 2.24971 17.9241C2.23545 18.0641 2.26087 18.2053 2.32306 18.3316C2.38526 18.4578 2.48172 18.564 2.60143 18.638C2.72113 18.712 2.85925 18.7509 2.99998 18.7501H11.25V22.5001C11.25 22.699 11.329 22.8898 11.4697 23.0304C11.6103 23.1711 11.8011 23.2501 12 23.2501C12.1989 23.2501 12.3897 23.1711 12.5303 23.0304C12.671 22.8898 12.75 22.699 12.75 22.5001V18.7501H21C21.1404 18.7502 21.278 18.7108 21.3972 18.6365C21.5163 18.5622 21.6122 18.456 21.674 18.3299C21.7357 18.2037 21.7608 18.0628 21.7464 17.9231C21.732 17.7835 21.6787 17.6506 21.5925 17.5398ZM4.53373 17.2501L8.84623 11.7104C8.93261 11.5993 8.98599 11.4661 9.00025 11.3261C9.01452 11.1861 8.9891 11.0449 8.92691 10.9186C8.86471 10.7924 8.76825 10.6862 8.64854 10.6122C8.52884 10.5382 8.39072 10.4993 8.24998 10.5001H6.02342L12 2.7301L17.9765 10.5001H15.75C15.6096 10.5002 15.4722 10.5397 15.3531 10.614C15.2341 10.6884 15.1384 10.7947 15.0767 10.9208C15.0151 11.0468 14.9901 11.1877 15.0045 11.3273C15.019 11.4669 15.0723 11.5996 15.1584 11.7104L19.4662 17.2501H4.53373Z" fill="black"/>
</svg>
